{"glyphs":{"0":{"ha":853,"x_min":0,"x_max":0,"o":"m 760 457 b 428 931 760 767 633 931 b 93 451 222 931 93 763 b 425 -21 93 139 219 -21 b 760 457 631 -21 760 143 z m 211 454 b 426 828 211 711 288 828 b 619 653 521 828 588 772 l 217 342 b 211 454 213 376 211 413 z m 642 454 b 426 82 642 199 564 82 b 233 253 333 82 267 136 l 636 564 b 642 454 640 531 642 494 z "},"1":{"ha":853,"x_min":0,"x_max":0,"o":"m 158 0 l 735 0 l 735 100 l 513 100 l 513 925 l 479 925 l 157 758 l 157 635 l 392 757 l 392 100 l 158 100 z "},"2":{"ha":853,"x_min":0,"x_max":0,"o":"m 118 0 l 757 0 l 757 100 l 276 100 l 276 104 l 501 332 b 731 685 693 526 731 583 b 457 931 731 835 617 931 b 99 747 336 931 246 889 l 165 665 b 451 828 299 792 361 828 b 607 681 553 828 607 768 b 411 388 607 607 581 563 l 118 83 z "},"3":{"ha":853,"x_min":0,"x_max":0,"o":"m 106 810 l 542 810 l 542 806 l 257 490 l 279 435 b 401 446 322 442 360 446 b 621 296 560 446 621 386 b 293 106 621 192 539 124 l 126 93 l 136 -14 l 301 -3 b 744 297 621 19 744 133 b 431 539 744 426 658 539 l 431 542 l 703 833 l 703 910 l 106 910 z "},"4":{"ha":853,"x_min":0,"x_max":0,"o":"m 74 243 l 513 243 l 513 0 l 631 0 l 631 243 l 811 243 l 811 340 l 631 340 l 631 910 l 468 910 l 74 329 z m 522 826 l 522 332 l 190 332 l 190 339 z "},"5":{"ha":853,"x_min":0,"x_max":0,"o":"m 744 321 b 476 585 744 490 621 585 b 257 518 397 585 325 563 l 282 810 l 692 810 l 692 910 l 179 910 l 144 433 l 149 426 l 231 414 b 454 488 304 463 379 488 b 622 322 544 488 622 428 b 289 106 622 203 543 129 l 124 90 l 135 -14 l 296 0 b 744 321 622 28 744 146 z "},"6":{"ha":853,"x_min":0,"x_max":0,"o":"m 750 296 b 451 592 750 478 631 592 b 301 568 403 592 356 586 b 449 733 336 622 385 676 l 642 907 l 640 910 l 475 910 l 340 782 b 106 315 169 619 106 501 b 425 -21 106 96 257 -21 b 750 296 614 -21 750 110 z m 228 321 b 254 474 228 374 236 424 b 424 500 311 492 367 500 b 626 299 553 500 626 419 b 428 78 626 171 550 78 b 228 321 314 78 228 169 z "},"7":{"ha":853,"x_min":0,"x_max":0,"o":"m 354 0 l 739 810 l 739 910 l 82 910 l 82 806 l 615 806 l 615 797 l 211 3 l 211 0 z "},"8":{"ha":853,"x_min":0,"x_max":0,"o":"m 425 -21 b 747 243 610 -21 747 81 b 543 468 747 351 664 436 l 543 475 b 719 683 649 508 719 586 b 429 931 719 835 599 931 b 133 681 260 931 133 833 b 311 475 133 583 204 507 l 311 468 b 106 240 189 435 106 349 b 425 -21 106 79 243 -21 z m 428 514 b 253 675 333 514 253 578 b 426 835 253 775 326 835 b 600 678 528 835 600 775 b 428 514 600 581 521 514 z m 428 75 b 225 246 311 75 225 142 b 426 424 225 353 315 424 b 628 249 538 424 628 356 b 428 75 628 140 542 75 z "},"9":{"ha":853,"x_min":0,"x_max":0,"o":"m 514 128 b 750 594 681 286 750 417 b 438 931 750 814 604 931 b 104 614 240 931 104 800 b 403 318 104 432 224 318 b 554 343 451 318 499 325 b 407 176 519 288 471 233 l 213 3 l 214 0 l 379 0 z m 628 589 b 601 436 628 536 619 486 b 431 410 543 418 488 410 b 228 611 303 410 228 490 b 426 832 228 739 306 832 b 628 589 540 832 628 740 z "},"A":{"ha":853,"x_min":0,"x_max":0,"o":"m 178 0 l 256 247 l 590 247 l 671 0 l 797 0 l 501 910 l 353 910 l 56 0 z m 286 344 l 422 786 l 561 344 z "},"B":{"ha":853,"x_min":0,"x_max":0,"o":"m 132 910 l 132 0 l 476 0 b 783 226 707 0 783 101 b 525 464 783 356 694 442 l 525 469 b 739 697 682 508 739 592 b 463 910 739 826 656 910 z m 451 815 b 617 678 561 815 617 769 b 389 508 617 589 547 517 l 250 501 l 250 815 z m 418 410 b 664 239 589 403 664 332 b 475 94 664 153 604 94 l 250 94 l 250 417 z "},"C":{"ha":853,"x_min":0,"x_max":0,"o":"m 450 -21 b 783 114 553 -21 653 14 l 726 196 b 467 79 610 107 533 79 b 201 456 314 79 201 196 b 472 831 201 694 319 831 b 714 718 533 831 596 811 l 775 806 b 471 931 644 901 571 931 b 78 453 242 931 78 739 b 450 -21 78 154 213 -21 z "},"D":{"ha":853,"x_min":0,"x_max":0,"o":"m 128 910 l 128 0 l 231 0 b 781 467 590 0 781 175 b 278 910 781 749 594 910 z m 311 808 b 657 464 518 806 657 694 b 274 101 657 225 521 106 l 249 100 l 249 811 z "},"E":{"ha":853,"x_min":0,"x_max":0,"o":"m 136 910 l 136 0 l 753 0 l 753 100 l 257 100 l 257 410 l 668 410 l 668 510 l 257 510 l 257 810 l 743 810 l 743 910 z "},"F":{"ha":853,"x_min":0,"x_max":0,"o":"m 140 910 l 140 0 l 261 0 l 261 365 l 693 365 l 693 465 l 261 465 l 261 810 l 739 810 l 739 910 z "},"G":{"ha":853,"x_min":0,"x_max":0,"o":"m 693 808 l 703 910 b 551 922 636 919 599 922 b 76 451 265 922 76 750 b 511 -21 76 146 218 -21 b 765 15 594 -21 678 -8 l 765 490 l 432 490 l 432 393 l 650 393 l 650 94 b 521 79 607 85 561 79 b 201 456 307 79 201 207 b 554 821 201 700 344 821 b 693 808 601 821 633 818 z "},"H":{"ha":853,"x_min":0,"x_max":0,"o":"m 128 910 l 128 0 l 249 0 l 249 408 l 604 408 l 604 0 l 725 0 l 725 910 l 604 910 l 604 510 l 249 510 l 249 910 z "},"I":{"ha":853,"x_min":0,"x_max":0,"o":"m 182 60 l 182 0 l 671 0 l 671 60 l 488 92 l 488 818 l 671 850 l 671 910 l 182 910 l 182 850 l 367 818 l 367 92 z "},"J":{"ha":853,"x_min":0,"x_max":0,"o":"m 447 -17 b 715 257 631 -17 715 94 l 715 910 l 594 910 l 594 264 b 444 89 594 147 544 89 b 144 268 374 89 304 117 l 68 183 b 447 -17 249 18 332 -17 z "},"K":{"ha":853,"x_min":0,"x_max":0,"o":"m 253 910 l 132 910 l 132 0 l 253 0 l 253 446 l 663 0 l 821 0 l 821 3 l 393 468 l 804 907 l 804 910 l 656 910 l 253 471 z "},"L":{"ha":853,"x_min":0,"x_max":0,"o":"m 136 910 l 136 0 l 754 0 l 754 99 l 257 99 l 257 910 z "},"M":{"ha":853,"x_min":0,"x_max":0,"o":"m 729 910 l 596 910 l 428 456 l 258 910 l 124 910 l 86 0 l 200 0 l 224 756 l 413 249 l 440 249 l 629 771 l 653 0 l 767 0 z "},"N":{"ha":853,"x_min":0,"x_max":0,"o":"m 238 0 l 231 763 l 582 0 l 728 0 l 728 910 l 615 910 l 622 165 l 279 910 l 125 910 l 125 0 z "},"O":{"ha":853,"x_min":0,"x_max":0,"o":"m 775 457 b 428 931 775 767 640 931 b 78 451 215 931 78 763 b 425 -21 78 139 214 -21 b 775 457 638 -21 775 143 z m 201 454 b 426 831 201 713 286 831 b 651 454 565 831 651 714 b 426 79 651 197 567 79 b 201 454 288 79 201 196 z "},"P":{"ha":853,"x_min":0,"x_max":0,"o":"m 132 910 l 132 0 l 253 0 l 253 318 l 424 318 b 790 617 651 318 790 425 b 442 910 790 797 667 910 z m 442 810 b 668 614 590 810 668 738 b 432 417 668 493 585 417 l 253 417 l 253 810 z "},"Q":{"ha":853,"x_min":0,"x_max":0,"o":"m 842 -147 l 657 81 b 775 456 731 161 775 289 b 428 931 775 768 640 931 b 78 451 215 931 78 763 b 425 -19 78 140 214 -19 b 582 21 483 -19 536 -6 l 743 -215 z m 201 454 b 426 831 201 713 286 831 b 651 453 565 831 651 714 b 590 161 651 318 631 222 l 463 343 l 386 290 l 529 103 b 426 78 500 86 465 78 b 201 454 288 78 201 194 z "},"R":{"ha":853,"x_min":0,"x_max":0,"o":"m 807 6 l 589 260 b 429 385 518 342 489 361 l 429 393 b 750 663 692 428 750 531 b 464 910 750 813 646 910 l 132 910 l 132 0 l 253 0 l 253 361 b 461 240 357 351 393 329 l 654 0 l 807 0 z m 443 813 b 629 653 569 813 629 750 b 317 451 629 550 576 482 l 253 443 l 253 813 z "},"S":{"ha":853,"x_min":0,"x_max":0,"o":"m 428 82 b 126 153 353 82 244 110 l 97 50 b 426 -18 219 3 324 -18 b 750 246 631 -18 750 82 b 517 503 750 379 686 449 l 417 535 b 256 699 292 574 256 621 b 442 828 256 771 307 828 b 703 779 510 828 592 813 l 724 883 b 444 928 615 914 542 928 b 133 690 233 928 133 813 b 369 428 133 564 199 481 l 468 396 b 628 240 590 358 628 311 b 428 82 628 143 564 82 z "},"T":{"ha":853,"x_min":0,"x_max":0,"o":"m 71 810 l 367 810 l 367 0 l 488 0 l 488 810 l 782 810 l 782 910 l 71 910 z "},"U":{"ha":853,"x_min":0,"x_max":0,"o":"m 626 322 b 426 85 626 157 558 85 b 228 322 297 85 228 160 l 228 910 l 107 910 l 107 322 b 424 -21 107 93 217 -21 b 746 322 635 -21 746 90 l 746 910 l 626 910 z "},"V":{"ha":853,"x_min":0,"x_max":0,"o":"m 56 910 l 354 0 l 500 0 l 797 910 l 678 910 l 431 136 l 182 910 z "},"W":{"ha":853,"x_min":0,"x_max":0,"o":"m 665 0 l 789 910 l 675 910 l 589 165 l 444 738 l 411 738 l 268 168 l 182 910 l 64 910 l 186 0 l 307 0 l 424 490 l 542 0 z "},"X":{"ha":853,"x_min":0,"x_max":0,"o":"m 64 0 l 196 0 l 422 379 l 646 0 l 789 0 l 492 474 l 764 910 l 628 910 l 426 560 l 224 910 l 83 910 l 357 467 z "},"Y":{"ha":853,"x_min":0,"x_max":0,"o":"m 796 910 l 661 910 l 429 503 l 196 910 l 57 910 l 367 388 l 367 0 l 488 0 l 488 390 z "},"Z":{"ha":853,"x_min":0,"x_max":0,"o":"m 93 0 l 761 0 l 761 103 l 250 103 l 250 111 l 740 831 l 740 910 l 115 910 l 115 806 l 579 806 l 579 799 l 93 79 z "},"a":{"ha":853,"x_min":0,"x_max":0,"o":"m 679 163 l 679 446 b 397 657 679 593 613 657 b 151 632 338 657 249 649 l 164 536 b 393 560 256 551 342 560 b 563 449 531 560 563 531 l 563 400 l 322 372 b 93 174 150 353 93 297 b 289 -10 93 56 174 -10 b 554 92 389 -10 472 25 l 567 92 b 725 -3 585 28 631 1 l 790 -6 l 799 86 l 736 90 b 679 163 689 94 679 108 z m 315 83 b 211 182 243 83 211 119 b 343 293 211 239 232 278 l 563 322 l 563 190 b 315 83 450 107 386 83 z "},"b":{"ha":853,"x_min":0,"x_max":0,"o":"m 247 986 l 128 986 l 128 -1 l 163 -1 l 222 42 b 422 -11 286 6 353 -11 b 771 332 631 -11 771 142 b 483 660 771 532 642 660 b 247 546 396 660 328 629 z m 450 560 b 649 328 558 560 649 471 b 406 89 649 206 565 89 b 247 142 356 89 304 104 l 247 450 b 450 560 333 536 390 560 z "},"c":{"ha":853,"x_min":0,"x_max":0,"o":"m 456 565 b 699 475 518 565 576 554 l 754 563 b 454 667 621 650 538 667 b 97 328 253 667 97 519 b 438 -21 97 110 240 -21 b 757 81 535 -21 621 1 l 706 164 b 443 81 583 96 513 81 b 221 326 315 81 221 179 b 456 565 221 467 317 565 z "},"d":{"ha":853,"x_min":0,"x_max":0,"o":"m 369 -12 b 613 107 460 -12 529 19 l 624 0 l 725 0 l 725 986 l 606 986 l 606 582 b 408 656 536 640 472 656 b 82 315 221 656 82 514 b 369 -12 82 115 211 -12 z m 204 319 b 426 558 204 454 286 558 b 606 476 471 558 531 544 l 606 197 b 403 86 519 110 463 86 b 204 319 294 86 204 176 z "},"e":{"ha":853,"x_min":0,"x_max":0,"o":"m 496 88 b 222 281 317 93 235 151 l 746 281 b 750 331 749 293 750 310 b 440 667 750 551 628 667 b 104 313 246 667 104 518 b 461 -7 104 113 211 -3 l 625 -10 l 629 83 z m 440 572 b 632 369 549 572 622 511 l 225 369 b 440 572 243 500 332 572 z "},"f":{"ha":853,"x_min":0,"x_max":0,"o":"m 104 539 l 322 539 l 322 0 l 440 0 l 440 539 l 710 539 l 710 639 l 439 639 l 439 732 b 592 885 439 835 472 878 l 765 897 l 757 999 l 579 988 b 322 728 389 975 322 906 l 322 639 l 104 639 z "},"g":{"ha":853,"x_min":0,"x_max":0,"o":"m 82 333 b 368 21 82 142 213 21 b 607 135 457 21 526 50 l 607 -17 b 415 -218 607 -151 556 -210 l 188 -231 l 192 -332 l 431 -319 b 725 -12 646 -308 725 -218 l 725 651 l 693 651 l 626 610 b 431 660 564 644 499 660 b 82 333 224 660 82 514 z m 204 336 b 447 560 204 451 288 560 b 607 507 497 560 549 544 l 607 232 b 403 119 519 143 464 119 b 204 336 296 119 204 203 z "},"h":{"ha":853,"x_min":0,"x_max":0,"o":"m 251 986 l 132 986 l 132 0 l 251 0 l 251 397 b 496 547 374 513 433 547 b 606 429 574 547 606 508 l 606 0 l 725 0 l 725 450 b 529 656 725 576 661 656 b 251 507 440 656 368 617 z "},"i":{"ha":853,"x_min":0,"x_max":0,"o":"m 431 838 b 535 924 494 838 535 869 b 433 1014 535 982 500 1014 b 329 926 368 1014 329 976 b 431 838 329 868 371 838 z m 158 100 l 158 0 l 738 0 l 738 100 l 507 100 l 507 646 l 186 646 l 186 546 l 388 546 l 388 100 z "},"j":{"ha":853,"x_min":0,"x_max":0,"o":"m 503 838 b 607 924 567 838 607 868 b 504 1013 607 979 572 1013 b 400 926 440 1013 400 974 b 503 838 400 867 443 838 z m 581 -68 l 581 646 l 165 646 l 165 546 l 461 546 l 461 -69 b 317 -215 461 -169 421 -207 l 139 -228 l 143 -331 l 325 -319 b 581 -68 511 -308 581 -240 z "},"k":{"ha":853,"x_min":0,"x_max":0,"o":"m 272 986 l 154 986 l 154 0 l 272 0 l 272 318 l 610 0 l 769 0 l 769 3 l 401 340 l 768 643 l 768 646 l 615 646 l 272 357 z "},"l":{"ha":853,"x_min":0,"x_max":0,"o":"m 336 229 b 561 0 336 65 393 10 l 726 -10 l 733 93 l 582 103 b 454 242 490 107 454 142 l 454 986 l 82 986 l 82 886 l 336 886 z "},"m":{"ha":853,"x_min":0,"x_max":0,"o":"m 163 646 l 74 646 l 74 0 l 182 0 l 182 414 b 333 538 267 517 301 538 b 375 493 363 538 375 524 l 375 0 l 481 0 l 481 415 b 631 538 565 517 600 538 b 672 492 660 538 672 525 l 672 0 l 782 0 l 782 526 b 678 651 782 617 746 651 b 490 508 619 651 564 619 l 479 508 l 479 532 b 378 653 479 619 443 653 b 185 503 322 653 263 619 l 175 503 z "},"n":{"ha":853,"x_min":0,"x_max":0,"o":"m 233 646 l 132 646 l 132 0 l 251 0 l 251 397 b 496 547 374 513 433 547 b 606 429 574 547 606 508 l 606 0 l 725 0 l 725 450 b 529 656 725 576 661 656 b 246 501 439 656 367 617 z "},"o":{"ha":853,"x_min":0,"x_max":0,"o":"m 424 -21 b 764 321 624 -21 764 118 b 429 667 764 526 625 667 b 89 325 229 667 89 524 b 424 -21 89 117 228 -21 z m 426 79 b 210 324 297 79 210 171 b 426 568 210 475 299 568 b 643 322 556 568 643 469 b 426 79 643 167 556 79 z "},"p":{"ha":853,"x_min":0,"x_max":0,"o":"m 128 -319 l 247 -319 l 247 76 b 453 -10 324 7 390 -10 b 771 331 632 -10 771 131 b 485 658 771 531 640 658 b 240 533 393 658 324 625 l 229 646 l 128 646 z m 450 560 b 649 328 558 560 649 469 b 425 89 649 194 568 89 b 247 171 381 89 322 103 l 247 449 b 450 560 333 536 390 560 z "},"q":{"ha":853,"x_min":0,"x_max":0,"o":"m 82 314 b 369 -14 82 114 211 -14 b 606 100 457 -14 525 17 l 606 -319 l 725 -319 l 725 649 l 690 649 l 631 604 b 431 657 567 642 500 657 b 82 314 222 657 82 504 z m 204 318 b 447 558 204 442 288 558 b 606 506 497 558 549 543 l 606 196 b 403 86 519 110 463 86 b 204 318 294 86 204 175 z "},"r":{"ha":853,"x_min":0,"x_max":0,"o":"m 71 100 l 71 0 l 565 0 l 565 100 l 358 100 l 358 315 b 649 522 513 501 533 514 l 781 533 l 772 651 l 636 643 b 353 421 539 636 488 613 l 346 646 l 99 646 l 99 546 l 240 546 l 240 100 z "},"s":{"ha":853,"x_min":0,"x_max":0,"o":"m 725 181 b 511 369 725 276 689 328 l 392 397 b 269 489 288 424 269 447 b 457 567 269 533 308 567 b 682 538 514 567 594 557 l 699 639 b 458 664 617 654 519 664 b 147 479 235 664 147 586 b 360 294 147 389 182 338 l 481 267 b 604 172 582 242 604 217 b 404 81 604 119 557 81 b 149 111 344 81 249 90 l 131 10 b 403 -18 236 -11 321 -18 b 725 181 629 -18 725 69 z "},"t":{"ha":853,"x_min":0,"x_max":0,"o":"m 304 246 b 524 0 304 64 354 8 l 739 -10 l 747 92 l 551 103 b 422 263 451 108 422 142 l 422 546 l 708 546 l 708 646 l 421 646 l 421 886 l 306 886 l 306 646 l 86 646 l 86 546 l 304 546 z "},"u":{"ha":853,"x_min":0,"x_max":0,"o":"m 721 0 l 721 646 l 601 646 l 601 250 b 357 99 479 133 419 99 b 247 217 279 99 247 139 l 247 646 l 128 646 l 128 196 b 324 -10 128 69 192 -10 b 606 143 414 -10 486 31 l 613 0 z "},"v":{"ha":853,"x_min":0,"x_max":0,"o":"m 76 646 l 357 0 l 497 0 l 776 646 l 650 646 l 429 107 l 210 646 z "},"w":{"ha":853,"x_min":0,"x_max":0,"o":"m 657 0 l 793 646 l 681 646 l 583 129 l 439 557 l 415 557 l 271 128 l 174 646 l 61 646 l 193 0 l 311 0 l 425 342 l 538 0 z "},"x":{"ha":853,"x_min":0,"x_max":0,"o":"m 89 0 l 228 0 l 424 265 l 621 0 l 767 0 l 497 335 l 743 646 l 606 646 l 428 407 l 254 646 l 107 646 l 353 333 z "},"y":{"ha":853,"x_min":0,"x_max":0,"o":"m 432 -171 l 778 646 l 651 646 l 435 101 l 213 646 l 79 646 l 369 -36 l 322 -143 b 193 -217 297 -197 271 -212 l 63 -224 l 65 -325 l 219 -318 b 432 -171 321 -312 385 -283 z "},"z":{"ha":853,"x_min":0,"x_max":0,"o":"m 119 0 l 749 0 l 749 97 l 290 97 l 290 101 l 726 563 l 726 646 l 136 646 l 136 550 l 561 550 l 561 546 l 119 82 z "},".":{"ha":853,"x_min":0,"x_max":0,"o":"m 426 -21 b 547 92 503 -21 547 19 b 426 204 547 164 507 204 b 306 90 350 204 306 163 b 426 -21 306 19 346 -21 z "},",":{"ha":853,"x_min":0,"x_max":0,"o":"m 199 -211 l 315 -211 b 544 183 475 -72 519 -7 l 356 183 b 199 -208 340 17 319 -33 z "},":":{"ha":853,"x_min":0,"x_max":0,"o":"m 425 447 b 547 554 501 447 547 485 b 428 664 547 625 508 664 b 306 557 350 664 306 618 b 425 447 306 482 354 447 z m 425 -21 b 547 86 501 -21 547 18 b 428 197 547 157 508 197 b 306 89 350 197 306 150 b 425 -21 306 15 354 -21 z "},";":{"ha":853,"x_min":0,"x_max":0,"o":"m 439 447 b 563 554 515 447 563 485 b 442 664 563 625 524 664 b 321 557 365 664 321 618 b 439 447 321 482 369 447 z m 189 -211 l 306 -211 b 535 183 465 -72 508 -7 l 346 183 b 189 -208 329 17 310 -33 z "},"?":{"ha":853,"x_min":0,"x_max":0,"o":"m 383 336 b 443 472 396 442 403 451 l 557 532 b 747 768 699 604 747 656 b 465 1007 747 917 654 1007 b 92 925 356 1007 272 992 l 124 824 b 451 907 300 890 385 907 b 624 769 561 907 624 863 b 490 615 624 706 596 668 l 358 551 b 288 476 301 524 288 510 b 307 336 288 457 293 425 z m 338 -21 b 450 67 411 -21 450 10 b 340 157 450 125 419 157 b 229 69 264 157 229 121 b 338 -21 229 8 268 -21 z "},"!":{"ha":853,"x_min":0,"x_max":0,"o":"m 389 336 l 464 336 l 542 986 l 313 986 z m 422 -21 b 533 67 496 -21 533 10 b 425 157 533 125 503 157 b 313 69 349 157 313 121 b 422 -21 313 8 351 -21 z "},"¿":{"ha":853,"x_min":0,"x_max":0,"o":"m 517 1007 b 406 919 443 1007 406 976 b 514 829 406 861 436 829 b 626 917 590 829 626 865 b 517 1007 626 978 588 1007 z m 471 650 b 413 514 458 544 453 535 l 297 454 b 107 218 157 382 107 331 b 389 -21 107 69 201 -21 b 764 61 499 -21 583 -6 l 732 163 b 403 79 556 96 471 79 b 232 217 293 79 232 124 b 365 371 232 281 258 318 l 497 435 b 567 510 553 463 567 476 b 547 650 567 529 563 561 z "},"¡":{"ha":853,"x_min":0,"x_max":0,"o":"m 431 1007 b 319 919 357 1007 319 976 b 428 829 319 861 350 829 b 540 917 506 829 540 865 b 431 1007 540 978 501 1007 z m 464 650 l 389 650 l 313 0 l 540 0 z "},"…":{"ha":853,"x_min":0,"x_max":0,"o":"m 426 -21 b 511 85 482 -21 511 10 b 429 186 511 153 488 186 b 342 85 371 186 342 147 b 426 -21 342 7 375 -21 z m 711 -21 b 796 85 767 -21 796 10 b 714 186 796 153 772 186 b 626 85 656 186 626 147 b 711 -21 626 7 660 -21 z m 142 -21 b 226 85 197 -21 226 10 b 144 186 226 153 203 186 b 57 85 86 186 57 147 b 142 -21 57 7 90 -21 z "},"‥":{"ha":853,"x_min":0,"x_max":0,"o":"m 213 -21 b 315 92 276 -21 315 19 b 213 204 315 164 282 204 b 111 90 149 204 111 163 b 213 -21 111 19 144 -21 z m 640 -21 b 742 92 704 -21 742 19 b 640 204 742 164 708 204 b 538 90 575 204 538 163 b 640 -21 538 19 571 -21 z "},"“":{"ha":853,"x_min":0,"x_max":0,"o":"m 429 986 l 324 986 b 103 590 171 850 133 782 l 272 590 b 429 983 293 757 314 807 z m 778 986 l 671 986 b 450 590 518 850 481 782 l 621 590 b 778 983 642 757 661 807 z "},"”":{"ha":853,"x_min":0,"x_max":0,"o":"m 424 590 l 529 590 b 750 986 682 728 719 794 l 581 986 b 424 593 560 819 539 769 z m 75 590 l 182 590 b 403 986 335 728 372 794 l 232 986 b 75 593 211 819 192 769 z "},"„":{"ha":853,"x_min":0,"x_max":0,"o":"m 424 -212 l 529 -212 b 750 183 682 -75 719 -8 l 581 183 b 424 -210 560 17 539 -33 z m 75 -212 l 182 -212 b 403 183 335 -75 372 -8 l 232 183 b 75 -210 211 17 192 -33 z "},"‘":{"ha":853,"x_min":0,"x_max":0,"o":"m 619 986 l 503 986 b 276 601 351 867 289 775 l 460 601 b 619 983 467 744 504 833 z "},"’":{"ha":853,"x_min":0,"x_max":0,"o":"m 233 601 l 350 601 b 576 986 501 721 564 813 l 393 986 b 233 604 386 843 349 754 z "},"‚":{"ha":853,"x_min":0,"x_max":0,"o":"m 233 -201 l 350 -201 b 576 183 501 -82 564 10 l 393 183 b 233 -199 386 40 349 -49 z "},"«":{"ha":853,"x_min":0,"x_max":0,"o":"m 411 -21 l 411 96 l 194 328 l 411 550 l 411 664 l 88 371 l 88 272 z m 747 -21 l 747 96 l 531 328 l 747 550 l 747 664 l 424 371 l 424 272 z "},"»":{"ha":853,"x_min":0,"x_max":0,"o":"m 442 664 l 442 546 l 658 315 l 442 92 l 442 -21 l 765 271 l 765 369 z m 106 664 l 106 546 l 322 315 l 106 92 l 106 -21 l 429 271 l 429 369 z "},"‹":{"ha":853,"x_min":0,"x_max":0,"o":"m 614 -21 l 614 100 l 342 326 l 614 546 l 614 664 l 210 371 l 210 272 z "},"›":{"ha":853,"x_min":0,"x_max":0,"o":"m 239 664 l 239 542 l 511 315 l 239 97 l 239 -21 l 643 271 l 643 369 z "},"(":{"ha":853,"x_min":0,"x_max":0,"o":"m 160 453 b 669 -204 160 206 319 -15 l 726 -124 b 283 457 393 63 283 256 b 726 1038 283 658 393 851 l 669 1118 b 160 453 318 929 160 703 z "},")":{"ha":853,"x_min":0,"x_max":0,"o":"m 693 461 b 183 1118 693 708 533 929 l 126 1038 b 569 457 460 851 569 658 b 126 -124 569 256 460 63 l 183 -204 b 693 461 535 -15 693 211 z "},"[":{"ha":853,"x_min":0,"x_max":0,"o":"m 263 -187 l 728 -187 l 728 -87 l 383 -87 l 383 993 l 728 993 l 728 1093 l 263 1093 z "},"]":{"ha":853,"x_min":0,"x_max":0,"o":"m 125 993 l 469 993 l 469 -87 l 125 -87 l 125 -187 l 590 -187 l 590 1093 l 125 1093 z "},"{":{"ha":853,"x_min":0,"x_max":0,"o":"m 271 -24 b 424 -147 271 -87 308 -129 l 746 -193 l 760 -94 l 453 -51 b 399 -11 410 -44 399 -31 b 442 58 399 3 407 18 l 510 135 b 588 267 579 213 588 238 b 200 457 588 324 560 369 l 200 463 b 588 653 561 550 588 596 b 510 785 588 682 579 707 l 442 861 b 399 931 407 901 399 917 b 453 971 399 950 410 964 l 760 1014 l 746 1113 l 424 1067 b 271 943 308 1049 271 1007 b 343 810 271 907 289 868 l 410 735 b 456 658 450 688 456 675 b 103 514 456 626 439 600 l 103 406 b 456 261 439 318 456 293 b 410 186 456 244 450 232 l 343 110 b 271 -24 289 51 271 13 z "},"}":{"ha":853,"x_min":0,"x_max":0,"o":"m 582 -24 b 510 110 582 13 564 51 l 443 186 b 397 261 403 232 397 244 b 750 406 397 293 414 318 l 750 514 b 397 658 414 601 397 626 b 443 735 397 675 403 688 l 510 810 b 582 943 564 868 582 907 b 429 1067 582 1007 544 1049 l 107 1113 l 93 1014 l 400 971 b 454 931 443 964 454 950 b 411 861 454 917 446 901 l 343 785 b 265 653 274 707 265 682 b 653 463 265 596 293 550 l 653 457 b 265 267 293 369 265 324 b 343 135 265 238 274 213 l 411 58 b 454 -11 446 18 454 3 b 400 -51 454 -31 443 -44 l 93 -94 l 107 -193 l 429 -147 b 582 -24 544 -129 582 -87 z "},"/":{"ha":853,"x_min":0,"x_max":0,"o":"m 796 1049 l 675 1049 l 57 -139 l 181 -139 z "},"\\":{"ha":853,"x_min":0,"x_max":0,"o":"m 57 1049 l 672 -139 l 796 -139 l 178 1049 z "},"|":{"ha":853,"x_min":0,"x_max":0,"o":"m 482 1049 l 371 1049 l 371 -139 l 482 -139 z "},"-":{"ha":853,"x_min":0,"x_max":0,"o":"m 167 446 l 167 332 l 686 332 l 686 446 z "},"–":{"ha":853,"x_min":0,"x_max":0,"o":"m 111 446 l 111 332 l 742 332 l 742 446 z "},"—":{"ha":853,"x_min":0,"x_max":0,"o":"m 69 446 l 69 332 l 783 332 l 783 446 z "},"·":{"ha":853,"x_min":0,"x_max":0,"o":"m 426 351 b 547 464 503 351 547 392 b 426 576 547 536 507 576 b 306 463 350 576 306 535 b 426 351 306 392 346 351 z "},"•":{"ha":853,"x_min":0,"x_max":0,"o":"m 428 646 b 240 463 304 646 240 569 b 428 282 240 335 318 282 b 614 463 550 282 614 357 b 428 646 614 592 536 646 z "},"_":{"ha":853,"x_min":0,"x_max":0,"o":"m 108 -36 l 108 -147 l 744 -147 l 744 -36 z "},"&":{"ha":853,"x_min":0,"x_max":0,"o":"m 658 901 b 446 929 556 921 494 929 b 214 735 293 929 214 840 b 297 542 214 683 235 629 l 321 508 b 78 229 122 444 78 369 b 310 -11 78 78 175 -11 b 569 160 433 -11 500 31 l 682 0 l 818 0 l 629 264 l 756 560 l 663 596 l 564 346 l 388 600 b 325 740 336 674 325 710 b 442 833 325 794 367 833 b 642 807 490 833 544 826 z m 190 240 b 371 436 190 338 208 382 l 510 235 b 328 90 456 115 406 90 b 190 240 249 90 190 140 z "},"@":{"ha":853,"x_min":0,"x_max":0,"o":"m 683 -83 l 672 -18 b 481 -43 590 -37 531 -43 b 154 444 265 -43 154 78 b 456 940 154 835 268 940 b 694 715 599 940 669 897 l 558 715 b 303 449 394 715 303 640 b 539 179 303 260 375 179 b 778 497 693 179 778 249 b 464 1007 778 918 672 1007 b 83 438 229 1007 83 871 b 474 -110 83 33 211 -110 b 683 -83 542 -110 600 -101 z m 396 447 b 556 635 396 586 450 635 l 703 635 b 707 494 706 593 707 547 b 544 260 707 315 658 260 b 396 447 446 260 396 307 z "},"℗":{"ha":853,"x_min":0,"x_max":0,"o":"m 774 456 b 426 1007 774 875 642 1007 b 79 456 213 1007 79 875 b 426 -97 79 36 213 -97 b 774 456 642 -97 774 36 z m 146 456 b 426 944 146 840 253 944 b 707 456 601 944 707 840 b 426 -35 707 71 601 -35 b 146 456 253 -35 146 71 z m 290 764 l 290 146 l 376 146 l 376 357 l 415 357 b 613 558 544 357 613 411 b 431 764 613 710 554 764 z m 428 688 b 525 556 497 688 525 661 b 422 438 525 461 494 438 l 376 438 l 376 688 z "},"©":{"ha":853,"x_min":0,"x_max":0,"o":"m 774 456 b 426 1007 774 875 642 1007 b 79 456 213 1007 79 875 b 426 -97 79 36 213 -97 b 774 456 642 -97 774 36 z m 146 456 b 426 944 146 840 253 944 b 707 456 601 944 707 840 b 426 -35 707 71 601 -35 b 146 456 253 -35 146 71 z m 429 135 b 617 258 488 135 540 149 l 561 300 b 438 210 503 218 471 210 b 338 456 379 210 338 289 b 442 700 338 608 382 700 b 553 606 475 700 496 688 l 611 651 b 442 775 543 756 503 775 b 251 453 332 775 251 649 b 429 135 251 256 314 135 z "},"®":{"ha":853,"x_min":0,"x_max":0,"o":"m 94 646 b 426 289 94 431 222 289 b 758 649 628 289 758 432 b 426 1007 758 869 629 1007 b 94 646 224 1007 94 867 z m 426 338 b 150 649 258 338 150 457 b 426 957 150 840 256 957 b 704 646 599 957 704 839 b 426 338 704 456 599 338 z m 586 479 l 508 579 b 444 629 485 611 469 621 l 444 632 b 574 740 550 647 574 688 b 454 839 574 801 531 839 l 301 839 l 301 476 l 368 476 l 368 619 b 433 572 399 615 411 606 l 500 476 l 586 476 z m 442 782 b 506 733 485 782 506 767 b 393 667 506 699 486 678 l 368 664 l 368 782 z "},"℠":{"ha":853,"x_min":0,"x_max":0,"o":"m 197 613 b 63 647 164 613 113 626 l 44 585 b 197 551 101 561 150 551 b 344 675 288 551 344 594 b 236 804 344 742 315 776 l 188 819 b 129 886 143 835 129 854 b 201 935 129 913 150 935 b 318 911 232 935 269 928 l 332 974 b 201 996 281 989 246 996 b 61 885 104 996 61 940 b 168 757 61 825 89 785 l 215 740 b 275 674 260 725 275 703 b 197 613 275 636 249 613 z m 769 986 l 685 986 l 606 796 l 524 986 l 439 986 l 422 561 l 490 561 l 494 922 l 590 694 l 619 694 l 714 926 l 718 561 l 785 561 z "},"™":{"ha":853,"x_min":0,"x_max":0,"o":"m 51 919 l 174 919 l 174 561 l 249 561 l 249 919 l 368 919 l 368 986 l 51 986 z m 769 986 l 685 986 l 606 796 l 524 986 l 439 986 l 422 561 l 490 561 l 494 922 l 590 694 l 619 694 l 714 926 l 718 561 l 785 561 z "},"*":{"ha":853,"x_min":0,"x_max":0,"o":"m 151 315 l 260 222 b 426 486 318 290 361 406 b 594 222 492 406 536 290 l 703 315 b 464 518 644 385 535 442 b 771 576 564 550 686 546 l 722 713 b 451 568 639 683 547 606 b 500 875 456 671 500 785 l 356 875 b 403 567 356 785 399 672 b 132 713 306 606 215 683 l 83 576 b 390 518 168 546 290 550 b 151 315 319 442 210 385 z "},"†":{"ha":853,"x_min":0,"x_max":0,"o":"m 749 597 l 749 725 b 463 689 654 725 557 696 b 497 986 467 788 497 889 l 356 986 b 393 689 356 889 388 788 b 104 725 296 694 194 725 l 104 597 b 394 638 193 597 296 631 b 356 0 392 425 356 211 l 497 0 b 461 638 497 211 464 425 b 749 597 557 631 654 597 z "},"‡":{"ha":853,"x_min":0,"x_max":0,"o":"m 728 264 l 728 392 b 461 356 639 392 550 363 l 461 638 b 749 597 558 631 658 597 l 749 725 b 463 689 656 725 558 696 b 497 986 467 788 497 888 l 356 986 b 393 689 356 888 388 788 b 104 725 297 694 203 725 l 104 597 b 394 638 200 597 297 631 l 394 356 b 126 392 306 361 218 392 l 126 264 b 394 304 218 264 306 297 b 360 0 390 203 360 101 l 493 0 b 461 304 493 101 465 203 b 728 264 550 296 639 264 z "},"§":{"ha":853,"x_min":0,"x_max":0,"o":"m 81 279 b 289 46 81 182 119 119 l 460 -28 b 582 -143 567 -75 582 -101 b 415 -233 582 -197 547 -233 b 161 -196 343 -233 269 -222 l 143 -299 b 413 -333 247 -322 317 -333 b 701 -133 619 -333 701 -251 b 536 64 701 -43 654 13 b 771 317 729 158 771 221 b 564 550 771 414 733 476 l 393 625 b 271 739 285 671 271 697 b 438 829 271 793 306 829 b 692 792 508 829 583 818 l 710 894 b 439 929 604 918 535 929 b 151 729 233 929 151 847 b 317 532 151 639 194 586 b 81 279 122 438 81 375 z m 365 138 b 203 299 225 200 203 236 b 408 493 203 356 224 397 l 486 458 b 650 297 626 396 650 360 b 444 103 650 240 628 199 z "},"¶":{"ha":853,"x_min":0,"x_max":0,"o":"m 457 389 l 457 821 l 597 821 l 597 0 l 711 0 l 711 910 l 443 910 b 111 654 207 910 111 813 b 451 389 111 485 217 389 z "},"+":{"ha":853,"x_min":0,"x_max":0,"o":"m 97 406 l 369 406 l 369 121 l 482 121 l 482 406 l 756 406 l 756 504 l 482 504 l 482 788 l 369 788 l 369 504 l 97 504 z "},"÷":{"ha":853,"x_min":0,"x_max":0,"o":"m 428 656 b 524 739 489 656 524 683 b 428 822 524 792 492 822 b 332 739 365 822 332 792 b 428 656 332 685 363 656 z m 97 406 l 756 406 l 756 504 l 97 504 z m 428 88 b 524 172 489 88 524 117 b 428 256 524 225 492 256 b 332 171 365 256 332 224 b 428 88 332 117 363 88 z "},"−":{"ha":853,"x_min":0,"x_max":0,"o":"m 97 406 l 756 406 l 756 504 l 97 504 z "},"=":{"ha":853,"x_min":0,"x_max":0,"o":"m 129 542 l 724 542 l 724 640 l 129 640 z m 129 269 l 724 269 l 724 369 l 129 369 z "},"≠":{"ha":853,"x_min":0,"x_max":0,"o":"m 129 269 l 283 269 l 171 69 l 272 69 l 375 269 l 724 269 l 724 369 l 425 365 l 476 465 l 522 544 l 724 542 l 724 640 l 576 640 l 697 853 l 594 853 l 483 640 l 129 640 l 129 542 l 435 546 l 393 467 l 338 367 l 129 369 z "},"~":{"ha":853,"x_min":0,"x_max":0,"o":"m 797 589 l 704 621 b 592 425 642 464 624 425 b 443 513 565 425 547 433 b 261 613 340 590 306 613 b 56 331 186 613 133 565 l 149 299 b 261 496 211 457 229 496 b 410 408 288 496 306 488 b 592 308 513 331 547 308 b 797 589 667 308 719 356 z "},"≈":{"ha":853,"x_min":0,"x_max":0,"o":"m 794 760 l 704 793 b 594 603 640 639 625 603 b 444 690 568 603 549 613 b 260 790 339 771 297 790 b 57 524 189 790 140 749 l 147 490 b 258 679 213 644 228 679 b 407 592 285 679 303 671 b 593 492 514 511 554 492 b 794 760 664 492 713 535 z m 794 392 l 704 425 b 594 235 640 271 625 235 b 444 322 568 235 549 244 b 260 422 339 403 297 422 b 57 156 189 422 140 381 l 147 122 b 258 311 213 276 228 311 b 407 224 285 311 303 303 b 593 124 514 143 554 124 b 794 392 664 124 713 167 z "},"×":{"ha":853,"x_min":0,"x_max":0,"o":"m 188 146 l 422 383 l 654 149 l 733 226 l 497 458 l 736 693 l 664 765 l 428 528 l 197 761 l 118 683 l 353 453 l 115 218 z "},"<":{"ha":853,"x_min":0,"x_max":0,"o":"m 747 110 l 747 221 l 203 447 l 747 672 l 747 782 l 94 501 l 94 392 z "},">":{"ha":853,"x_min":0,"x_max":0,"o":"m 758 392 l 758 501 l 106 782 l 106 672 l 650 447 l 106 221 l 106 110 z "},"≤":{"ha":853,"x_min":0,"x_max":0,"o":"m 719 283 l 719 394 l 225 607 l 719 819 l 719 931 l 122 661 l 122 553 z m 122 0 l 719 0 l 719 99 l 122 99 z "},"≥":{"ha":853,"x_min":0,"x_max":0,"o":"m 128 283 l 725 553 l 725 661 l 128 931 l 128 819 l 622 607 l 128 394 z m 725 0 l 725 99 l 128 99 l 128 0 z "},"±":{"ha":853,"x_min":0,"x_max":0,"o":"m 97 556 l 369 556 l 369 297 l 482 297 l 482 556 l 756 556 l 756 654 l 482 654 l 482 910 l 369 910 l 369 654 l 97 654 z m 756 0 l 756 99 l 97 99 l 97 0 z "},"^":{"ha":853,"x_min":0,"x_max":0,"o":"m 71 376 l 196 376 l 425 821 l 654 376 l 782 376 l 493 910 l 357 910 z "},"µ":{"ha":853,"x_min":0,"x_max":0,"o":"m 349 -11 b 606 142 435 -11 493 29 l 613 0 l 721 0 l 721 646 l 601 646 l 601 250 b 357 99 479 133 419 99 b 247 217 279 99 247 139 l 247 646 l 128 646 l 128 -319 l 251 -319 l 251 -299 l 226 49 b 349 -11 258 8 304 -11 z "},"#":{"ha":853,"x_min":0,"x_max":0,"o":"m 56 239 l 213 239 l 165 -17 l 251 -17 l 300 243 l 475 243 l 426 -17 l 515 -17 l 563 239 l 756 239 l 756 346 l 583 346 l 625 571 l 797 571 l 797 679 l 644 679 l 690 925 l 603 925 l 556 675 l 379 675 l 426 925 l 339 925 l 293 679 l 99 679 l 99 571 l 274 571 l 232 346 l 56 346 z m 497 318 l 306 318 l 358 599 l 549 599 z "},"%":{"ha":853,"x_min":0,"x_max":0,"o":"m 63 685 b 260 440 63 533 126 440 b 464 686 394 440 464 535 b 261 931 464 839 394 931 b 63 685 129 931 63 836 z m 549 524 l 817 908 l 817 917 l 686 917 l 492 524 z m 260 854 b 374 685 339 854 374 792 b 261 519 374 578 340 519 b 151 686 183 519 151 579 b 260 854 151 792 182 854 z m 389 224 b 592 -21 389 72 458 -21 b 790 225 724 -21 790 74 b 593 469 790 376 726 469 b 389 224 458 469 389 375 z m 593 56 b 479 225 514 56 479 118 b 592 390 479 332 513 390 b 703 224 669 390 703 331 b 593 56 703 118 671 56 z m 304 386 l 36 1 l 36 -7 l 167 -7 l 361 386 z "},"\"":{"ha":853,"x_min":0,"x_max":0,"o":"m 554 563 l 664 563 l 692 986 l 526 986 z m 199 563 l 310 563 l 336 986 l 171 986 z "},"'":{"ha":853,"x_min":0,"x_max":0,"o":"m 367 563 l 486 563 l 514 986 l 339 986 z "},"ª":{"ha":853,"x_min":0,"x_max":0,"o":"m 628 585 l 628 796 b 393 961 628 911 572 961 b 196 942 356 961 279 954 l 206 863 b 389 881 286 875 353 881 b 532 797 503 881 532 858 l 532 769 l 333 747 b 149 590 190 732 149 683 b 307 451 149 500 215 451 b 521 531 388 451 454 478 l 535 531 b 657 457 550 485 589 457 l 707 456 l 714 531 l 674 533 b 628 585 640 535 628 551 z m 326 529 b 244 596 271 529 244 554 b 356 681 244 643 267 669 l 532 703 l 532 614 b 326 529 443 546 388 529 z m 172 328 l 172 249 l 701 249 l 701 328 z "},"º":{"ha":853,"x_min":0,"x_max":0,"o":"m 425 449 b 692 706 575 449 692 554 b 428 961 692 857 578 961 b 161 704 276 961 161 856 b 425 449 161 551 275 449 z m 426 531 b 258 704 331 531 258 597 b 425 879 258 814 331 879 b 596 706 522 879 596 813 b 426 531 596 596 521 531 z m 172 328 l 172 249 l 688 249 l 688 328 z "},"°":{"ha":853,"x_min":0,"x_max":0,"o":"m 140 681 b 426 404 140 514 260 404 b 713 682 594 404 713 517 b 428 961 713 850 596 961 b 140 681 261 961 140 849 z m 426 878 b 614 681 532 878 614 799 b 428 488 614 565 535 488 b 240 682 318 488 240 567 b 426 878 240 800 317 878 z "},"$":{"ha":853,"x_min":0,"x_max":0,"o":"m 478 -197 l 478 3 b 749 254 650 18 749 111 b 482 519 749 382 694 454 l 482 810 b 700 765 542 806 613 790 l 722 868 b 486 908 631 892 564 906 l 486 1107 l 397 1107 l 397 908 b 131 681 218 893 131 792 b 393 415 131 563 194 472 l 393 100 b 125 168 322 107 226 132 l 96 65 b 388 1 204 28 297 6 l 388 -197 z m 253 690 b 410 810 253 751 297 803 l 410 531 b 253 690 282 574 253 622 z m 625 249 b 465 100 625 167 575 111 l 465 403 b 625 249 599 358 625 311 z "},"£":{"ha":853,"x_min":0,"x_max":0,"o":"m 103 0 l 765 0 l 765 100 l 244 100 b 435 350 389 244 426 300 l 701 350 l 701 429 l 433 429 b 329 568 424 465 396 503 b 260 704 269 626 260 663 b 426 831 260 772 324 831 b 678 685 522 831 594 783 l 756 760 b 422 931 663 871 558 931 b 136 707 242 931 136 821 b 233 517 136 638 154 593 b 319 424 283 468 308 443 l 114 424 l 114 346 l 322 346 b 103 97 308 304 258 244 z "},"¥":{"ha":853,"x_min":0,"x_max":0,"o":"m 114 188 l 369 188 l 369 0 l 481 0 l 481 188 l 736 188 l 736 267 l 481 267 l 481 385 l 736 385 l 736 463 l 506 463 l 796 910 l 665 910 l 428 515 l 193 910 l 57 910 l 346 463 l 114 463 l 114 385 l 369 385 l 369 267 l 114 267 z "},"€":{"ha":853,"x_min":0,"x_max":0,"o":"m 67 311 l 189 311 b 532 -21 203 100 321 -21 b 797 44 618 -21 692 -6 l 768 143 b 531 79 654 90 594 79 b 311 314 390 79 319 164 l 607 314 l 607 392 l 310 392 l 310 518 l 607 518 l 607 596 l 311 596 b 536 829 322 756 400 829 b 756 769 594 829 650 818 l 786 868 b 540 929 688 913 619 929 b 190 599 339 929 207 803 l 67 599 l 67 518 l 188 518 l 188 392 l 67 392 z "},"₦":{"ha":853,"x_min":0,"x_max":0,"o":"m 250 0 l 247 310 l 431 310 l 536 0 l 704 0 l 704 306 l 832 306 l 832 385 l 704 385 l 704 533 l 832 533 l 832 613 l 704 613 l 704 910 l 603 910 l 606 608 l 421 608 l 319 910 l 147 910 l 147 613 l 21 613 l 21 533 l 147 533 l 147 385 l 21 385 l 21 306 l 147 306 l 147 0 z m 242 843 l 250 843 l 411 369 l 246 369 z m 442 549 l 607 549 l 611 76 l 601 76 z "},"₱":{"ha":853,"x_min":0,"x_max":0,"o":"m 22 579 l 147 579 l 147 0 l 268 0 l 268 318 l 369 318 b 719 579 569 318 701 415 l 835 579 l 835 658 l 718 658 b 390 910 701 814 586 910 l 147 910 l 147 658 l 22 658 z m 390 810 b 597 647 514 810 585 750 l 268 647 l 268 810 z m 381 417 l 268 417 l 268 589 l 597 589 b 381 417 588 482 511 417 z "},"₺":{"ha":853,"x_min":0,"x_max":0,"o":"m 33 185 l 167 261 l 167 0 l 372 0 b 794 392 617 0 774 133 l 679 407 b 369 99 660 196 546 99 l 288 99 l 288 326 l 544 471 l 544 563 l 288 415 l 288 551 l 544 699 l 544 790 l 288 643 l 288 910 l 167 910 l 167 578 l 33 501 l 33 410 l 167 486 l 167 350 l 33 274 z "},"₽":{"ha":853,"x_min":0,"x_max":0,"o":"m 50 178 l 188 178 l 188 0 l 307 0 l 307 178 l 619 178 l 619 257 l 307 257 l 307 394 l 478 394 b 819 649 715 394 819 485 b 507 910 819 807 724 910 l 188 910 l 188 474 l 50 474 l 50 394 l 188 394 l 188 257 l 50 257 z m 496 810 b 700 643 642 810 700 746 b 478 474 700 544 636 474 l 307 474 l 307 810 z "},"₹":{"ha":853,"x_min":0,"x_max":0,"o":"m 93 569 l 504 569 b 314 389 499 451 447 389 l 93 389 l 93 304 l 554 0 l 740 0 l 740 3 l 294 293 l 294 296 l 310 296 b 626 569 521 296 618 392 l 767 569 l 767 651 l 626 651 l 626 831 l 767 831 l 767 910 l 93 910 l 93 831 l 504 831 l 504 651 l 93 651 z "},"฿":{"ha":853,"x_min":0,"x_max":0,"o":"m 482 -197 l 482 0 b 783 226 707 0 783 101 b 532 463 783 354 696 440 l 532 468 b 767 697 708 497 767 592 b 492 910 767 826 683 910 l 482 910 l 482 1107 l 389 1107 l 389 910 l 132 910 l 132 0 l 389 0 l 389 -197 z m 250 815 l 400 815 l 400 507 l 250 500 z m 479 815 b 646 678 590 815 646 769 b 471 514 646 600 592 535 l 471 815 z m 400 411 l 400 94 l 250 94 l 250 417 z m 664 239 b 475 94 664 153 604 94 l 471 94 l 471 406 b 664 239 604 388 664 322 z "},"₩":{"ha":853,"x_min":0,"x_max":0,"o":"m 418 597 l 433 597 l 539 0 l 682 0 l 715 428 l 833 428 l 833 510 l 721 510 l 751 910 l 676 910 l 647 503 l 518 503 l 485 690 l 368 690 l 335 503 l 207 503 l 178 910 l 101 910 l 132 510 l 19 510 l 19 428 l 138 428 l 169 0 l 314 0 z m 618 96 l 590 96 l 529 438 l 643 438 z m 235 96 l 211 438 l 324 438 l 263 96 z "},"¢":{"ha":853,"x_min":0,"x_max":0,"o":"m 418 -197 l 511 -197 l 511 6 b 756 101 582 15 656 43 l 704 183 b 501 104 617 135 554 113 l 501 578 b 699 490 550 571 607 549 l 753 579 b 511 678 643 647 575 671 l 511 878 l 418 878 l 418 679 b 97 346 233 663 97 525 b 418 0 97 136 232 8 z m 219 344 b 429 579 219 474 304 568 l 429 100 b 219 344 308 107 219 204 z "},"₫":{"ha":853,"x_min":0,"x_max":0,"o":"m 363 -12 b 601 106 450 -12 519 19 l 613 0 l 714 0 l 714 701 l 831 701 l 831 781 l 714 781 l 714 910 l 596 910 l 596 781 l 349 781 l 349 701 l 596 701 l 596 511 b 400 586 524 569 463 586 b 82 283 218 586 82 458 b 363 -12 82 103 208 -12 z m 204 288 b 414 494 204 403 282 494 b 596 411 460 494 519 479 l 596 199 b 393 86 510 110 453 86 b 204 288 292 86 204 164 z m 118 -211 l 703 -211 l 703 -128 l 118 -128 z "},"½":{"ha":853,"x_min":0,"x_max":0,"o":"m 21 382 l 392 382 l 392 457 l 254 457 l 254 910 l 224 910 l 19 813 l 19 722 l 165 793 l 165 457 l 21 457 z m 440 281 l 853 593 l 783 676 l 415 311 l 0 -1 l 69 -85 z m 397 -319 l 801 -319 l 801 -244 l 517 -244 l 517 -242 l 647 -131 b 788 79 768 -25 788 18 b 618 225 788 169 715 225 b 388 117 540 225 479 200 l 432 54 b 611 147 518 131 560 147 b 697 72 668 147 697 118 b 578 -93 697 32 685 3 l 397 -256 z "},"⅓":{"ha":853,"x_min":0,"x_max":0,"o":"m 21 382 l 392 382 l 392 457 l 254 457 l 254 910 l 224 910 l 19 813 l 19 722 l 165 793 l 165 457 l 21 457 z m 440 281 l 853 593 l 783 676 l 415 311 l 0 -1 l 69 -85 z m 439 135 l 699 135 l 699 132 l 526 -36 l 542 -79 b 619 -71 572 -74 594 -71 b 756 -147 725 -71 756 -103 b 549 -246 756 -201 703 -235 l 447 -254 l 456 -332 l 556 -325 b 844 -147 764 -311 844 -246 b 651 -4 844 -72 803 -4 l 651 -3 l 817 151 l 817 208 l 439 208 z "},"⅔":{"ha":853,"x_min":0,"x_max":0,"o":"m 24 382 l 428 382 l 428 457 l 143 457 l 143 460 l 274 571 b 414 781 394 676 414 719 b 244 926 414 871 342 926 b 14 818 167 926 106 901 l 58 756 b 238 849 144 832 186 849 b 324 774 294 849 324 819 b 204 608 324 733 311 704 l 24 446 z m 440 281 l 853 593 l 783 676 l 415 311 l 0 -1 l 69 -85 z m 439 135 l 699 135 l 699 132 l 526 -36 l 542 -79 b 619 -71 572 -74 594 -71 b 756 -147 725 -71 756 -103 b 549 -246 756 -201 703 -235 l 447 -254 l 456 -332 l 556 -325 b 844 -147 764 -311 844 -246 b 651 -4 844 -72 803 -4 l 651 -3 l 817 151 l 817 208 l 439 208 z "},"¼":{"ha":853,"x_min":0,"x_max":0,"o":"m 21 382 l 392 382 l 392 457 l 254 457 l 254 910 l 224 910 l 19 813 l 19 722 l 165 793 l 165 457 l 21 457 z m 440 281 l 853 593 l 783 676 l 415 311 l 0 -1 l 69 -85 z m 338 -187 l 600 -187 l 600 -319 l 683 -319 l 683 -187 l 786 -187 l 786 -117 l 683 -117 l 683 208 l 578 208 l 338 -126 z m 607 150 l 607 -124 l 419 -124 l 419 -117 z "},"¾":{"ha":853,"x_min":0,"x_max":0,"o":"m 31 836 l 290 836 l 290 833 l 118 665 l 133 622 b 211 631 164 628 186 631 b 347 554 317 631 347 599 b 140 456 347 500 294 467 l 39 447 l 47 369 l 147 376 b 436 554 356 390 436 456 b 243 697 436 629 394 697 l 243 699 l 408 853 l 408 910 l 31 910 z m 440 281 l 853 593 l 783 676 l 415 311 l 0 -1 l 69 -85 z m 338 -187 l 600 -187 l 600 -319 l 683 -319 l 683 -187 l 786 -187 l 786 -117 l 683 -117 l 683 208 l 578 208 l 338 -126 z m 607 150 l 607 -124 l 419 -124 l 419 -117 z "},"⅕":{"ha":853,"x_min":0,"x_max":0,"o":"m 21 382 l 392 382 l 392 457 l 254 457 l 254 910 l 224 910 l 19 813 l 19 722 l 165 793 l 165 457 l 21 457 z m 440 281 l 853 593 l 783 676 l 415 311 l 0 -1 l 69 -85 z m 456 208 l 436 -76 l 439 -81 l 499 -90 b 633 -51 556 -58 600 -51 b 733 -137 701 -51 733 -83 b 522 -247 733 -196 682 -233 l 422 -257 l 431 -333 l 526 -325 b 819 -136 740 -307 819 -240 b 651 19 819 -36 751 19 b 517 -19 607 19 564 11 l 529 136 l 789 136 l 789 208 z "},"⅖":{"ha":853,"x_min":0,"x_max":0,"o":"m 24 382 l 428 382 l 428 457 l 143 457 l 143 460 l 274 571 b 414 781 394 676 414 719 b 244 926 414 871 342 926 b 14 818 167 926 106 901 l 58 756 b 238 849 144 832 186 849 b 324 774 294 849 324 819 b 204 608 324 733 311 704 l 24 446 z m 440 281 l 853 593 l 783 676 l 415 311 l 0 -1 l 69 -85 z m 456 208 l 436 -76 l 439 -81 l 499 -90 b 633 -51 556 -58 600 -51 b 733 -137 701 -51 733 -83 b 522 -247 733 -196 682 -233 l 422 -257 l 431 -333 l 526 -325 b 819 -136 740 -307 819 -240 b 651 19 819 -36 751 19 b 517 -19 607 19 564 11 l 529 136 l 789 136 l 789 208 z "},"⅗":{"ha":853,"x_min":0,"x_max":0,"o":"m 31 836 l 290 836 l 290 833 l 118 665 l 133 622 b 211 631 164 628 186 631 b 347 554 317 631 347 599 b 140 456 347 500 294 467 l 39 447 l 47 369 l 147 376 b 436 554 356 390 436 456 b 243 697 436 629 394 697 l 243 699 l 408 853 l 408 910 l 31 910 z m 440 281 l 853 593 l 783 676 l 415 311 l 0 -1 l 69 -85 z m 456 208 l 436 -76 l 439 -81 l 499 -90 b 633 -51 556 -58 600 -51 b 733 -137 701 -51 733 -83 b 522 -247 733 -196 682 -233 l 422 -257 l 431 -333 l 526 -325 b 819 -136 740 -307 819 -240 b 651 19 819 -36 751 19 b 517 -19 607 19 564 11 l 529 136 l 789 136 l 789 208 z "},"⅘":{"ha":853,"x_min":0,"x_max":0,"o":"m 11 514 l 274 514 l 274 382 l 357 382 l 357 514 l 460 514 l 460 585 l 357 585 l 357 910 l 251 910 l 11 575 z m 281 851 l 281 578 l 93 578 l 93 585 z m 440 281 l 853 593 l 783 676 l 415 311 l 0 -1 l 69 -85 z m 456 208 l 436 -76 l 439 -81 l 499 -90 b 633 -51 556 -58 600 -51 b 733 -137 701 -51 733 -83 b 522 -247 733 -196 682 -233 l 422 -257 l 431 -333 l 526 -325 b 819 -136 740 -307 819 -240 b 651 19 819 -36 751 19 b 517 -19 607 19 564 11 l 529 136 l 789 136 l 789 208 z "},"⅙":{"ha":853,"x_min":0,"x_max":0,"o":"m 21 382 l 392 382 l 392 457 l 254 457 l 254 910 l 224 910 l 19 813 l 19 722 l 165 793 l 165 457 l 21 457 z m 440 281 l 853 593 l 783 676 l 415 311 l 0 -1 l 69 -85 z m 772 -153 b 585 21 772 -44 700 21 b 506 8 560 21 533 18 b 590 101 526 38 556 68 l 701 207 l 701 208 l 585 208 l 511 133 b 361 -144 408 29 361 -37 b 564 -340 361 -267 449 -340 b 772 -153 685 -340 772 -264 z m 450 -142 b 467 -58 450 -112 456 -86 b 563 -43 499 -47 531 -43 b 682 -151 639 -43 682 -85 b 565 -267 682 -219 638 -267 b 450 -142 499 -267 450 -219 z "},"⅚":{"ha":853,"x_min":0,"x_max":0,"o":"m 67 910 l 47 625 l 50 621 l 110 611 b 244 650 167 643 211 650 b 344 564 313 650 344 618 b 133 454 344 506 293 468 l 33 444 l 42 368 l 138 376 b 431 565 351 394 431 461 b 263 721 431 665 363 721 b 128 682 218 721 175 713 l 140 838 l 400 838 l 400 910 z m 440 281 l 853 593 l 783 676 l 415 311 l 0 -1 l 69 -85 z m 772 -153 b 585 21 772 -44 700 21 b 506 8 560 21 533 18 b 590 101 526 38 556 68 l 701 207 l 701 208 l 585 208 l 511 133 b 361 -144 408 29 361 -37 b 564 -340 361 -267 449 -340 b 772 -153 685 -340 772 -264 z m 450 -142 b 467 -58 450 -112 456 -86 b 563 -43 499 -47 531 -43 b 682 -151 639 -43 682 -85 b 565 -267 682 -219 638 -267 b 450 -142 499 -267 450 -219 z "},"⅛":{"ha":853,"x_min":0,"x_max":0,"o":"m 21 382 l 392 382 l 392 457 l 254 457 l 254 910 l 224 910 l 19 813 l 19 722 l 165 793 l 165 457 l 21 457 z m 440 281 l 853 593 l 783 676 l 415 311 l 0 -1 l 69 -85 z m 603 -339 b 810 -183 722 -339 810 -279 b 685 -47 810 -118 760 -67 l 685 -44 b 794 81 751 -24 794 22 b 606 229 794 172 715 229 b 414 79 496 229 414 171 b 524 -44 414 21 458 -25 l 524 -47 b 399 -185 449 -68 399 -121 b 603 -339 399 -281 486 -339 z m 606 -17 b 500 72 549 -17 500 19 b 604 161 500 128 544 161 b 708 75 665 161 708 128 b 606 -17 708 21 661 -17 z m 606 -271 b 485 -176 535 -271 485 -235 b 604 -79 485 -118 536 -79 b 724 -175 672 -79 724 -117 b 606 -271 724 -233 674 -271 z "},"⅜":{"ha":853,"x_min":0,"x_max":0,"o":"m 31 836 l 290 836 l 290 833 l 118 665 l 133 622 b 211 631 164 628 186 631 b 347 554 317 631 347 599 b 140 456 347 500 294 467 l 39 447 l 47 369 l 147 376 b 436 554 356 390 436 456 b 243 697 436 629 394 697 l 243 699 l 408 853 l 408 910 l 31 910 z m 440 281 l 853 593 l 783 676 l 415 311 l 0 -1 l 69 -85 z m 603 -339 b 810 -183 722 -339 810 -279 b 685 -47 810 -118 760 -67 l 685 -44 b 794 81 751 -24 794 22 b 606 229 794 172 715 229 b 414 79 496 229 414 171 b 524 -44 414 21 458 -25 l 524 -47 b 399 -185 449 -68 399 -121 b 603 -339 399 -281 486 -339 z m 606 -17 b 500 72 549 -17 500 19 b 604 161 500 128 544 161 b 708 75 665 161 708 128 b 606 -17 708 21 661 -17 z m 606 -271 b 485 -176 535 -271 485 -235 b 604 -79 485 -118 536 -79 b 724 -175 672 -79 724 -117 b 606 -271 724 -233 674 -271 z "},"⅝":{"ha":853,"x_min":0,"x_max":0,"o":"m 67 910 l 47 625 l 50 621 l 110 611 b 244 650 167 643 211 650 b 344 564 313 650 344 618 b 133 454 344 506 293 468 l 33 444 l 42 368 l 138 376 b 431 565 351 394 431 461 b 263 721 431 665 363 721 b 128 682 218 721 175 713 l 140 838 l 400 838 l 400 910 z m 440 281 l 853 593 l 783 676 l 415 311 l 0 -1 l 69 -85 z m 603 -339 b 810 -183 722 -339 810 -279 b 685 -47 810 -118 760 -67 l 685 -44 b 794 81 751 -24 794 22 b 606 229 794 172 715 229 b 414 79 496 229 414 171 b 524 -44 414 21 458 -25 l 524 -47 b 399 -185 449 -68 399 -121 b 603 -339 399 -281 486 -339 z m 606 -17 b 500 72 549 -17 500 19 b 604 161 500 128 544 161 b 708 75 665 161 708 128 b 606 -17 708 21 661 -17 z m 606 -271 b 485 -176 535 -271 485 -235 b 604 -79 485 -118 536 -79 b 724 -175 672 -79 724 -117 b 606 -271 724 -233 674 -271 z "},"⅞":{"ha":853,"x_min":0,"x_max":0,"o":"m 235 382 l 465 833 l 465 910 l 57 910 l 57 833 l 376 833 l 376 829 l 132 385 l 132 382 z m 440 281 l 853 593 l 783 676 l 415 311 l 0 -1 l 69 -85 z m 603 -339 b 810 -183 722 -339 810 -279 b 685 -47 810 -118 760 -67 l 685 -44 b 794 81 751 -24 794 22 b 606 229 794 172 715 229 b 414 79 496 229 414 171 b 524 -44 414 21 458 -25 l 524 -47 b 399 -185 449 -68 399 -121 b 603 -339 399 -281 486 -339 z m 606 -17 b 500 72 549 -17 500 19 b 604 161 500 128 544 161 b 708 75 665 161 708 128 b 606 -17 708 21 661 -17 z m 606 -271 b 485 -176 535 -271 485 -235 b 604 -79 485 -118 536 -79 b 724 -175 672 -79 724 -117 b 606 -271 724 -233 674 -271 z "},"⁰":{"ha":853,"x_min":0,"x_max":0,"o":"m 639 722 b 428 1006 639 911 560 1006 b 214 721 294 1006 214 910 b 425 438 214 531 293 438 b 639 722 558 438 639 533 z m 300 722 b 426 928 300 868 343 928 b 538 842 481 928 518 903 l 303 660 b 300 722 301 679 300 700 z m 553 721 b 426 515 553 576 508 515 b 315 601 372 515 335 542 l 550 782 b 553 721 551 764 553 743 z "},"¹":{"ha":853,"x_min":0,"x_max":0,"o":"m 257 458 l 628 458 l 628 533 l 490 533 l 490 986 l 460 986 l 256 889 l 256 799 l 401 869 l 401 533 l 257 533 z "},"²":{"ha":853,"x_min":0,"x_max":0,"o":"m 231 458 l 635 458 l 635 533 l 350 533 l 350 536 l 481 647 b 621 857 601 753 621 796 b 451 1003 621 947 549 1003 b 221 894 374 1003 313 978 l 265 832 b 444 925 351 908 393 925 b 531 850 501 925 531 896 b 411 685 531 810 518 781 l 231 522 z "},"³":{"ha":853,"x_min":0,"x_max":0,"o":"m 228 913 l 488 913 l 488 910 l 315 742 l 331 699 b 408 707 361 704 383 707 b 544 631 514 707 544 675 b 338 532 544 576 492 543 l 236 524 l 244 446 l 344 453 b 633 631 553 467 633 532 b 440 774 633 706 592 774 l 440 775 l 606 929 l 606 986 l 228 986 z "},"⁴":{"ha":853,"x_min":0,"x_max":0,"o":"m 213 590 l 475 590 l 475 458 l 558 458 l 558 590 l 661 590 l 661 661 l 558 661 l 558 986 l 453 986 l 213 651 z m 482 928 l 482 654 l 294 654 l 294 661 z "},"⁵":{"ha":853,"x_min":0,"x_max":0,"o":"m 264 986 l 244 701 l 247 697 l 307 688 b 442 726 364 719 408 726 b 542 640 510 726 542 694 b 331 531 542 582 490 544 l 231 521 l 239 444 l 335 453 b 628 642 549 471 628 538 b 460 797 628 742 560 797 b 325 758 415 797 372 789 l 338 914 l 597 914 l 597 986 z "},"⁶":{"ha":853,"x_min":0,"x_max":0,"o":"m 633 625 b 446 799 633 733 561 799 b 367 786 421 799 394 796 b 451 879 388 815 417 846 l 563 985 l 563 986 l 446 986 l 372 911 b 222 633 269 807 222 740 b 425 438 222 511 310 438 b 633 625 546 438 633 514 z m 311 636 b 328 719 311 665 317 692 b 424 735 360 731 392 735 b 543 626 500 735 543 693 b 426 511 543 558 499 511 b 311 636 360 511 311 558 z "},"⁷":{"ha":853,"x_min":0,"x_max":0,"o":"m 386 458 l 617 910 l 617 986 l 208 986 l 208 910 l 528 910 l 528 906 l 283 461 l 283 458 z "},"⁸":{"ha":853,"x_min":0,"x_max":0,"o":"m 425 439 b 632 594 544 439 632 499 b 507 731 632 660 582 711 l 507 733 b 617 858 574 754 617 800 b 428 1007 617 950 538 1007 b 236 857 318 1007 236 949 b 346 733 236 799 281 753 l 346 731 b 221 593 271 710 221 657 b 425 439 221 497 308 439 z m 428 761 b 322 850 371 761 322 797 b 426 939 322 906 367 939 b 531 853 488 939 531 906 b 428 761 531 799 483 761 z m 428 507 b 307 601 357 507 307 543 b 426 699 307 660 358 699 b 546 603 494 699 546 661 b 428 507 546 544 496 507 z "},"⁹":{"ha":853,"x_min":0,"x_max":0,"o":"m 481 531 b 632 810 583 631 632 706 b 432 1007 632 933 546 1007 b 219 818 307 1007 219 929 b 408 642 219 708 293 642 b 488 654 433 642 460 644 b 403 563 465 625 438 594 l 290 460 l 292 458 l 408 458 z m 543 806 b 526 722 543 776 538 750 b 431 707 493 711 463 707 b 311 817 354 707 311 749 b 428 933 311 886 356 933 b 543 806 494 933 543 886 z "},"₀":{"ha":853,"x_min":0,"x_max":0,"o":"m 639 -56 b 428 228 639 133 560 228 b 214 -57 294 228 214 132 b 425 -340 214 -247 293 -340 b 639 -56 558 -340 639 -244 z m 300 -56 b 426 150 300 90 343 150 b 538 64 481 150 518 125 l 303 -118 b 300 -56 301 -99 300 -78 z m 553 -57 b 426 -262 553 -201 508 -262 b 315 -176 372 -262 335 -236 l 550 4 b 553 -57 551 -14 553 -35 z "},"₁":{"ha":853,"x_min":0,"x_max":0,"o":"m 257 -319 l 628 -319 l 628 -244 l 490 -244 l 490 208 l 460 208 l 256 111 l 256 21 l 401 92 l 401 -244 l 257 -244 z "},"₂":{"ha":853,"x_min":0,"x_max":0,"o":"m 231 -319 l 635 -319 l 635 -244 l 350 -244 l 350 -242 l 481 -131 b 621 79 601 -25 621 18 b 451 225 621 169 549 225 b 221 117 374 225 313 200 l 265 54 b 444 147 351 131 393 147 b 531 72 501 147 531 118 b 411 -93 531 32 518 3 l 231 -256 z "},"₃":{"ha":853,"x_min":0,"x_max":0,"o":"m 228 135 l 488 135 l 488 132 l 315 -36 l 331 -79 b 408 -71 361 -74 383 -71 b 544 -147 514 -71 544 -103 b 338 -246 544 -201 492 -235 l 236 -254 l 244 -332 l 344 -325 b 633 -147 553 -311 633 -246 b 440 -4 633 -72 592 -4 l 440 -3 l 606 151 l 606 208 l 228 208 z "},"₄":{"ha":853,"x_min":0,"x_max":0,"o":"m 213 -187 l 475 -187 l 475 -319 l 558 -319 l 558 -187 l 661 -187 l 661 -117 l 558 -117 l 558 208 l 453 208 l 213 -126 z m 482 150 l 482 -124 l 294 -124 l 294 -117 z "},"₅":{"ha":853,"x_min":0,"x_max":0,"o":"m 264 208 l 244 -76 l 247 -81 l 307 -90 b 442 -51 364 -58 408 -51 b 542 -137 510 -51 542 -83 b 331 -247 542 -196 490 -233 l 231 -257 l 239 -333 l 335 -325 b 628 -136 549 -307 628 -240 b 460 19 628 -36 560 19 b 325 -19 415 19 372 11 l 338 136 l 597 136 l 597 208 z "},"₆":{"ha":853,"x_min":0,"x_max":0,"o":"m 633 -153 b 446 21 633 -44 561 21 b 367 8 421 21 394 18 b 451 101 388 38 417 68 l 563 207 l 563 208 l 446 208 l 372 133 b 222 -144 269 29 222 -37 b 425 -340 222 -267 310 -340 b 633 -153 546 -340 633 -264 z m 311 -142 b 328 -58 311 -112 317 -86 b 424 -43 360 -47 392 -43 b 543 -151 500 -43 543 -85 b 426 -267 543 -219 499 -267 b 311 -142 360 -267 311 -219 z "},"₇":{"ha":853,"x_min":0,"x_max":0,"o":"m 386 -319 l 617 132 l 617 208 l 208 208 l 208 132 l 528 132 l 528 128 l 283 -317 l 283 -319 z "},"₈":{"ha":853,"x_min":0,"x_max":0,"o":"m 425 -339 b 632 -183 544 -339 632 -279 b 507 -47 632 -118 582 -67 l 507 -44 b 617 81 574 -24 617 22 b 428 229 617 172 538 229 b 236 79 318 229 236 171 b 346 -44 236 21 281 -25 l 346 -47 b 221 -185 271 -68 221 -121 b 425 -339 221 -281 308 -339 z m 428 -17 b 322 72 371 -17 322 19 b 426 161 322 128 367 161 b 531 75 488 161 531 128 b 428 -17 531 21 483 -17 z m 428 -271 b 307 -176 357 -271 307 -235 b 426 -79 307 -118 358 -79 b 546 -175 494 -79 546 -117 b 428 -271 546 -233 496 -271 z "},"₉":{"ha":853,"x_min":0,"x_max":0,"o":"m 481 -247 b 632 32 583 -147 632 -72 b 432 229 632 156 546 229 b 219 40 307 229 219 151 b 408 -136 219 -69 293 -136 b 488 -124 433 -136 460 -133 b 403 -215 465 -153 438 -183 l 290 -318 l 292 -319 l 408 -319 z m 543 28 b 526 -56 543 -1 538 -28 b 431 -71 493 -67 463 -71 b 311 39 354 -71 311 -29 b 428 156 311 108 356 156 b 543 28 494 156 543 108 z "},"ʹ":{"ha":853,"x_min":0,"x_max":0,"o":"m 367 563 l 486 563 l 514 986 l 339 986 z "},"ʺ":{"ha":853,"x_min":0,"x_max":0,"o":"m 554 563 l 664 563 l 692 986 l 526 986 z m 199 563 l 310 563 l 336 986 l 171 986 z "},"ʻ":{"ha":853,"x_min":0,"x_max":0,"o":"m 619 986 l 503 986 b 276 601 351 867 289 775 l 460 601 b 619 983 467 744 504 833 z "},"ʼ":{"ha":853,"x_min":0,"x_max":0,"o":"m 233 601 l 350 601 b 576 986 501 721 564 813 l 393 986 b 233 604 386 843 349 754 z "},"ʿ":{"ha":853,"x_min":0,"x_max":0,"o":"m 581 1007 b 214 724 319 1007 214 883 b 581 438 214 561 319 438 l 581 540 b 336 724 392 540 336 613 b 581 904 336 832 393 904 z "},"ʾ":{"ha":853,"x_min":0,"x_max":0,"o":"m 232 438 b 599 725 493 438 599 563 b 232 1007 599 885 493 1007 l 232 904 b 476 725 421 904 476 833 b 232 540 476 614 421 540 z "},"ˈ":{"ha":853,"x_min":0,"x_max":0,"o":"m 489 449 l 489 993 l 364 993 l 364 449 z "},"ˌ":{"ha":853,"x_min":0,"x_max":0,"o":"m 489 -319 l 489 225 l 364 225 l 364 -319 z "},"´":{"ha":853,"x_min":0,"x_max":0,"o":"m 304 815 l 349 751 l 654 954 l 596 1035 z "},"˝":{"ha":853,"x_min":0,"x_max":0,"o":"m 189 797 l 247 751 l 419 969 l 329 1026 z m 506 797 l 564 751 l 736 969 l 646 1026 z "},"`":{"ha":853,"x_min":0,"x_max":0,"o":"m 550 814 l 257 1033 l 199 953 l 504 751 z "},"ˆ":{"ha":853,"x_min":0,"x_max":0,"o":"m 169 804 l 219 751 l 426 935 l 633 751 l 683 804 l 457 1036 l 396 1036 z "},"ˇ":{"ha":853,"x_min":0,"x_max":0,"o":"m 683 983 l 633 1036 l 426 853 l 219 1036 l 169 983 l 396 751 l 457 751 z "},"˘":{"ha":853,"x_min":0,"x_max":0,"o":"m 426 840 b 246 1025 344 840 292 893 l 169 1000 b 426 751 217 824 299 751 b 683 1000 554 751 636 824 l 607 1025 b 426 840 563 894 508 840 z "},"˜":{"ha":853,"x_min":0,"x_max":0,"o":"m 399 849 b 540 751 476 767 508 751 b 704 994 593 751 632 782 l 628 1022 b 538 850 574 868 558 850 b 450 922 522 850 510 860 b 308 1019 372 1004 340 1019 b 144 776 256 1019 217 990 l 221 749 b 311 922 276 904 290 922 b 399 849 326 922 339 913 z "},"¯":{"ha":853,"x_min":0,"x_max":0,"o":"m 196 807 l 657 807 l 657 897 l 196 897 z "},"¨":{"ha":853,"x_min":0,"x_max":0,"o":"m 263 779 b 346 857 314 779 346 807 b 264 936 346 908 317 936 b 182 857 214 936 182 904 b 263 779 182 807 213 779 z m 588 779 b 671 857 639 779 671 807 b 589 936 671 908 642 936 b 508 857 539 936 508 904 b 588 779 508 807 538 779 z "},"˙":{"ha":853,"x_min":0,"x_max":0,"o":"m 425 779 b 513 861 479 779 513 807 b 426 944 513 914 483 944 b 342 861 374 944 342 910 b 425 779 342 807 372 779 z "},"˚":{"ha":853,"x_min":0,"x_max":0,"o":"m 425 751 b 625 925 544 751 625 818 b 428 1097 625 1032 546 1097 b 228 924 308 1097 228 1029 b 425 751 228 815 307 751 z m 426 828 b 310 922 349 828 310 860 b 426 1021 310 990 350 1021 b 542 926 503 1021 542 989 b 426 828 542 860 501 828 z "},"ꞈ":{"ha":853,"x_min":0,"x_max":0,"o":"m 169 -337 l 219 -390 l 426 -207 l 633 -390 l 683 -337 l 457 -106 l 396 -106 z "},"ˍ":{"ha":853,"x_min":0,"x_max":0,"o":"m 196 -251 l 657 -251 l 657 -161 l 196 -161 z "},"¸":{"ha":853,"x_min":0,"x_max":0,"o":"m 401 29 l 344 -133 l 353 -147 b 547 -208 524 -153 547 -175 b 269 -292 547 -244 518 -271 l 292 -368 b 643 -206 614 -340 643 -281 b 433 -82 643 -142 608 -100 l 469 29 z "},"˛":{"ha":853,"x_min":0,"x_max":0,"o":"m 278 -215 b 404 -319 278 -281 313 -314 l 536 -326 l 544 -244 l 439 -239 b 375 -179 389 -236 375 -215 b 472 14 375 -150 383 -107 l 410 17 b 278 -215 296 -122 278 -175 z "},"Á":{"ha":853,"x_min":0,"x_max":0,"o":"m 304 1081 l 344 1015 l 667 1193 l 614 1278 z m 178 0 l 256 247 l 590 247 l 671 0 l 797 0 l 501 910 l 353 910 l 56 0 z m 286 344 l 422 786 l 561 344 z "},"À":{"ha":853,"x_min":0,"x_max":0,"o":"m 540 1081 l 231 1278 l 178 1193 l 500 1015 z m 178 0 l 256 247 l 590 247 l 671 0 l 797 0 l 501 910 l 353 910 l 56 0 z m 286 344 l 422 786 l 561 344 z "},"Â":{"ha":853,"x_min":0,"x_max":0,"o":"m 161 1061 l 207 1003 l 422 1164 l 638 1003 l 683 1061 l 449 1265 l 396 1265 z m 178 0 l 256 247 l 590 247 l 671 0 l 797 0 l 501 910 l 353 910 l 56 0 z m 286 344 l 422 786 l 561 344 z "},"Ậ":{"ha":853,"x_min":0,"x_max":0,"o":"m 161 1061 l 207 1003 l 422 1164 l 638 1003 l 683 1061 l 449 1265 l 396 1265 z m 178 0 l 256 247 l 590 247 l 671 0 l 797 0 l 501 910 l 353 910 l 56 0 z m 286 344 l 422 786 l 561 344 z m 421 -290 b 508 -210 475 -290 508 -262 b 422 -126 508 -156 479 -126 b 338 -210 369 -126 338 -160 b 421 -290 338 -262 368 -290 z "},"Ấ":{"ha":853,"x_min":0,"x_max":0,"o":"m 556 1293 l 594 1226 l 811 1343 l 760 1429 z m 161 1061 l 207 1003 l 422 1142 l 638 1003 l 683 1061 l 449 1242 l 396 1242 z m 178 0 l 256 247 l 590 247 l 671 0 l 797 0 l 501 910 l 353 910 l 56 0 z m 286 344 l 422 786 l 561 344 z "},"Ầ":{"ha":853,"x_min":0,"x_max":0,"o":"m 746 1296 l 526 1439 l 475 1353 l 708 1228 z m 161 1061 l 207 1003 l 422 1142 l 638 1003 l 683 1061 l 449 1242 l 396 1242 z m 178 0 l 256 247 l 590 247 l 671 0 l 797 0 l 501 910 l 353 910 l 56 0 z m 286 344 l 422 786 l 561 344 z "},"Ẩ":{"ha":853,"x_min":0,"x_max":0,"o":"m 572 1236 b 817 1363 768 1260 817 1317 b 539 1490 817 1422 768 1457 l 486 1426 l 486 1422 b 708 1353 681 1392 708 1378 b 547 1293 708 1331 681 1317 l 547 1290 z m 161 1061 l 207 1003 l 422 1142 l 638 1003 l 683 1061 l 449 1242 l 396 1242 z m 178 0 l 256 247 l 590 247 l 671 0 l 797 0 l 501 910 l 353 910 l 56 0 z m 286 344 l 422 786 l 561 344 z "},"Ẫ":{"ha":853,"x_min":0,"x_max":0,"o":"m 460 1431 b 340 1497 389 1488 369 1497 b 192 1313 292 1497 251 1478 l 267 1285 b 346 1406 310 1393 325 1406 b 431 1353 363 1406 376 1397 b 551 1286 501 1296 522 1286 b 706 1483 601 1286 643 1307 l 631 1511 b 546 1378 582 1390 567 1378 b 460 1431 529 1378 515 1386 z m 161 1061 l 207 1003 l 422 1142 l 638 1003 l 683 1061 l 449 1242 l 396 1242 z m 178 0 l 256 247 l 590 247 l 671 0 l 797 0 l 501 910 l 353 910 l 56 0 z m 286 344 l 422 786 l 561 344 z "},"Ǎ":{"ha":853,"x_min":0,"x_max":0,"o":"m 683 1219 l 638 1278 l 422 1115 l 207 1278 l 161 1219 l 396 1015 l 449 1015 z m 178 0 l 256 247 l 590 247 l 671 0 l 797 0 l 501 910 l 353 910 l 56 0 z m 286 344 l 422 786 l 561 344 z "},"Ă":{"ha":853,"x_min":0,"x_max":0,"o":"m 422 1104 b 242 1268 340 1104 283 1149 l 165 1244 b 422 1015 210 1081 294 1015 b 679 1244 550 1015 635 1081 l 603 1268 b 422 1104 561 1150 504 1104 z m 178 0 l 256 247 l 590 247 l 671 0 l 797 0 l 501 910 l 353 910 l 56 0 z m 286 344 l 422 786 l 561 344 z "},"Ặ":{"ha":853,"x_min":0,"x_max":0,"o":"m 422 1104 b 242 1268 340 1104 283 1149 l 165 1244 b 422 1015 210 1081 294 1015 b 679 1244 550 1015 635 1081 l 603 1268 b 422 1104 561 1150 504 1104 z m 178 0 l 256 247 l 590 247 l 671 0 l 797 0 l 501 910 l 353 910 l 56 0 z m 286 344 l 422 786 l 561 344 z m 421 -290 b 508 -210 475 -290 508 -262 b 422 -126 508 -156 479 -126 b 338 -210 369 -126 338 -160 b 421 -290 338 -262 368 -290 z "},"Ắ":{"ha":853,"x_min":0,"x_max":0,"o":"m 326 1304 l 360 1236 l 692 1393 l 646 1481 z m 422 1104 b 242 1250 340 1104 279 1142 l 165 1225 b 422 1015 206 1074 294 1015 b 679 1221 550 1015 639 1074 l 603 1246 b 422 1104 567 1142 504 1104 z m 178 0 l 256 247 l 590 247 l 671 0 l 797 0 l 501 910 l 353 910 l 56 0 z m 286 344 l 422 786 l 561 344 z "},"Ằ":{"ha":853,"x_min":0,"x_max":0,"o":"m 519 1304 l 199 1481 l 154 1393 l 486 1236 z m 422 1104 b 242 1246 340 1104 278 1140 l 165 1221 b 422 1015 206 1074 294 1015 b 679 1225 550 1015 639 1074 l 603 1250 b 422 1104 565 1143 504 1104 z m 178 0 l 256 247 l 590 247 l 671 0 l 797 0 l 501 910 l 353 910 l 56 0 z m 286 344 l 422 786 l 561 344 z "},"Ẳ":{"ha":853,"x_min":0,"x_max":0,"o":"m 356 1243 b 600 1371 551 1268 600 1324 b 322 1499 600 1431 551 1465 l 268 1433 l 268 1431 b 492 1361 464 1400 492 1386 b 329 1301 492 1339 464 1325 l 329 1299 z m 422 1104 b 242 1250 340 1104 279 1142 l 165 1225 b 422 1015 206 1074 294 1015 b 679 1221 550 1015 639 1074 l 603 1246 b 422 1104 567 1142 504 1104 z m 178 0 l 256 247 l 590 247 l 671 0 l 797 0 l 501 910 l 353 910 l 56 0 z m 286 344 l 422 786 l 561 344 z "},"Ẵ":{"ha":853,"x_min":0,"x_max":0,"o":"m 438 1439 b 318 1507 367 1496 347 1507 b 169 1322 269 1507 229 1486 l 244 1294 b 324 1414 288 1403 303 1414 b 408 1363 340 1414 354 1406 b 529 1294 479 1306 500 1294 b 683 1492 579 1294 621 1317 l 608 1519 b 524 1388 560 1400 544 1388 b 438 1439 507 1388 493 1396 z m 422 1104 b 244 1239 342 1104 278 1139 l 168 1214 b 422 1015 207 1071 296 1015 b 679 1225 550 1015 639 1074 l 603 1250 b 422 1104 565 1143 504 1104 z m 178 0 l 256 247 l 590 247 l 671 0 l 797 0 l 501 910 l 353 910 l 56 0 z m 286 344 l 422 786 l 561 344 z "},"Ã":{"ha":853,"x_min":0,"x_max":0,"o":"m 700 1232 l 624 1257 b 533 1106 568 1121 554 1106 b 440 1169 517 1106 503 1113 b 304 1256 367 1238 338 1256 b 140 1039 251 1256 213 1229 l 217 1013 b 307 1164 271 1149 286 1164 b 400 1100 324 1164 336 1157 b 536 1015 474 1032 503 1015 b 700 1232 589 1015 628 1042 z m 178 0 l 256 247 l 590 247 l 671 0 l 797 0 l 501 910 l 353 910 l 56 0 z m 286 344 l 422 786 l 561 344 z "},"Ā":{"ha":853,"x_min":0,"x_max":0,"o":"m 192 1071 l 653 1071 l 653 1163 l 192 1163 z m 178 0 l 256 247 l 590 247 l 671 0 l 797 0 l 501 910 l 353 910 l 56 0 z m 286 344 l 422 786 l 561 344 z "},"Ä":{"ha":853,"x_min":0,"x_max":0,"o":"m 239 1043 b 325 1124 292 1043 325 1071 b 240 1206 325 1176 296 1206 b 156 1124 188 1206 156 1172 b 239 1043 156 1071 186 1043 z m 603 1043 b 688 1124 656 1043 688 1071 b 604 1206 688 1176 658 1206 b 519 1124 551 1206 519 1172 b 603 1043 519 1071 550 1043 z m 178 0 l 256 247 l 590 247 l 671 0 l 797 0 l 501 910 l 353 910 l 56 0 z m 286 344 l 422 786 l 561 344 z "},"Ȧ":{"ha":853,"x_min":0,"x_max":0,"o":"m 421 1043 b 511 1128 476 1043 511 1072 b 422 1214 511 1182 481 1214 b 335 1128 368 1214 335 1179 b 421 1043 335 1072 367 1043 z m 178 0 l 256 247 l 590 247 l 671 0 l 797 0 l 501 910 l 353 910 l 56 0 z m 286 344 l 422 786 l 561 344 z "},"Å":{"ha":853,"x_min":0,"x_max":0,"o":"m 178 0 l 256 247 l 590 247 l 671 0 l 797 0 l 526 835 b 639 986 597 860 639 914 b 426 1151 639 1088 557 1151 b 211 983 294 1151 211 1085 b 328 832 211 910 254 856 l 56 0 z m 425 893 b 297 982 339 893 297 926 b 425 1076 297 1044 339 1076 b 551 988 511 1076 551 1043 b 425 893 551 924 511 893 z m 286 344 l 422 786 l 561 344 z "},"Ả":{"ha":853,"x_min":0,"x_max":0,"o":"m 319 1015 b 617 1163 558 1043 617 1108 b 339 1299 617 1226 568 1265 l 285 1235 l 285 1231 b 508 1153 481 1200 508 1181 b 293 1074 508 1122 471 1104 l 293 1071 z m 178 0 l 256 247 l 590 247 l 671 0 l 797 0 l 501 910 l 353 910 l 56 0 z m 286 344 l 422 786 l 561 344 z "},"Ạ":{"ha":853,"x_min":0,"x_max":0,"o":"m 178 0 l 256 247 l 590 247 l 671 0 l 797 0 l 501 910 l 353 910 l 56 0 z m 286 344 l 422 786 l 561 344 z m 421 -290 b 508 -210 475 -290 508 -262 b 422 -126 508 -156 479 -126 b 338 -210 369 -126 338 -160 b 421 -290 338 -262 368 -290 z "},"Ą":{"ha":853,"x_min":0,"x_max":0,"o":"m 178 0 l 256 247 l 590 247 l 671 0 l 690 0 b 572 -215 589 -126 572 -176 b 700 -319 572 -281 607 -314 l 831 -326 l 839 -244 l 733 -239 b 669 -179 685 -236 669 -215 b 758 0 669 -151 678 -110 l 797 0 l 501 910 l 353 910 l 56 0 z m 286 344 l 422 786 l 561 344 z "},"Æ":{"ha":853,"x_min":0,"x_max":0,"o":"m 108 0 l 190 253 l 414 253 l 414 0 l 814 0 l 814 97 l 531 97 l 531 413 l 781 413 l 781 507 l 531 507 l 531 813 l 814 813 l 814 910 l 301 910 l -10 0 z m 221 346 l 374 813 l 414 813 l 414 346 z "},"Ḇ":{"ha":853,"x_min":0,"x_max":0,"o":"m 132 910 l 132 0 l 476 0 b 783 226 707 0 783 101 b 525 464 783 356 694 442 l 525 469 b 739 697 682 508 739 592 b 463 910 739 826 656 910 z m 451 815 b 617 678 561 815 617 769 b 389 508 617 589 547 517 l 250 501 l 250 815 z m 418 410 b 664 239 589 403 664 332 b 475 94 664 153 604 94 l 250 94 l 250 417 z m 197 -251 l 658 -251 l 658 -161 l 197 -161 z "},"Ć":{"ha":853,"x_min":0,"x_max":0,"o":"m 356 1083 l 396 1018 l 718 1196 l 665 1281 z m 450 -21 b 783 114 553 -21 653 14 l 726 196 b 467 79 610 107 533 79 b 201 456 314 79 201 196 b 472 831 201 694 319 831 b 714 718 533 831 596 811 l 775 806 b 471 931 644 901 571 931 b 78 453 242 931 78 739 b 450 -21 78 154 213 -21 z "},"Ĉ":{"ha":853,"x_min":0,"x_max":0,"o":"m 213 1071 l 258 1013 l 474 1174 l 689 1013 l 735 1071 l 500 1275 l 447 1275 z m 450 -21 b 783 114 553 -21 653 14 l 726 196 b 467 79 610 107 533 79 b 201 456 314 79 201 196 b 472 831 201 694 319 831 b 714 718 533 831 596 811 l 775 806 b 471 931 644 901 571 931 b 78 453 242 931 78 739 b 450 -21 78 154 213 -21 z "},"Č":{"ha":853,"x_min":0,"x_max":0,"o":"m 735 1222 l 689 1281 l 474 1118 l 258 1281 l 213 1222 l 447 1018 l 500 1018 z m 450 -21 b 783 114 553 -21 653 14 l 726 196 b 467 79 610 107 533 79 b 201 456 314 79 201 196 b 472 831 201 694 319 831 b 714 718 533 831 596 811 l 775 806 b 471 931 644 901 571 931 b 78 453 242 931 78 739 b 450 -21 78 154 213 -21 z "},"Ċ":{"ha":853,"x_min":0,"x_max":0,"o":"m 472 1046 b 563 1131 528 1046 563 1075 b 474 1217 563 1185 532 1217 b 386 1131 419 1217 386 1182 b 472 1046 386 1075 418 1046 z m 450 -21 b 783 114 553 -21 653 14 l 726 196 b 467 79 610 107 533 79 b 201 456 314 79 201 196 b 472 831 201 694 319 831 b 714 718 533 831 596 811 l 775 806 b 471 931 644 901 571 931 b 78 453 242 931 78 739 b 450 -21 78 154 213 -21 z "},"Ç":{"ha":853,"x_min":0,"x_max":0,"o":"m 676 -212 b 467 -89 676 -149 642 -107 l 489 -19 b 783 114 579 -11 669 26 l 726 196 b 467 79 610 107 533 79 b 201 456 314 79 201 196 b 472 831 201 694 319 831 b 714 718 533 831 596 811 l 775 806 b 471 931 644 901 571 931 b 78 453 242 931 78 739 b 419 -19 78 167 201 -6 l 378 -140 l 386 -154 b 579 -215 556 -160 579 -182 b 301 -299 579 -251 551 -278 l 325 -375 b 676 -212 646 -347 676 -287 z "},"Ď":{"ha":853,"x_min":0,"x_max":0,"o":"m 644 1219 l 599 1278 l 383 1115 l 168 1278 l 122 1219 l 357 1015 l 410 1015 z m 128 910 l 128 0 l 231 0 b 781 467 590 0 781 175 b 278 910 781 749 594 910 z m 311 808 b 657 464 518 806 657 694 b 274 101 657 225 521 106 l 249 100 l 249 811 z "},"Ḓ":{"ha":853,"x_min":0,"x_max":0,"o":"m 128 910 l 128 0 l 231 0 b 781 467 590 0 781 175 b 278 910 781 749 594 910 z m 311 808 b 657 464 518 806 657 694 b 274 101 657 225 521 106 l 249 100 l 249 811 z m 128 -337 l 178 -390 l 385 -207 l 592 -390 l 642 -337 l 415 -106 l 354 -106 z "},"Ḏ":{"ha":853,"x_min":0,"x_max":0,"o":"m 128 910 l 128 0 l 231 0 b 781 467 590 0 781 175 b 278 910 781 749 594 910 z m 311 808 b 657 464 518 806 657 694 b 274 101 657 225 521 106 l 249 100 l 249 811 z m 154 -251 l 615 -251 l 615 -161 l 154 -161 z "},"Ḍ":{"ha":853,"x_min":0,"x_max":0,"o":"m 128 910 l 128 0 l 231 0 b 781 467 590 0 781 175 b 278 910 781 749 594 910 z m 311 808 b 657 464 518 806 657 694 b 274 101 657 225 521 106 l 249 100 l 249 811 z m 383 -297 b 471 -217 438 -297 471 -269 b 385 -133 471 -162 442 -133 b 300 -217 332 -133 300 -167 b 383 -297 300 -269 331 -297 z "},"Đ":{"ha":853,"x_min":0,"x_max":0,"o":"m 42 421 l 157 421 l 157 0 l 231 0 b 781 467 590 0 781 175 b 278 910 781 749 594 910 l 157 910 l 157 496 l 42 496 z m 447 421 l 447 496 l 275 496 l 275 813 b 658 464 517 813 658 701 b 275 99 658 225 521 104 l 275 421 z "},"É":{"ha":853,"x_min":0,"x_max":0,"o":"m 339 1081 l 379 1015 l 701 1193 l 649 1278 z m 136 910 l 136 0 l 753 0 l 753 100 l 257 100 l 257 410 l 668 410 l 668 510 l 257 510 l 257 810 l 743 810 l 743 910 z "},"È":{"ha":853,"x_min":0,"x_max":0,"o":"m 575 1081 l 265 1278 l 213 1193 l 535 1015 z m 136 910 l 136 0 l 753 0 l 753 100 l 257 100 l 257 410 l 668 410 l 668 510 l 257 510 l 257 810 l 743 810 l 743 910 z "},"Ê":{"ha":853,"x_min":0,"x_max":0,"o":"m 196 1075 l 242 1017 l 457 1178 l 672 1017 l 718 1075 l 483 1279 l 431 1279 z m 136 910 l 136 0 l 753 0 l 753 100 l 257 100 l 257 410 l 668 410 l 668 510 l 257 510 l 257 810 l 743 810 l 743 910 z "},"Ệ":{"ha":853,"x_min":0,"x_max":0,"o":"m 196 1075 l 242 1017 l 457 1178 l 672 1017 l 718 1075 l 483 1279 l 431 1279 z m 136 910 l 136 0 l 753 0 l 753 100 l 257 100 l 257 410 l 668 410 l 668 510 l 257 510 l 257 810 l 743 810 l 743 910 z m 456 -297 b 543 -217 510 -297 543 -269 b 457 -133 543 -162 514 -133 b 372 -217 404 -133 372 -167 b 456 -297 372 -269 403 -297 z "},"Ế":{"ha":853,"x_min":0,"x_max":0,"o":"m 590 1307 l 629 1240 l 846 1357 l 794 1443 z m 196 1075 l 242 1017 l 457 1156 l 672 1017 l 718 1075 l 483 1256 l 431 1256 z m 136 910 l 136 0 l 753 0 l 753 100 l 257 100 l 257 410 l 668 410 l 668 510 l 257 510 l 257 810 l 743 810 l 743 910 z "},"Ề":{"ha":853,"x_min":0,"x_max":0,"o":"m 781 1310 l 561 1453 l 510 1367 l 743 1242 z m 196 1075 l 242 1017 l 457 1156 l 672 1017 l 718 1075 l 483 1256 l 431 1256 z m 136 910 l 136 0 l 753 0 l 753 100 l 257 100 l 257 410 l 668 410 l 668 510 l 257 510 l 257 810 l 743 810 l 743 910 z "},"Ể":{"ha":853,"x_min":0,"x_max":0,"o":"m 607 1250 b 851 1376 803 1274 851 1331 b 574 1504 851 1436 803 1471 l 521 1440 l 521 1436 b 743 1367 715 1406 743 1392 b 582 1307 743 1344 715 1331 l 582 1304 z m 196 1075 l 242 1017 l 457 1156 l 672 1017 l 718 1075 l 483 1256 l 431 1256 z m 136 910 l 136 0 l 753 0 l 753 100 l 257 100 l 257 410 l 668 410 l 668 510 l 257 510 l 257 810 l 743 810 l 743 910 z "},"Ễ":{"ha":853,"x_min":0,"x_max":0,"o":"m 494 1444 b 375 1511 424 1501 404 1511 b 226 1326 326 1511 286 1492 l 301 1299 b 381 1419 344 1407 360 1419 b 465 1367 397 1419 411 1411 b 586 1300 536 1310 557 1300 b 740 1497 636 1300 678 1321 l 665 1525 b 581 1392 617 1404 601 1392 b 494 1444 564 1392 550 1400 z m 196 1075 l 242 1017 l 457 1156 l 672 1017 l 718 1075 l 483 1256 l 431 1256 z m 136 910 l 136 0 l 753 0 l 753 100 l 257 100 l 257 410 l 668 410 l 668 510 l 257 510 l 257 810 l 743 810 l 743 910 z "},"Ě":{"ha":853,"x_min":0,"x_max":0,"o":"m 718 1219 l 672 1278 l 457 1115 l 242 1278 l 196 1219 l 431 1015 l 483 1015 z m 136 910 l 136 0 l 753 0 l 753 100 l 257 100 l 257 410 l 668 410 l 668 510 l 257 510 l 257 810 l 743 810 l 743 910 z "},"Ĕ":{"ha":853,"x_min":0,"x_max":0,"o":"m 457 1104 b 276 1268 375 1104 318 1149 l 200 1244 b 457 1015 244 1081 329 1015 b 714 1244 585 1015 669 1081 l 638 1268 b 457 1104 596 1150 539 1104 z m 136 910 l 136 0 l 753 0 l 753 100 l 257 100 l 257 410 l 668 410 l 668 510 l 257 510 l 257 810 l 743 810 l 743 910 z "},"Ẽ":{"ha":853,"x_min":0,"x_max":0,"o":"m 735 1232 l 658 1257 b 568 1106 603 1121 589 1106 b 475 1169 551 1106 538 1113 b 339 1256 401 1238 372 1256 b 175 1039 286 1256 247 1229 l 251 1013 b 342 1164 306 1149 321 1164 b 435 1100 358 1164 371 1157 b 571 1015 508 1032 538 1015 b 735 1232 624 1015 663 1042 z m 136 910 l 136 0 l 753 0 l 753 100 l 257 100 l 257 410 l 668 410 l 668 510 l 257 510 l 257 810 l 743 810 l 743 910 z "},"Ē":{"ha":853,"x_min":0,"x_max":0,"o":"m 226 1071 l 688 1071 l 688 1163 l 226 1163 z m 136 910 l 136 0 l 753 0 l 753 100 l 257 100 l 257 410 l 668 410 l 668 510 l 257 510 l 257 810 l 743 810 l 743 910 z "},"Ë":{"ha":853,"x_min":0,"x_max":0,"o":"m 274 1043 b 360 1124 326 1043 360 1071 b 275 1206 360 1176 331 1206 b 190 1124 222 1206 190 1172 b 274 1043 190 1071 221 1043 z m 638 1043 b 722 1124 690 1043 722 1071 b 639 1206 722 1176 693 1206 b 554 1124 586 1206 554 1172 b 638 1043 554 1071 585 1043 z m 136 910 l 136 0 l 753 0 l 753 100 l 257 100 l 257 410 l 668 410 l 668 510 l 257 510 l 257 810 l 743 810 l 743 910 z "},"Ė":{"ha":853,"x_min":0,"x_max":0,"o":"m 456 1043 b 546 1128 511 1043 546 1072 b 457 1214 546 1182 515 1214 b 369 1128 403 1214 369 1179 b 456 1043 369 1072 401 1043 z m 136 910 l 136 0 l 753 0 l 753 100 l 257 100 l 257 410 l 668 410 l 668 510 l 257 510 l 257 810 l 743 810 l 743 910 z "},"Ẻ":{"ha":853,"x_min":0,"x_max":0,"o":"m 354 1015 b 651 1163 593 1043 651 1108 b 374 1299 651 1226 603 1265 l 319 1235 l 319 1231 b 543 1153 515 1200 543 1181 b 328 1074 543 1122 506 1104 l 328 1071 z m 136 910 l 136 0 l 753 0 l 753 100 l 257 100 l 257 410 l 668 410 l 668 510 l 257 510 l 257 810 l 743 810 l 743 910 z "},"Ẹ":{"ha":853,"x_min":0,"x_max":0,"o":"m 136 910 l 136 0 l 753 0 l 753 100 l 257 100 l 257 410 l 668 410 l 668 510 l 257 510 l 257 810 l 743 810 l 743 910 z m 456 -297 b 543 -217 510 -297 543 -269 b 457 -133 543 -162 514 -133 b 372 -217 404 -133 372 -167 b 456 -297 372 -269 403 -297 z "},"Ę":{"ha":853,"x_min":0,"x_max":0,"o":"m 490 -215 b 618 -319 490 -281 525 -314 l 749 -326 l 757 -244 l 651 -239 b 588 -179 601 -236 588 -215 b 675 0 588 -151 596 -110 l 753 0 l 753 100 l 257 100 l 257 410 l 668 410 l 668 510 l 257 510 l 257 810 l 743 810 l 743 910 l 136 910 l 136 0 l 608 0 b 490 -215 507 -126 490 -176 z "},"Ĝ":{"ha":853,"x_min":0,"x_max":0,"o":"m 219 1072 l 265 1014 l 481 1175 l 696 1014 l 742 1072 l 507 1276 l 454 1276 z m 693 808 l 703 910 b 551 922 636 919 599 922 b 76 451 265 922 76 750 b 511 -21 76 146 218 -21 b 765 15 594 -21 678 -8 l 765 490 l 432 490 l 432 393 l 650 393 l 650 94 b 521 79 607 85 561 79 b 201 456 307 79 201 207 b 554 821 201 700 344 821 b 693 808 601 821 633 818 z "},"Ǧ":{"ha":853,"x_min":0,"x_max":0,"o":"m 742 1224 l 696 1282 l 481 1119 l 265 1282 l 219 1224 l 454 1019 l 507 1019 z m 693 808 l 703 910 b 551 922 636 919 599 922 b 76 451 265 922 76 750 b 511 -21 76 146 218 -21 b 765 15 594 -21 678 -8 l 765 490 l 432 490 l 432 393 l 650 393 l 650 94 b 521 79 607 85 561 79 b 201 456 307 79 201 207 b 554 821 201 700 344 821 b 693 808 601 821 633 818 z "},"Ğ":{"ha":853,"x_min":0,"x_max":0,"o":"m 481 1108 b 300 1272 399 1108 342 1153 l 224 1249 b 481 1019 268 1085 353 1019 b 738 1249 608 1019 693 1085 l 661 1272 b 481 1108 619 1154 563 1108 z m 693 808 l 703 910 b 551 922 636 919 599 922 b 76 451 265 922 76 750 b 511 -21 76 146 218 -21 b 765 15 594 -21 678 -8 l 765 490 l 432 490 l 432 393 l 650 393 l 650 94 b 521 79 607 85 561 79 b 201 456 307 79 201 207 b 554 821 201 700 344 821 b 693 808 601 821 633 818 z "},"Ḡ":{"ha":853,"x_min":0,"x_max":0,"o":"m 250 1075 l 711 1075 l 711 1167 l 250 1167 z m 693 808 l 703 910 b 551 922 636 919 599 922 b 76 451 265 922 76 750 b 511 -21 76 146 218 -21 b 765 15 594 -21 678 -8 l 765 490 l 432 490 l 432 393 l 650 393 l 650 94 b 521 79 607 85 561 79 b 201 456 307 79 201 207 b 554 821 201 700 344 821 b 693 808 601 821 633 818 z "},"Ġ":{"ha":853,"x_min":0,"x_max":0,"o":"m 479 1047 b 569 1132 535 1047 569 1076 b 481 1218 569 1186 539 1218 b 393 1132 426 1218 393 1183 b 479 1047 393 1076 425 1047 z m 693 808 l 703 910 b 551 922 636 919 599 922 b 76 451 265 922 76 750 b 511 -21 76 146 218 -21 b 765 15 594 -21 678 -8 l 765 490 l 432 490 l 432 393 l 650 393 l 650 94 b 521 79 607 85 561 79 b 201 456 307 79 201 207 b 554 821 201 700 344 821 b 693 808 601 821 633 818 z "},"Ģ":{"ha":853,"x_min":0,"x_max":0,"o":"m 693 808 l 703 910 b 551 922 636 919 599 922 b 76 451 265 922 76 750 b 511 -21 76 146 218 -21 b 765 15 594 -21 678 -8 l 765 490 l 432 490 l 432 393 l 650 393 l 650 94 b 521 79 607 85 561 79 b 201 456 307 79 201 207 b 554 821 201 700 344 821 b 693 808 601 821 633 818 z m 368 -419 b 646 -260 589 -399 646 -319 b 388 -112 646 -192 601 -143 l 335 -176 l 335 -181 b 538 -269 514 -208 538 -237 b 342 -361 538 -304 501 -339 l 342 -364 z "},"Ĥ":{"ha":853,"x_min":0,"x_max":0,"o":"m 165 1075 l 211 1017 l 426 1178 l 642 1017 l 688 1075 l 453 1279 l 400 1279 z m 128 910 l 128 0 l 249 0 l 249 408 l 604 408 l 604 0 l 725 0 l 725 910 l 604 910 l 604 510 l 249 510 l 249 910 z "},"Ḫ":{"ha":853,"x_min":0,"x_max":0,"o":"m 128 910 l 128 0 l 249 0 l 249 408 l 604 408 l 604 0 l 725 0 l 725 910 l 604 910 l 604 510 l 249 510 l 249 910 z m 426 -290 b 246 -106 344 -290 292 -236 l 169 -131 b 426 -378 217 -307 299 -378 b 683 -131 554 -378 636 -307 l 607 -106 b 426 -290 563 -236 508 -290 z "},"Ḥ":{"ha":853,"x_min":0,"x_max":0,"o":"m 128 910 l 128 0 l 249 0 l 249 408 l 604 408 l 604 0 l 725 0 l 725 910 l 604 910 l 604 510 l 249 510 l 249 910 z m 425 -290 b 513 -210 479 -290 513 -262 b 426 -126 513 -156 483 -126 b 342 -210 374 -126 342 -160 b 425 -290 342 -262 372 -290 z "},"Ḩ":{"ha":853,"x_min":0,"x_max":0,"o":"m 128 910 l 128 0 l 154 0 l 107 -133 l 115 -147 b 310 -208 286 -153 310 -175 b 32 -292 310 -244 281 -271 l 54 -368 b 406 -206 376 -340 406 -281 b 196 -82 406 -142 371 -100 l 222 0 l 249 0 l 249 408 l 604 408 l 604 0 l 725 0 l 725 910 l 604 910 l 604 510 l 249 510 l 249 910 z "},"Ħ":{"ha":853,"x_min":0,"x_max":0,"o":"m 42 657 l 157 657 l 157 0 l 275 0 l 275 369 l 578 369 l 578 0 l 696 0 l 696 657 l 811 657 l 811 731 l 696 731 l 696 910 l 578 910 l 578 728 l 275 728 l 275 910 l 157 910 l 157 731 l 42 731 z m 275 467 l 275 658 l 578 658 l 578 467 z "},"Í":{"ha":853,"x_min":0,"x_max":0,"o":"m 308 1081 l 349 1015 l 671 1193 l 618 1278 z m 182 60 l 182 0 l 671 0 l 671 60 l 488 92 l 488 818 l 671 850 l 671 910 l 182 910 l 182 850 l 367 818 l 367 92 z "},"Ì":{"ha":853,"x_min":0,"x_max":0,"o":"m 544 1081 l 235 1278 l 182 1193 l 504 1015 z m 182 60 l 182 0 l 671 0 l 671 60 l 488 92 l 488 818 l 671 850 l 671 910 l 182 910 l 182 850 l 367 818 l 367 92 z "},"Î":{"ha":853,"x_min":0,"x_max":0,"o":"m 165 1075 l 211 1017 l 426 1178 l 642 1017 l 688 1075 l 453 1279 l 400 1279 z m 182 60 l 182 0 l 671 0 l 671 60 l 488 92 l 488 818 l 671 850 l 671 910 l 182 910 l 182 850 l 367 818 l 367 92 z "},"Ǐ":{"ha":853,"x_min":0,"x_max":0,"o":"m 688 1219 l 642 1278 l 426 1115 l 211 1278 l 165 1219 l 400 1015 l 453 1015 z m 182 60 l 182 0 l 671 0 l 671 60 l 488 92 l 488 818 l 671 850 l 671 910 l 182 910 l 182 850 l 367 818 l 367 92 z "},"Ĭ":{"ha":853,"x_min":0,"x_max":0,"o":"m 426 1104 b 246 1268 344 1104 288 1149 l 169 1244 b 426 1015 214 1081 299 1015 b 683 1244 554 1015 639 1081 l 607 1268 b 426 1104 565 1150 508 1104 z m 182 60 l 182 0 l 671 0 l 671 60 l 488 92 l 488 818 l 671 850 l 671 910 l 182 910 l 182 850 l 367 818 l 367 92 z "},"Ĩ":{"ha":853,"x_min":0,"x_max":0,"o":"m 704 1232 l 628 1257 b 538 1106 572 1121 558 1106 b 444 1169 521 1106 507 1113 b 308 1256 371 1238 342 1256 b 144 1039 256 1256 217 1229 l 221 1013 b 311 1164 275 1149 290 1164 b 404 1100 328 1164 340 1157 b 540 1015 478 1032 507 1015 b 704 1232 593 1015 632 1042 z m 182 60 l 182 0 l 671 0 l 671 60 l 488 92 l 488 818 l 671 850 l 671 910 l 182 910 l 182 850 l 367 818 l 367 92 z "},"Ī":{"ha":853,"x_min":0,"x_max":0,"o":"m 196 1071 l 657 1071 l 657 1163 l 196 1163 z m 182 60 l 182 0 l 671 0 l 671 60 l 488 92 l 488 818 l 671 850 l 671 910 l 182 910 l 182 850 l 367 818 l 367 92 z "},"Ï":{"ha":853,"x_min":0,"x_max":0,"o":"m 243 1043 b 329 1124 296 1043 329 1071 b 244 1206 329 1176 300 1206 b 160 1124 192 1206 160 1172 b 243 1043 160 1071 190 1043 z m 607 1043 b 692 1124 660 1043 692 1071 b 608 1206 692 1176 663 1206 b 524 1124 556 1206 524 1172 b 607 1043 524 1071 554 1043 z m 182 60 l 182 0 l 671 0 l 671 60 l 488 92 l 488 818 l 671 850 l 671 910 l 182 910 l 182 850 l 367 818 l 367 92 z "},"İ":{"ha":853,"x_min":0,"x_max":0,"o":"m 425 1043 b 515 1128 481 1043 515 1072 b 426 1214 515 1182 485 1214 b 339 1128 372 1214 339 1179 b 425 1043 339 1072 371 1043 z m 182 60 l 182 0 l 671 0 l 671 60 l 488 92 l 488 818 l 671 850 l 671 910 l 182 910 l 182 850 l 367 818 l 367 92 z "},"Ỉ":{"ha":853,"x_min":0,"x_max":0,"o":"m 324 1015 b 621 1163 563 1043 621 1108 b 343 1299 621 1226 572 1265 l 289 1235 l 289 1231 b 513 1153 485 1200 513 1181 b 297 1074 513 1122 475 1104 l 297 1071 z m 182 60 l 182 0 l 671 0 l 671 60 l 488 92 l 488 818 l 671 850 l 671 910 l 182 910 l 182 850 l 367 818 l 367 92 z "},"Ị":{"ha":853,"x_min":0,"x_max":0,"o":"m 182 60 l 182 0 l 671 0 l 671 60 l 488 92 l 488 818 l 671 850 l 671 910 l 182 910 l 182 850 l 367 818 l 367 92 z m 425 -297 b 513 -217 479 -297 513 -269 b 426 -133 513 -162 483 -133 b 342 -217 374 -133 342 -167 b 425 -297 342 -269 372 -297 z "},"Į":{"ha":853,"x_min":0,"x_max":0,"o":"m 182 60 l 182 0 l 396 0 b 278 -215 294 -126 278 -175 b 404 -318 278 -281 313 -314 l 536 -325 l 544 -244 l 439 -237 b 375 -178 389 -235 375 -214 b 461 0 375 -150 382 -110 l 671 0 l 671 60 l 488 92 l 488 818 l 671 850 l 671 910 l 182 910 l 182 850 l 367 818 l 367 92 z "},"Ĵ":{"ha":853,"x_min":0,"x_max":0,"o":"m 393 1061 l 439 1003 l 654 1164 l 869 1003 l 915 1061 l 681 1265 l 628 1265 z m 447 -17 b 715 257 631 -17 715 94 l 715 910 l 594 910 l 594 264 b 444 89 594 147 544 89 b 144 268 374 89 304 117 l 68 183 b 447 -17 249 18 332 -17 z "},"Ḵ":{"ha":853,"x_min":0,"x_max":0,"o":"m 253 910 l 132 910 l 132 0 l 253 0 l 253 446 l 663 0 l 821 0 l 821 3 l 393 468 l 804 907 l 804 910 l 656 910 l 253 471 z m 213 -251 l 674 -251 l 674 -161 l 213 -161 z "},"Ķ":{"ha":853,"x_min":0,"x_max":0,"o":"m 253 910 l 132 910 l 132 0 l 253 0 l 253 446 l 663 0 l 821 0 l 821 3 l 393 468 l 804 907 l 804 910 l 656 910 l 253 471 z m 315 -412 b 593 -253 536 -392 593 -312 b 335 -106 593 -185 549 -136 l 282 -169 l 282 -174 b 485 -262 461 -201 485 -231 b 289 -354 485 -297 449 -332 l 289 -357 z "},"Ḳ":{"ha":853,"x_min":0,"x_max":0,"o":"m 253 910 l 132 910 l 132 0 l 253 0 l 253 446 l 663 0 l 821 0 l 821 3 l 393 468 l 804 907 l 804 910 l 656 910 l 253 471 z m 442 -297 b 529 -217 496 -297 529 -269 b 443 -133 529 -162 500 -133 b 358 -217 390 -133 358 -167 b 442 -297 358 -269 389 -297 z "},"Ĺ":{"ha":853,"x_min":0,"x_max":0,"o":"m 85 1081 l 125 1015 l 447 1193 l 394 1278 z m 136 910 l 136 0 l 754 0 l 754 99 l 257 99 l 257 910 z "},"Ľ":{"ha":853,"x_min":0,"x_max":0,"o":"m 136 910 l 136 0 l 754 0 l 754 99 l 257 99 l 257 910 z m 483 599 l 563 599 l 601 910 l 483 910 z "},"Ļ":{"ha":853,"x_min":0,"x_max":0,"o":"m 136 910 l 136 0 l 754 0 l 754 99 l 257 99 l 257 910 z m 333 -412 b 611 -253 554 -392 611 -312 b 353 -106 611 -185 567 -136 l 300 -169 l 300 -174 b 503 -262 479 -201 503 -231 b 307 -354 503 -297 467 -332 l 307 -357 z "},"Ḽ":{"ha":853,"x_min":0,"x_max":0,"o":"m 136 910 l 136 0 l 754 0 l 754 99 l 257 99 l 257 910 z m 204 -337 l 254 -390 l 461 -207 l 668 -390 l 718 -337 l 492 -106 l 431 -106 z "},"Ḻ":{"ha":853,"x_min":0,"x_max":0,"o":"m 136 910 l 136 0 l 754 0 l 754 99 l 257 99 l 257 910 z m 231 -251 l 692 -251 l 692 -161 l 231 -161 z "},"Ḹ":{"ha":853,"x_min":0,"x_max":0,"o":"m -28 1071 l 433 1071 l 433 1163 l -28 1163 z m 136 910 l 136 0 l 754 0 l 754 99 l 257 99 l 257 910 z m 460 -297 b 547 -217 514 -297 547 -269 b 461 -133 547 -162 518 -133 b 376 -217 408 -133 376 -167 b 460 -297 376 -269 407 -297 z "},"Ḷ":{"ha":853,"x_min":0,"x_max":0,"o":"m 136 910 l 136 0 l 754 0 l 754 99 l 257 99 l 257 910 z m 460 -297 b 547 -217 514 -297 547 -269 b 461 -133 547 -162 518 -133 b 376 -217 408 -133 376 -167 b 460 -297 376 -269 407 -297 z "},"Ŀ":{"ha":853,"x_min":0,"x_max":0,"o":"m 136 910 l 136 0 l 754 0 l 754 99 l 257 99 l 257 910 z m 633 396 b 738 508 699 396 738 436 b 635 621 738 581 704 621 b 531 507 568 621 531 578 b 633 396 531 436 565 396 z "},"Ł":{"ha":853,"x_min":0,"x_max":0,"o":"m 58 268 l 174 347 l 174 0 l 754 0 l 754 99 l 294 99 l 294 426 l 571 618 l 571 710 l 294 518 l 294 910 l 174 910 l 174 440 l 58 361 z "},"Ḿ":{"ha":853,"x_min":0,"x_max":0,"o":"m 310 1076 l 350 1011 l 672 1189 l 619 1274 z m 729 910 l 596 910 l 428 456 l 258 910 l 124 910 l 86 0 l 200 0 l 224 756 l 413 249 l 440 249 l 629 771 l 653 0 l 767 0 z "},"Ṁ":{"ha":853,"x_min":0,"x_max":0,"o":"m 426 1039 b 517 1124 482 1039 517 1068 b 428 1210 517 1178 486 1210 b 340 1124 374 1210 340 1175 b 426 1039 340 1068 372 1039 z m 729 910 l 596 910 l 428 456 l 258 910 l 124 910 l 86 0 l 200 0 l 224 756 l 413 249 l 440 249 l 629 771 l 653 0 l 767 0 z "},"Ṃ":{"ha":853,"x_min":0,"x_max":0,"o":"m 729 910 l 596 910 l 428 456 l 258 910 l 124 910 l 86 0 l 200 0 l 224 756 l 413 249 l 440 249 l 629 771 l 653 0 l 767 0 z m 426 -297 b 514 -217 481 -297 514 -269 b 428 -133 514 -162 485 -133 b 343 -217 375 -133 343 -167 b 426 -297 343 -269 374 -297 z "},"Ń":{"ha":853,"x_min":0,"x_max":0,"o":"m 315 1074 l 356 1008 l 678 1186 l 625 1271 z m 238 0 l 231 763 l 582 0 l 728 0 l 728 910 l 615 910 l 622 165 l 279 910 l 125 910 l 125 0 z "},"Ǹ":{"ha":853,"x_min":0,"x_max":0,"o":"m 551 1074 l 242 1271 l 189 1186 l 511 1008 z m 238 0 l 231 763 l 582 0 l 728 0 l 728 910 l 615 910 l 622 165 l 279 910 l 125 910 l 125 0 z "},"Ň":{"ha":853,"x_min":0,"x_max":0,"o":"m 694 1213 l 649 1271 l 433 1108 l 218 1271 l 172 1213 l 407 1008 l 460 1008 z m 238 0 l 231 763 l 582 0 l 728 0 l 728 910 l 615 910 l 622 165 l 279 910 l 125 910 l 125 0 z "},"Ñ":{"ha":853,"x_min":0,"x_max":0,"o":"m 711 1232 l 635 1257 b 544 1106 579 1121 565 1106 b 451 1169 528 1106 514 1113 b 315 1256 378 1238 349 1256 b 151 1039 263 1256 224 1229 l 228 1013 b 318 1164 282 1149 297 1164 b 411 1100 335 1164 347 1157 b 547 1015 485 1032 514 1015 b 711 1232 600 1015 639 1042 z m 238 0 l 231 763 l 582 0 l 728 0 l 728 910 l 615 910 l 622 165 l 279 910 l 125 910 l 125 0 z "},"Ṅ":{"ha":853,"x_min":0,"x_max":0,"o":"m 432 1036 b 522 1121 488 1036 522 1065 b 433 1207 522 1175 492 1207 b 346 1121 379 1207 346 1172 b 432 1036 346 1065 378 1036 z m 238 0 l 231 763 l 582 0 l 728 0 l 728 910 l 615 910 l 622 165 l 279 910 l 125 910 l 125 0 z "},"Ṋ":{"ha":853,"x_min":0,"x_max":0,"o":"m 238 0 l 231 763 l 582 0 l 728 0 l 728 910 l 615 910 l 622 165 l 279 910 l 125 910 l 125 0 z m 171 -331 l 221 -383 l 428 -200 l 635 -383 l 685 -331 l 458 -99 l 397 -99 z "},"Ņ":{"ha":853,"x_min":0,"x_max":0,"o":"m 238 0 l 231 763 l 582 0 l 728 0 l 728 910 l 615 910 l 622 165 l 279 910 l 125 910 l 125 0 z m 300 -406 b 578 -246 521 -385 578 -306 b 319 -99 578 -178 533 -129 l 267 -162 l 267 -167 b 469 -256 446 -194 469 -224 b 274 -347 469 -290 433 -325 l 274 -350 z "},"Ṇ":{"ha":853,"x_min":0,"x_max":0,"o":"m 238 0 l 231 763 l 582 0 l 728 0 l 728 910 l 615 910 l 622 165 l 279 910 l 125 910 l 125 0 z m 426 -290 b 514 -210 481 -290 514 -262 b 428 -126 514 -156 485 -126 b 343 -210 375 -126 343 -160 b 426 -290 343 -262 374 -290 z "},"Ṉ":{"ha":853,"x_min":0,"x_max":0,"o":"m 238 0 l 231 763 l 582 0 l 728 0 l 728 910 l 615 910 l 622 165 l 279 910 l 125 910 l 125 0 z m 197 -251 l 658 -251 l 658 -161 l 197 -161 z "},"Ŋ":{"ha":853,"x_min":0,"x_max":0,"o":"m 238 0 l 231 764 l 624 -74 b 465 -222 624 -176 574 -214 l 294 -235 l 300 -331 l 472 -319 b 728 -68 657 -308 728 -239 l 728 910 l 615 910 l 621 183 l 279 910 l 125 910 l 125 0 z "},"Ó":{"ha":853,"x_min":0,"x_max":0,"o":"m 310 1088 l 350 1022 l 672 1200 l 619 1285 z m 775 457 b 428 931 775 767 640 931 b 78 451 215 931 78 763 b 425 -21 78 139 214 -21 b 775 457 638 -21 775 143 z m 201 454 b 426 831 201 713 286 831 b 651 454 565 831 651 714 b 426 79 651 197 567 79 b 201 454 288 79 201 196 z "},"Ő":{"ha":853,"x_min":0,"x_max":0,"o":"m 203 1075 l 260 1022 l 449 1215 l 364 1282 z m 539 1075 l 596 1022 l 785 1215 l 700 1282 z m 775 457 b 428 931 775 767 640 931 b 78 451 215 931 78 763 b 425 -21 78 139 214 -21 b 775 457 638 -21 775 143 z m 201 454 b 426 831 201 713 286 831 b 651 454 565 831 651 714 b 426 79 651 197 567 79 b 201 454 288 79 201 196 z "},"Ò":{"ha":853,"x_min":0,"x_max":0,"o":"m 546 1088 l 236 1285 l 183 1200 l 506 1022 z m 775 457 b 428 931 775 767 640 931 b 78 451 215 931 78 763 b 425 -21 78 139 214 -21 b 775 457 638 -21 775 143 z m 201 454 b 426 831 201 713 286 831 b 651 454 565 831 651 714 b 426 79 651 197 567 79 b 201 454 288 79 201 196 z "},"Ô":{"ha":853,"x_min":0,"x_max":0,"o":"m 167 1075 l 213 1017 l 428 1178 l 643 1017 l 689 1075 l 454 1279 l 401 1279 z m 775 457 b 428 931 775 767 640 931 b 78 451 215 931 78 763 b 425 -21 78 139 214 -21 b 775 457 638 -21 775 143 z m 201 454 b 426 831 201 713 286 831 b 651 454 565 831 651 714 b 426 79 651 197 567 79 b 201 454 288 79 201 196 z "},"Ộ":{"ha":853,"x_min":0,"x_max":0,"o":"m 167 1075 l 213 1017 l 428 1178 l 643 1017 l 689 1075 l 454 1279 l 401 1279 z m 775 457 b 428 931 775 767 640 931 b 78 451 215 931 78 763 b 425 -21 78 139 214 -21 b 775 457 638 -21 775 143 z m 201 454 b 426 831 201 713 286 831 b 651 454 565 831 651 714 b 426 79 651 197 567 79 b 201 454 288 79 201 196 z m 428 -304 b 515 -224 482 -304 515 -276 b 429 -140 515 -169 486 -140 b 344 -224 376 -140 344 -174 b 428 -304 344 -276 375 -304 z "},"Ố":{"ha":853,"x_min":0,"x_max":0,"o":"m 561 1307 l 600 1240 l 817 1357 l 765 1443 z m 167 1075 l 213 1017 l 428 1156 l 643 1017 l 689 1075 l 454 1256 l 401 1256 z m 775 457 b 428 931 775 767 640 931 b 78 451 215 931 78 763 b 425 -21 78 139 214 -21 b 775 457 638 -21 775 143 z m 201 454 b 426 831 201 713 286 831 b 651 454 565 831 651 714 b 426 79 651 197 567 79 b 201 454 288 79 201 196 z "},"Ồ":{"ha":853,"x_min":0,"x_max":0,"o":"m 751 1310 l 532 1453 l 481 1367 l 714 1242 z m 167 1075 l 213 1017 l 428 1156 l 643 1017 l 689 1075 l 454 1256 l 401 1256 z m 775 457 b 428 931 775 767 640 931 b 78 451 215 931 78 763 b 425 -21 78 139 214 -21 b 775 457 638 -21 775 143 z m 201 454 b 426 831 201 713 286 831 b 651 454 565 831 651 714 b 426 79 651 197 567 79 b 201 454 288 79 201 196 z "},"Ổ":{"ha":853,"x_min":0,"x_max":0,"o":"m 578 1250 b 822 1376 774 1274 822 1331 b 544 1504 822 1436 774 1471 l 492 1440 l 492 1436 b 714 1367 686 1406 714 1392 b 553 1307 714 1344 686 1331 l 553 1304 z m 167 1075 l 213 1017 l 428 1156 l 643 1017 l 689 1075 l 454 1256 l 401 1256 z m 775 457 b 428 931 775 767 640 931 b 78 451 215 931 78 763 b 425 -21 78 139 214 -21 b 775 457 638 -21 775 143 z m 201 454 b 426 831 201 713 286 831 b 651 454 565 831 651 714 b 426 79 651 197 567 79 b 201 454 288 79 201 196 z "},"Ỗ":{"ha":853,"x_min":0,"x_max":0,"o":"m 465 1444 b 346 1511 394 1501 375 1511 b 197 1326 297 1511 257 1492 l 272 1299 b 351 1419 315 1407 331 1419 b 436 1367 368 1419 382 1411 b 557 1300 507 1310 528 1300 b 711 1497 607 1300 649 1321 l 636 1525 b 551 1392 588 1404 572 1392 b 465 1444 535 1392 521 1400 z m 167 1075 l 213 1017 l 428 1156 l 643 1017 l 689 1075 l 454 1256 l 401 1256 z m 775 457 b 428 931 775 767 640 931 b 78 451 215 931 78 763 b 425 -21 78 139 214 -21 b 775 457 638 -21 775 143 z m 201 454 b 426 831 201 713 286 831 b 651 454 565 831 651 714 b 426 79 651 197 567 79 b 201 454 288 79 201 196 z "},"Ǒ":{"ha":853,"x_min":0,"x_max":0,"o":"m 689 1226 l 643 1285 l 428 1122 l 213 1285 l 167 1226 l 401 1022 l 454 1022 z m 775 457 b 428 931 775 767 640 931 b 78 451 215 931 78 763 b 425 -21 78 139 214 -21 b 775 457 638 -21 775 143 z m 201 454 b 426 831 201 713 286 831 b 651 454 565 831 651 714 b 426 79 651 197 567 79 b 201 454 288 79 201 196 z "},"Ŏ":{"ha":853,"x_min":0,"x_max":0,"o":"m 428 1111 b 247 1275 346 1111 289 1156 l 171 1251 b 428 1022 215 1088 300 1022 b 685 1251 556 1022 640 1088 l 608 1275 b 428 1111 567 1157 510 1111 z m 775 457 b 428 931 775 767 640 931 b 78 451 215 931 78 763 b 425 -21 78 139 214 -21 b 775 457 638 -21 775 143 z m 201 454 b 426 831 201 713 286 831 b 651 454 565 831 651 714 b 426 79 651 197 567 79 b 201 454 288 79 201 196 z "},"Õ":{"ha":853,"x_min":0,"x_max":0,"o":"m 706 1239 l 629 1264 b 539 1113 574 1128 560 1113 b 446 1176 522 1113 508 1119 b 310 1263 372 1244 343 1263 b 146 1046 257 1263 218 1236 l 222 1019 b 313 1171 276 1156 292 1171 b 406 1107 329 1171 342 1164 b 542 1022 479 1039 508 1022 b 706 1239 594 1022 633 1049 z m 775 457 b 428 931 775 767 640 931 b 78 451 215 931 78 763 b 425 -21 78 139 214 -21 b 775 457 638 -21 775 143 z m 201 454 b 426 831 201 713 286 831 b 651 454 565 831 651 714 b 426 79 651 197 567 79 b 201 454 288 79 201 196 z "},"Ō":{"ha":853,"x_min":0,"x_max":0,"o":"m 197 1078 l 658 1078 l 658 1169 l 197 1169 z m 775 457 b 428 931 775 767 640 931 b 78 451 215 931 78 763 b 425 -21 78 139 214 -21 b 775 457 638 -21 775 143 z m 201 454 b 426 831 201 713 286 831 b 651 454 565 831 651 714 b 426 79 651 197 567 79 b 201 454 288 79 201 196 z "},"Ö":{"ha":853,"x_min":0,"x_max":0,"o":"m 244 1050 b 331 1131 297 1050 331 1078 b 246 1213 331 1183 301 1213 b 161 1131 193 1213 161 1179 b 244 1050 161 1078 192 1050 z m 608 1050 b 693 1131 661 1050 693 1078 b 610 1213 693 1183 664 1213 b 525 1131 557 1213 525 1179 b 608 1050 525 1078 556 1050 z m 775 457 b 428 931 775 767 640 931 b 78 451 215 931 78 763 b 425 -21 78 139 214 -21 b 775 457 638 -21 775 143 z m 201 454 b 426 831 201 713 286 831 b 651 454 565 831 651 714 b 426 79 651 197 567 79 b 201 454 288 79 201 196 z "},"Ȯ":{"ha":853,"x_min":0,"x_max":0,"o":"m 426 1050 b 517 1135 482 1050 517 1079 b 428 1221 517 1189 486 1221 b 340 1135 374 1221 340 1186 b 426 1050 340 1079 372 1050 z m 775 457 b 428 931 775 767 640 931 b 78 451 215 931 78 763 b 425 -21 78 139 214 -21 b 775 457 638 -21 775 143 z m 201 454 b 426 831 201 713 286 831 b 651 454 565 831 651 714 b 426 79 651 197 567 79 b 201 454 288 79 201 196 z "},"Ỏ":{"ha":853,"x_min":0,"x_max":0,"o":"m 325 1022 b 622 1169 564 1050 622 1115 b 344 1306 622 1233 574 1272 l 290 1242 l 290 1238 b 514 1160 486 1207 514 1188 b 299 1081 514 1129 476 1111 l 299 1078 z m 775 457 b 428 931 775 767 640 931 b 78 451 215 931 78 763 b 425 -21 78 139 214 -21 b 775 457 638 -21 775 143 z m 201 454 b 426 831 201 713 286 831 b 651 454 565 831 651 714 b 426 79 651 197 567 79 b 201 454 288 79 201 196 z "},"Ọ":{"ha":853,"x_min":0,"x_max":0,"o":"m 775 457 b 428 931 775 767 640 931 b 78 451 215 931 78 763 b 425 -21 78 139 214 -21 b 775 457 638 -21 775 143 z m 201 454 b 426 831 201 713 286 831 b 651 454 565 831 651 714 b 426 79 651 197 567 79 b 201 454 288 79 201 196 z m 428 -304 b 515 -224 482 -304 515 -276 b 429 -140 515 -169 486 -140 b 344 -224 376 -140 344 -174 b 428 -304 344 -276 375 -304 z "},"Ǫ":{"ha":853,"x_min":0,"x_max":0,"o":"m 290 -222 b 418 -326 290 -287 325 -321 l 549 -333 l 557 -251 l 451 -246 b 389 -186 403 -243 389 -222 b 468 -18 389 -160 396 -121 b 775 457 656 3 775 165 b 428 931 775 767 640 931 b 78 451 215 931 78 763 b 399 -19 78 153 203 -7 b 290 -222 306 -137 290 -185 z m 201 454 b 426 831 201 713 286 831 b 651 454 565 831 651 714 b 426 79 651 197 567 79 b 201 454 288 79 201 196 z "},"Ø":{"ha":853,"x_min":0,"x_max":0,"o":"m 775 457 b 679 804 775 607 739 724 l 810 1008 l 700 1008 l 621 865 b 428 931 567 908 501 931 b 78 451 215 931 78 763 b 174 104 78 301 113 185 l 43 -99 l 151 -99 l 231 44 b 425 -21 285 1 351 -21 b 775 457 638 -21 775 143 z m 201 454 b 426 831 201 713 286 831 b 569 772 485 831 532 813 l 240 204 b 201 454 215 264 201 346 z m 651 454 b 426 79 651 197 567 79 b 283 138 368 79 321 97 l 611 706 b 651 454 638 646 651 563 z "},"Œ":{"ha":853,"x_min":0,"x_max":0,"o":"m 386 0 l 815 0 l 815 97 l 532 97 l 532 413 l 782 413 l 782 507 l 532 507 l 532 813 l 815 813 l 815 910 l 433 910 b 36 443 172 910 36 735 b 386 0 36 161 164 0 z m 353 97 b 156 446 235 99 156 213 b 390 813 156 688 239 810 l 415 814 l 415 94 z "},"Ơ":{"ha":853,"x_min":0,"x_max":0,"o":"m 425 910 b 78 449 215 910 78 747 b 425 -21 78 139 214 -21 b 775 453 638 -21 775 143 b 588 838 775 656 710 774 l 590 846 b 665 838 624 840 647 838 b 849 1067 783 838 844 899 l 735 1067 b 596 910 729 943 708 910 z m 201 451 b 426 810 201 697 286 810 b 651 450 565 810 651 699 b 426 79 651 196 567 79 b 201 451 288 79 201 194 z "},"Ớ":{"ha":853,"x_min":0,"x_max":0,"o":"m 310 1088 l 350 1022 l 672 1200 l 619 1285 z m 425 910 b 78 449 215 910 78 747 b 425 -21 78 139 214 -21 b 775 453 638 -21 775 143 b 588 838 775 656 710 774 l 590 846 b 665 838 624 840 647 838 b 849 1067 783 838 844 899 l 735 1067 b 596 910 729 943 708 910 z m 201 451 b 426 810 201 697 286 810 b 651 450 565 810 651 699 b 426 79 651 196 567 79 b 201 451 288 79 201 194 z "},"Ờ":{"ha":853,"x_min":0,"x_max":0,"o":"m 546 1088 l 236 1285 l 183 1200 l 506 1022 z m 425 910 b 78 449 215 910 78 747 b 425 -21 78 139 214 -21 b 775 453 638 -21 775 143 b 588 838 775 656 710 774 l 590 846 b 665 838 624 840 647 838 b 849 1067 783 838 844 899 l 735 1067 b 596 910 729 943 708 910 z m 201 451 b 426 810 201 697 286 810 b 651 450 565 810 651 699 b 426 79 651 196 567 79 b 201 451 288 79 201 194 z "},"Ỡ":{"ha":853,"x_min":0,"x_max":0,"o":"m 706 1239 l 629 1264 b 539 1113 574 1128 560 1113 b 446 1176 522 1113 508 1119 b 310 1263 372 1244 343 1263 b 146 1046 257 1263 218 1236 l 222 1019 b 313 1171 276 1156 292 1171 b 406 1107 329 1171 342 1164 b 542 1022 479 1039 508 1022 b 706 1239 594 1022 633 1049 z m 425 910 b 78 449 215 910 78 747 b 425 -21 78 139 214 -21 b 775 453 638 -21 775 143 b 588 838 775 656 710 774 l 590 846 b 665 838 624 840 647 838 b 849 1067 783 838 844 899 l 735 1067 b 596 910 729 943 708 910 z m 201 451 b 426 810 201 697 286 810 b 651 450 565 810 651 699 b 426 79 651 196 567 79 b 201 451 288 79 201 194 z "},"Ở":{"ha":853,"x_min":0,"x_max":0,"o":"m 325 1022 b 622 1169 564 1050 622 1115 b 344 1306 622 1233 574 1272 l 290 1242 l 290 1238 b 514 1160 486 1207 514 1188 b 299 1081 514 1129 476 1111 l 299 1078 z m 425 910 b 78 449 215 910 78 747 b 425 -21 78 139 214 -21 b 775 453 638 -21 775 143 b 588 838 775 656 710 774 l 590 846 b 665 838 624 840 647 838 b 849 1067 783 838 844 899 l 735 1067 b 596 910 729 943 708 910 z m 201 451 b 426 810 201 697 286 810 b 651 450 565 810 651 699 b 426 79 651 196 567 79 b 201 451 288 79 201 194 z "},"Ợ":{"ha":853,"x_min":0,"x_max":0,"o":"m 425 910 b 78 449 215 910 78 747 b 425 -21 78 139 214 -21 b 775 453 638 -21 775 143 b 588 838 775 656 710 774 l 590 846 b 665 838 624 840 647 838 b 849 1067 783 838 844 899 l 735 1067 b 596 910 729 943 708 910 z m 201 451 b 426 810 201 697 286 810 b 651 450 565 810 651 699 b 426 79 651 196 567 79 b 201 451 288 79 201 194 z m 428 -304 b 515 -224 482 -304 515 -276 b 429 -140 515 -169 486 -140 b 344 -224 376 -140 344 -174 b 428 -304 344 -276 375 -304 z "},"Ŕ":{"ha":853,"x_min":0,"x_max":0,"o":"m 332 1081 l 372 1015 l 694 1193 l 642 1278 z m 807 6 l 589 260 b 429 385 518 342 489 361 l 429 393 b 750 663 692 428 750 531 b 464 910 750 813 646 910 l 132 910 l 132 0 l 253 0 l 253 361 b 461 240 357 351 393 329 l 654 0 l 807 0 z m 443 813 b 629 653 569 813 629 750 b 317 451 629 550 576 482 l 253 443 l 253 813 z "},"Ř":{"ha":853,"x_min":0,"x_max":0,"o":"m 711 1219 l 665 1278 l 450 1115 l 235 1278 l 189 1219 l 424 1015 l 476 1015 z m 807 6 l 589 260 b 429 385 518 342 489 361 l 429 393 b 750 663 692 428 750 531 b 464 910 750 813 646 910 l 132 910 l 132 0 l 253 0 l 253 361 b 461 240 357 351 393 329 l 654 0 l 807 0 z m 443 813 b 629 653 569 813 629 750 b 317 451 629 550 576 482 l 253 443 l 253 813 z "},"Ṙ":{"ha":853,"x_min":0,"x_max":0,"o":"m 449 1043 b 539 1128 504 1043 539 1072 b 450 1214 539 1182 508 1214 b 363 1128 396 1214 363 1179 b 449 1043 363 1072 394 1043 z m 807 6 l 589 260 b 429 385 518 342 489 361 l 429 393 b 750 663 692 428 750 531 b 464 910 750 813 646 910 l 132 910 l 132 0 l 253 0 l 253 361 b 461 240 357 351 393 329 l 654 0 l 807 0 z m 443 813 b 629 653 569 813 629 750 b 317 451 629 550 576 482 l 253 443 l 253 813 z "},"Ṝ":{"ha":853,"x_min":0,"x_max":0,"o":"m 219 1071 l 681 1071 l 681 1163 l 219 1163 z m 807 6 l 589 260 b 429 385 518 342 489 361 l 429 393 b 750 663 692 428 750 531 b 464 910 750 813 646 910 l 132 910 l 132 0 l 253 0 l 253 361 b 461 240 357 351 393 329 l 654 0 l 807 0 z m 443 813 b 629 653 569 813 629 750 b 317 451 629 550 576 482 l 253 443 l 253 813 z m 440 -297 b 528 -217 494 -297 528 -269 b 442 -133 528 -162 499 -133 b 357 -217 389 -133 357 -167 b 440 -297 357 -269 388 -297 z "},"Ŗ":{"ha":853,"x_min":0,"x_max":0,"o":"m 807 6 l 589 260 b 429 385 518 342 489 361 l 429 393 b 750 663 692 428 750 531 b 464 910 750 813 646 910 l 132 910 l 132 0 l 253 0 l 253 361 b 461 240 357 351 393 329 l 654 0 l 807 0 z m 443 813 b 629 653 569 813 629 750 b 317 451 629 550 576 482 l 253 443 l 253 813 z m 314 -412 b 592 -253 535 -392 592 -312 b 333 -106 592 -185 547 -136 l 281 -169 l 281 -174 b 483 -262 460 -201 483 -231 b 288 -354 483 -297 447 -332 l 288 -357 z "},"Ṛ":{"ha":853,"x_min":0,"x_max":0,"o":"m 807 6 l 589 260 b 429 385 518 342 489 361 l 429 393 b 750 663 692 428 750 531 b 464 910 750 813 646 910 l 132 910 l 132 0 l 253 0 l 253 361 b 461 240 357 351 393 329 l 654 0 l 807 0 z m 443 813 b 629 653 569 813 629 750 b 317 451 629 550 576 482 l 253 443 l 253 813 z m 440 -297 b 528 -217 494 -297 528 -269 b 442 -133 528 -162 499 -133 b 357 -217 389 -133 357 -167 b 440 -297 357 -269 388 -297 z "},"Ṟ":{"ha":853,"x_min":0,"x_max":0,"o":"m 807 6 l 589 260 b 429 385 518 342 489 361 l 429 393 b 750 663 692 428 750 531 b 464 910 750 813 646 910 l 132 910 l 132 0 l 253 0 l 253 361 b 461 240 357 351 393 329 l 654 0 l 807 0 z m 443 813 b 629 653 569 813 629 750 b 317 451 629 550 576 482 l 253 443 l 253 813 z m 211 -251 l 672 -251 l 672 -161 l 211 -161 z "},"Ś":{"ha":853,"x_min":0,"x_max":0,"o":"m 319 1088 l 360 1022 l 682 1200 l 629 1285 z m 428 82 b 126 153 353 82 244 110 l 97 50 b 426 -18 219 3 324 -18 b 750 246 631 -18 750 82 b 517 503 750 379 686 449 l 417 535 b 256 699 292 574 256 621 b 442 828 256 771 307 828 b 703 779 510 828 592 813 l 724 883 b 444 928 615 914 542 928 b 133 690 233 928 133 813 b 369 428 133 564 199 481 l 468 396 b 628 240 590 358 628 311 b 428 82 628 143 564 82 z "},"Ŝ":{"ha":853,"x_min":0,"x_max":0,"o":"m 176 1075 l 222 1017 l 438 1178 l 653 1017 l 699 1075 l 464 1279 l 411 1279 z m 428 82 b 126 153 353 82 244 110 l 97 50 b 426 -18 219 3 324 -18 b 750 246 631 -18 750 82 b 517 503 750 379 686 449 l 417 535 b 256 699 292 574 256 621 b 442 828 256 771 307 828 b 703 779 510 828 592 813 l 724 883 b 444 928 615 914 542 928 b 133 690 233 928 133 813 b 369 428 133 564 199 481 l 468 396 b 628 240 590 358 628 311 b 428 82 628 143 564 82 z "},"Š":{"ha":853,"x_min":0,"x_max":0,"o":"m 699 1226 l 653 1285 l 438 1122 l 222 1285 l 176 1226 l 411 1022 l 464 1022 z m 428 82 b 126 153 353 82 244 110 l 97 50 b 426 -18 219 3 324 -18 b 750 246 631 -18 750 82 b 517 503 750 379 686 449 l 417 535 b 256 699 292 574 256 621 b 442 828 256 771 307 828 b 703 779 510 828 592 813 l 724 883 b 444 928 615 914 542 928 b 133 690 233 928 133 813 b 369 428 133 564 199 481 l 468 396 b 628 240 590 358 628 311 b 428 82 628 143 564 82 z "},"Ș":{"ha":853,"x_min":0,"x_max":0,"o":"m 428 82 b 126 153 353 82 244 110 l 97 50 b 426 -18 219 3 324 -18 b 750 246 631 -18 750 82 b 517 503 750 379 686 449 l 417 535 b 256 699 292 574 256 621 b 442 828 256 771 307 828 b 703 779 510 828 592 813 l 724 883 b 444 928 615 914 542 928 b 133 690 233 928 133 813 b 369 428 133 564 199 481 l 468 396 b 628 240 590 358 628 311 b 428 82 628 143 564 82 z m 294 -415 b 572 -256 515 -394 572 -315 b 314 -108 572 -187 528 -139 l 261 -172 l 261 -176 b 464 -265 440 -204 464 -233 b 268 -357 464 -300 428 -335 l 268 -360 z "},"Ṣ":{"ha":853,"x_min":0,"x_max":0,"o":"m 428 82 b 126 153 353 82 244 110 l 97 50 b 426 -18 219 3 324 -18 b 750 246 631 -18 750 82 b 517 503 750 379 686 449 l 417 535 b 256 699 292 574 256 621 b 442 828 256 771 307 828 b 703 779 510 828 592 813 l 724 883 b 444 928 615 914 542 928 b 133 690 233 928 133 813 b 369 428 133 564 199 481 l 468 396 b 628 240 590 358 628 311 b 428 82 628 143 564 82 z m 421 -300 b 508 -219 475 -300 508 -272 b 422 -136 508 -165 479 -136 b 338 -219 369 -136 338 -169 b 421 -300 338 -272 368 -300 z "},"Ş":{"ha":853,"x_min":0,"x_max":0,"o":"m 428 82 b 126 153 353 82 244 110 l 97 50 b 386 -17 204 8 296 -12 l 343 -140 l 351 -154 b 546 -215 522 -160 546 -182 b 268 -299 546 -251 517 -278 l 290 -375 b 642 -212 613 -347 642 -287 b 432 -89 642 -149 607 -107 l 456 -18 b 750 246 642 -8 750 90 b 517 503 750 379 686 449 l 417 535 b 256 699 292 574 256 621 b 442 828 256 771 307 828 b 703 779 510 828 592 813 l 724 883 b 444 928 615 914 542 928 b 133 690 233 928 133 813 b 369 428 133 564 199 481 l 468 396 b 628 240 590 358 628 311 b 428 82 628 143 564 82 z "},"ẞ":{"ha":853,"x_min":0,"x_max":0,"o":"m 453 450 b 674 199 639 322 674 275 b 554 90 674 139 639 90 b 450 100 518 90 489 93 l 440 1 b 567 -8 475 -6 513 -8 b 792 194 708 -8 792 76 b 571 490 792 293 764 357 l 747 779 l 747 810 b 425 931 608 901 519 931 b 122 597 243 931 122 815 l 122 0 l 242 0 l 242 601 b 432 831 242 761 311 831 b 622 764 489 831 546 810 l 453 486 z "},"Ť":{"ha":853,"x_min":0,"x_max":0,"o":"m 688 1219 l 642 1278 l 426 1115 l 211 1278 l 165 1219 l 400 1015 l 453 1015 z m 71 810 l 367 810 l 367 0 l 488 0 l 488 810 l 782 810 l 782 910 l 71 910 z "},"Ṱ":{"ha":853,"x_min":0,"x_max":0,"o":"m 71 810 l 367 810 l 367 0 l 488 0 l 488 810 l 782 810 l 782 910 l 71 910 z m 169 -337 l 219 -390 l 426 -207 l 633 -390 l 683 -337 l 457 -106 l 396 -106 z "},"Ț":{"ha":853,"x_min":0,"x_max":0,"o":"m 71 810 l 367 810 l 367 0 l 488 0 l 488 810 l 782 810 l 782 910 l 71 910 z m 299 -412 b 576 -253 519 -392 576 -312 b 318 -106 576 -185 532 -136 l 265 -169 l 265 -174 b 468 -262 444 -201 468 -231 b 272 -354 468 -297 432 -332 l 272 -357 z "},"Ṭ":{"ha":853,"x_min":0,"x_max":0,"o":"m 71 810 l 367 810 l 367 0 l 488 0 l 488 810 l 782 810 l 782 910 l 71 910 z m 425 -297 b 513 -217 479 -297 513 -269 b 426 -133 513 -162 483 -133 b 342 -217 374 -133 342 -167 b 425 -297 342 -269 372 -297 z "},"Ṯ":{"ha":853,"x_min":0,"x_max":0,"o":"m 71 810 l 367 810 l 367 0 l 488 0 l 488 810 l 782 810 l 782 910 l 71 910 z m 196 -251 l 657 -251 l 657 -161 l 196 -161 z "},"Ţ":{"ha":853,"x_min":0,"x_max":0,"o":"m 71 810 l 367 810 l 367 0 l 390 0 l 343 -132 l 351 -146 b 546 -208 522 -153 546 -175 b 268 -290 546 -244 517 -269 l 290 -368 b 642 -206 613 -340 642 -281 b 432 -82 642 -142 607 -99 l 458 0 l 488 0 l 488 810 l 782 810 l 782 910 l 71 910 z "},"Ŧ":{"ha":853,"x_min":0,"x_max":0,"o":"m 164 408 l 367 408 l 367 0 l 488 0 l 488 408 l 690 408 l 690 483 l 488 483 l 488 810 l 782 810 l 782 910 l 71 910 l 71 810 l 367 810 l 367 483 l 164 483 z "},"Ú":{"ha":853,"x_min":0,"x_max":0,"o":"m 308 1074 l 349 1008 l 671 1186 l 618 1271 z m 626 322 b 426 85 626 157 558 85 b 228 322 297 85 228 160 l 228 910 l 107 910 l 107 322 b 424 -21 107 93 217 -21 b 746 322 635 -21 746 90 l 746 910 l 626 910 z "},"Ű":{"ha":853,"x_min":0,"x_max":0,"o":"m 201 1068 l 258 1015 l 447 1208 l 363 1275 z m 538 1068 l 594 1015 l 783 1208 l 699 1275 z m 626 322 b 426 85 626 157 558 85 b 228 322 297 85 228 160 l 228 910 l 107 910 l 107 322 b 424 -21 107 93 217 -21 b 746 322 635 -21 746 90 l 746 910 l 626 910 z "},"Ù":{"ha":853,"x_min":0,"x_max":0,"o":"m 544 1074 l 235 1271 l 182 1186 l 504 1008 z m 626 322 b 426 85 626 157 558 85 b 228 322 297 85 228 160 l 228 910 l 107 910 l 107 322 b 424 -21 107 93 217 -21 b 746 322 635 -21 746 90 l 746 910 l 626 910 z "},"Û":{"ha":853,"x_min":0,"x_max":0,"o":"m 165 1075 l 211 1017 l 426 1178 l 642 1017 l 688 1075 l 453 1279 l 400 1279 z m 626 322 b 426 85 626 157 558 85 b 228 322 297 85 228 160 l 228 910 l 107 910 l 107 322 b 424 -21 107 93 217 -21 b 746 322 635 -21 746 90 l 746 910 l 626 910 z "},"Ǔ":{"ha":853,"x_min":0,"x_max":0,"o":"m 688 1213 l 642 1271 l 426 1108 l 211 1271 l 165 1213 l 400 1008 l 453 1008 z m 626 322 b 426 85 626 157 558 85 b 228 322 297 85 228 160 l 228 910 l 107 910 l 107 322 b 424 -21 107 93 217 -21 b 746 322 635 -21 746 90 l 746 910 l 626 910 z "},"Ŭ":{"ha":853,"x_min":0,"x_max":0,"o":"m 426 1097 b 246 1261 344 1097 288 1142 l 169 1238 b 426 1008 214 1074 299 1008 b 683 1238 554 1008 639 1074 l 607 1261 b 426 1097 565 1143 508 1097 z m 626 322 b 426 85 626 157 558 85 b 228 322 297 85 228 160 l 228 910 l 107 910 l 107 322 b 424 -21 107 93 217 -21 b 746 322 635 -21 746 90 l 746 910 l 626 910 z "},"Ũ":{"ha":853,"x_min":0,"x_max":0,"o":"m 704 1232 l 628 1257 b 538 1106 572 1121 558 1106 b 444 1169 521 1106 507 1113 b 308 1256 371 1238 342 1256 b 144 1039 256 1256 217 1229 l 221 1013 b 311 1164 275 1149 290 1164 b 404 1100 328 1164 340 1157 b 540 1015 478 1032 507 1015 b 704 1232 593 1015 632 1042 z m 626 322 b 426 85 626 157 558 85 b 228 322 297 85 228 160 l 228 910 l 107 910 l 107 322 b 424 -21 107 93 217 -21 b 746 322 635 -21 746 90 l 746 910 l 626 910 z "},"Ū":{"ha":853,"x_min":0,"x_max":0,"o":"m 196 1071 l 657 1071 l 657 1163 l 196 1163 z m 626 322 b 426 85 626 157 558 85 b 228 322 297 85 228 160 l 228 910 l 107 910 l 107 322 b 424 -21 107 93 217 -21 b 746 322 635 -21 746 90 l 746 910 l 626 910 z "},"Ü":{"ha":853,"x_min":0,"x_max":0,"o":"m 243 1043 b 329 1124 296 1043 329 1071 b 244 1206 329 1176 300 1206 b 160 1124 192 1206 160 1172 b 243 1043 160 1071 190 1043 z m 607 1043 b 692 1124 660 1043 692 1071 b 608 1206 692 1176 663 1206 b 524 1124 556 1206 524 1172 b 607 1043 524 1071 554 1043 z m 626 322 b 426 85 626 157 558 85 b 228 322 297 85 228 160 l 228 910 l 107 910 l 107 322 b 424 -21 107 93 217 -21 b 746 322 635 -21 746 90 l 746 910 l 626 910 z "},"Ǘ":{"ha":853,"x_min":0,"x_max":0,"o":"m 364 1246 l 696 1403 l 650 1490 l 331 1314 z m 243 1043 b 326 1119 296 1043 326 1069 b 244 1197 326 1169 299 1197 b 161 1119 193 1197 161 1165 b 243 1043 161 1069 192 1043 z m 607 1043 b 690 1119 658 1043 690 1069 b 608 1197 690 1169 663 1197 b 525 1119 557 1197 525 1165 b 607 1043 525 1069 556 1043 z m 626 322 b 426 85 626 157 558 85 b 228 322 297 85 228 160 l 228 910 l 107 910 l 107 322 b 424 -21 107 93 217 -21 b 746 322 635 -21 746 90 l 746 910 l 626 910 z "},"Ǜ":{"ha":853,"x_min":0,"x_max":0,"o":"m 524 1314 l 203 1490 l 158 1403 l 490 1246 z m 243 1043 b 326 1119 296 1043 326 1069 b 244 1197 326 1169 299 1197 b 161 1119 193 1197 161 1165 b 243 1043 161 1069 192 1043 z m 607 1043 b 690 1119 658 1043 690 1069 b 608 1197 690 1169 663 1197 b 525 1119 557 1197 525 1165 b 607 1043 525 1069 556 1043 z m 626 322 b 426 85 626 157 558 85 b 228 322 297 85 228 160 l 228 910 l 107 910 l 107 322 b 424 -21 107 93 217 -21 b 746 322 635 -21 746 90 l 746 910 l 626 910 z "},"Ǚ":{"ha":853,"x_min":0,"x_max":0,"o":"m 686 1436 l 642 1492 l 426 1338 l 211 1492 l 168 1436 l 400 1240 l 453 1240 z m 243 1043 b 326 1119 296 1043 326 1069 b 244 1197 326 1169 299 1197 b 161 1119 193 1197 161 1165 b 243 1043 161 1069 192 1043 z m 607 1043 b 690 1119 658 1043 690 1069 b 608 1197 690 1169 663 1197 b 525 1119 557 1197 525 1165 b 607 1043 525 1069 556 1043 z m 626 322 b 426 85 626 157 558 85 b 228 322 297 85 228 160 l 228 910 l 107 910 l 107 322 b 424 -21 107 93 217 -21 b 746 322 635 -21 746 90 l 746 910 l 626 910 z "},"Ǖ":{"ha":853,"x_min":0,"x_max":0,"o":"m 196 1326 l 657 1326 l 657 1418 l 196 1418 z m 243 1043 b 326 1119 296 1043 326 1069 b 244 1197 326 1169 299 1197 b 161 1119 193 1197 161 1165 b 243 1043 161 1069 192 1043 z m 607 1043 b 690 1119 658 1043 690 1069 b 608 1197 690 1169 663 1197 b 525 1119 557 1197 525 1165 b 607 1043 525 1069 556 1043 z m 626 322 b 426 85 626 157 558 85 b 228 322 297 85 228 160 l 228 910 l 107 910 l 107 322 b 424 -21 107 93 217 -21 b 746 322 635 -21 746 90 l 746 910 l 626 910 z "},"Ů":{"ha":853,"x_min":0,"x_max":0,"o":"m 425 1008 b 640 1176 557 1008 640 1075 b 428 1342 640 1278 558 1342 b 213 1174 296 1342 213 1275 b 425 1008 213 1072 294 1008 z m 426 1083 b 299 1172 340 1083 299 1115 b 426 1265 299 1235 340 1265 b 553 1178 513 1265 553 1233 b 426 1083 553 1114 513 1083 z m 626 322 b 426 85 626 157 558 85 b 228 322 297 85 228 160 l 228 910 l 107 910 l 107 322 b 424 -21 107 93 217 -21 b 746 322 635 -21 746 90 l 746 910 l 626 910 z "},"Ủ":{"ha":853,"x_min":0,"x_max":0,"o":"m 324 1008 b 621 1156 563 1036 621 1101 b 343 1292 621 1219 572 1258 l 289 1228 l 289 1224 b 513 1146 485 1193 513 1174 b 297 1067 513 1115 475 1097 l 297 1064 z m 626 322 b 426 85 626 157 558 85 b 228 322 297 85 228 160 l 228 910 l 107 910 l 107 322 b 424 -21 107 93 217 -21 b 746 322 635 -21 746 90 l 746 910 l 626 910 z "},"Ụ":{"ha":853,"x_min":0,"x_max":0,"o":"m 626 322 b 426 85 626 157 558 85 b 228 322 297 85 228 160 l 228 910 l 107 910 l 107 322 b 424 -21 107 93 217 -21 b 746 322 635 -21 746 90 l 746 910 l 626 910 z m 425 -304 b 513 -224 479 -304 513 -276 b 426 -140 513 -169 483 -140 b 342 -224 374 -140 342 -174 b 425 -304 342 -276 372 -304 z "},"Ų":{"ha":853,"x_min":0,"x_max":0,"o":"m 297 -222 b 424 -326 297 -287 332 -321 l 556 -333 l 564 -251 l 458 -246 b 394 -186 408 -243 394 -222 b 474 -18 394 -160 401 -121 b 746 322 653 -1 746 110 l 746 910 l 626 910 l 626 322 b 426 85 626 157 558 85 b 228 322 297 85 228 160 l 228 910 l 107 910 l 107 322 b 404 -21 107 100 210 -14 b 297 -222 313 -137 297 -185 z "},"Ư":{"ha":853,"x_min":0,"x_max":0,"o":"m 626 322 b 426 85 626 157 558 85 b 228 322 297 85 228 160 l 228 910 l 107 910 l 107 322 b 424 -21 107 93 217 -21 b 746 322 635 -21 746 90 l 746 832 b 936 1067 868 832 932 892 l 824 1067 b 683 910 818 940 797 910 l 626 910 z "},"Ứ":{"ha":853,"x_min":0,"x_max":0,"o":"m 308 1074 l 349 1008 l 671 1186 l 618 1271 z m 626 322 b 426 85 626 157 558 85 b 228 322 297 85 228 160 l 228 910 l 107 910 l 107 322 b 424 -21 107 93 217 -21 b 746 322 635 -21 746 90 l 746 832 b 936 1067 868 832 932 892 l 824 1067 b 683 910 818 940 797 910 l 626 910 z "},"Ừ":{"ha":853,"x_min":0,"x_max":0,"o":"m 544 1074 l 235 1271 l 182 1186 l 504 1008 z m 626 322 b 426 85 626 157 558 85 b 228 322 297 85 228 160 l 228 910 l 107 910 l 107 322 b 424 -21 107 93 217 -21 b 746 322 635 -21 746 90 l 746 832 b 936 1067 868 832 932 892 l 824 1067 b 683 910 818 940 797 910 l 626 910 z "},"Ữ":{"ha":853,"x_min":0,"x_max":0,"o":"m 704 1232 l 628 1257 b 538 1106 572 1121 558 1106 b 444 1169 521 1106 507 1113 b 308 1256 371 1238 342 1256 b 144 1039 256 1256 217 1229 l 221 1013 b 311 1164 275 1149 290 1164 b 404 1100 328 1164 340 1157 b 540 1015 478 1032 507 1015 b 704 1232 593 1015 632 1042 z m 626 322 b 426 85 626 157 558 85 b 228 322 297 85 228 160 l 228 910 l 107 910 l 107 322 b 424 -21 107 93 217 -21 b 746 322 635 -21 746 90 l 746 832 b 936 1067 868 832 932 892 l 824 1067 b 683 910 818 940 797 910 l 626 910 z "},"Ử":{"ha":853,"x_min":0,"x_max":0,"o":"m 324 1008 b 621 1156 563 1036 621 1101 b 343 1292 621 1219 572 1258 l 289 1228 l 289 1224 b 513 1146 485 1193 513 1174 b 297 1067 513 1115 475 1097 l 297 1064 z m 626 322 b 426 85 626 157 558 85 b 228 322 297 85 228 160 l 228 910 l 107 910 l 107 322 b 424 -21 107 93 217 -21 b 746 322 635 -21 746 90 l 746 832 b 936 1067 868 832 932 892 l 824 1067 b 683 910 818 940 797 910 l 626 910 z "},"Ự":{"ha":853,"x_min":0,"x_max":0,"o":"m 626 322 b 426 85 626 157 558 85 b 228 322 297 85 228 160 l 228 910 l 107 910 l 107 322 b 424 -21 107 93 217 -21 b 746 322 635 -21 746 90 l 746 832 b 936 1067 868 832 932 892 l 824 1067 b 683 910 818 940 797 910 l 626 910 z m 425 -304 b 513 -224 479 -304 513 -276 b 426 -140 513 -169 483 -140 b 342 -224 374 -140 342 -174 b 425 -304 342 -276 372 -304 z "},"Ṿ":{"ha":853,"x_min":0,"x_max":0,"o":"m 56 910 l 354 0 l 500 0 l 797 910 l 678 910 l 431 136 l 182 910 z m 426 -297 b 514 -217 481 -297 514 -269 b 428 -133 514 -162 485 -133 b 343 -217 375 -133 343 -167 b 426 -297 343 -269 374 -297 z "},"Ẃ":{"ha":853,"x_min":0,"x_max":0,"o":"m 308 1067 l 349 1001 l 671 1179 l 618 1264 z m 665 0 l 789 910 l 675 910 l 589 165 l 444 738 l 411 738 l 268 168 l 182 910 l 64 910 l 186 0 l 307 0 l 424 490 l 542 0 z "},"Ẁ":{"ha":853,"x_min":0,"x_max":0,"o":"m 544 1067 l 235 1264 l 182 1179 l 504 1001 z m 665 0 l 789 910 l 675 910 l 589 165 l 444 738 l 411 738 l 268 168 l 182 910 l 64 910 l 186 0 l 307 0 l 424 490 l 542 0 z "},"Ŵ":{"ha":853,"x_min":0,"x_max":0,"o":"m 165 1075 l 211 1017 l 426 1178 l 642 1017 l 688 1075 l 453 1279 l 400 1279 z m 665 0 l 789 910 l 675 910 l 589 165 l 444 738 l 411 738 l 268 168 l 182 910 l 64 910 l 186 0 l 307 0 l 424 490 l 542 0 z "},"Ẅ":{"ha":853,"x_min":0,"x_max":0,"o":"m 243 1043 b 329 1124 296 1043 329 1071 b 244 1206 329 1176 300 1206 b 160 1124 192 1206 160 1172 b 243 1043 160 1071 190 1043 z m 607 1043 b 692 1124 660 1043 692 1071 b 608 1206 692 1176 663 1206 b 524 1124 556 1206 524 1172 b 607 1043 524 1071 554 1043 z m 665 0 l 789 910 l 675 910 l 589 165 l 444 738 l 411 738 l 268 168 l 182 910 l 64 910 l 186 0 l 307 0 l 424 490 l 542 0 z "},"Ẍ":{"ha":853,"x_min":0,"x_max":0,"o":"m 243 1043 b 329 1124 296 1043 329 1071 b 244 1206 329 1176 300 1206 b 160 1124 192 1206 160 1172 b 243 1043 160 1071 190 1043 z m 607 1043 b 692 1124 660 1043 692 1071 b 608 1206 692 1176 663 1206 b 524 1124 556 1206 524 1172 b 607 1043 524 1071 554 1043 z m 64 0 l 196 0 l 422 379 l 646 0 l 789 0 l 492 474 l 764 910 l 628 910 l 426 560 l 224 910 l 83 910 l 357 467 z "},"Ý":{"ha":853,"x_min":0,"x_max":0,"o":"m 308 1074 l 349 1008 l 671 1186 l 618 1271 z m 796 910 l 661 910 l 429 503 l 196 910 l 57 910 l 367 388 l 367 0 l 488 0 l 488 390 z "},"Ỳ":{"ha":853,"x_min":0,"x_max":0,"o":"m 544 1074 l 235 1271 l 182 1186 l 504 1008 z m 796 910 l 661 910 l 429 503 l 196 910 l 57 910 l 367 388 l 367 0 l 488 0 l 488 390 z "},"Ŷ":{"ha":853,"x_min":0,"x_max":0,"o":"m 165 1075 l 211 1017 l 426 1178 l 642 1017 l 688 1075 l 453 1279 l 400 1279 z m 796 910 l 661 910 l 429 503 l 196 910 l 57 910 l 367 388 l 367 0 l 488 0 l 488 390 z "},"Ỹ":{"ha":853,"x_min":0,"x_max":0,"o":"m 704 1232 l 628 1257 b 538 1106 572 1121 558 1106 b 444 1169 521 1106 507 1113 b 308 1256 371 1238 342 1256 b 144 1039 256 1256 217 1229 l 221 1013 b 311 1164 275 1149 290 1164 b 404 1100 328 1164 340 1157 b 540 1015 478 1032 507 1015 b 704 1232 593 1015 632 1042 z m 796 910 l 661 910 l 429 503 l 196 910 l 57 910 l 367 388 l 367 0 l 488 0 l 488 390 z "},"Ȳ":{"ha":853,"x_min":0,"x_max":0,"o":"m 196 1071 l 657 1071 l 657 1163 l 196 1163 z m 796 910 l 661 910 l 429 503 l 196 910 l 57 910 l 367 388 l 367 0 l 488 0 l 488 390 z "},"Ÿ":{"ha":853,"x_min":0,"x_max":0,"o":"m 243 1043 b 329 1124 296 1043 329 1071 b 244 1206 329 1176 300 1206 b 160 1124 192 1206 160 1172 b 243 1043 160 1071 190 1043 z m 607 1043 b 692 1124 660 1043 692 1071 b 608 1206 692 1176 663 1206 b 524 1124 556 1206 524 1172 b 607 1043 524 1071 554 1043 z m 796 910 l 661 910 l 429 503 l 196 910 l 57 910 l 367 388 l 367 0 l 488 0 l 488 390 z "},"Ẏ":{"ha":853,"x_min":0,"x_max":0,"o":"m 425 1036 b 515 1121 481 1036 515 1065 b 426 1207 515 1175 485 1207 b 339 1121 372 1207 339 1172 b 425 1036 339 1065 371 1036 z m 796 910 l 661 910 l 429 503 l 196 910 l 57 910 l 367 388 l 367 0 l 488 0 l 488 390 z "},"Ỷ":{"ha":853,"x_min":0,"x_max":0,"o":"m 324 1008 b 621 1156 563 1036 621 1101 b 343 1292 621 1219 572 1258 l 289 1228 l 289 1224 b 513 1146 485 1193 513 1174 b 297 1067 513 1115 475 1097 l 297 1064 z m 796 910 l 661 910 l 429 503 l 196 910 l 57 910 l 367 388 l 367 0 l 488 0 l 488 390 z "},"Ỵ":{"ha":853,"x_min":0,"x_max":0,"o":"m 796 910 l 661 910 l 429 503 l 196 910 l 57 910 l 367 388 l 367 0 l 488 0 l 488 390 z m 426 -297 b 514 -217 481 -297 514 -269 b 428 -133 514 -162 485 -133 b 343 -217 375 -133 343 -167 b 426 -297 343 -269 374 -297 z "},"Ź":{"ha":853,"x_min":0,"x_max":0,"o":"m 311 1081 l 351 1015 l 674 1193 l 621 1278 z m 93 0 l 761 0 l 761 103 l 250 103 l 250 111 l 740 831 l 740 910 l 115 910 l 115 806 l 579 806 l 579 799 l 93 79 z "},"Ẑ":{"ha":853,"x_min":0,"x_max":0,"o":"m 168 1075 l 214 1017 l 429 1178 l 644 1017 l 690 1075 l 456 1279 l 403 1279 z m 93 0 l 761 0 l 761 103 l 250 103 l 250 111 l 740 831 l 740 910 l 115 910 l 115 806 l 579 806 l 579 799 l 93 79 z "},"Ž":{"ha":853,"x_min":0,"x_max":0,"o":"m 690 1219 l 644 1278 l 429 1115 l 214 1278 l 168 1219 l 403 1015 l 456 1015 z m 93 0 l 761 0 l 761 103 l 250 103 l 250 111 l 740 831 l 740 910 l 115 910 l 115 806 l 579 806 l 579 799 l 93 79 z "},"Ż":{"ha":853,"x_min":0,"x_max":0,"o":"m 428 1043 b 518 1128 483 1043 518 1072 b 429 1214 518 1182 488 1214 b 342 1128 375 1214 342 1179 b 428 1043 342 1072 374 1043 z m 93 0 l 761 0 l 761 103 l 250 103 l 250 111 l 740 831 l 740 910 l 115 910 l 115 806 l 579 806 l 579 799 l 93 79 z "},"Ẓ":{"ha":853,"x_min":0,"x_max":0,"o":"m 93 0 l 761 0 l 761 103 l 250 103 l 250 111 l 740 831 l 740 910 l 115 910 l 115 806 l 579 806 l 579 799 l 93 79 z m 428 -297 b 515 -217 482 -297 515 -269 b 429 -133 515 -162 486 -133 b 344 -217 376 -133 344 -167 b 428 -297 344 -269 375 -297 z "},"Ẕ":{"ha":853,"x_min":0,"x_max":0,"o":"m 93 0 l 761 0 l 761 103 l 250 103 l 250 111 l 740 831 l 740 910 l 115 910 l 115 806 l 579 806 l 579 799 l 93 79 z m 199 -251 l 660 -251 l 660 -161 l 199 -161 z "},"Ð":{"ha":853,"x_min":0,"x_max":0,"o":"m 42 421 l 157 421 l 157 0 l 231 0 b 781 467 590 0 781 175 b 278 910 781 749 594 910 l 157 910 l 157 496 l 42 496 z m 447 421 l 447 496 l 275 496 l 275 813 b 658 464 517 813 658 701 b 275 99 658 225 521 104 l 275 421 z "},"Þ":{"ha":853,"x_min":0,"x_max":0,"o":"m 132 910 l 132 0 l 253 0 l 253 206 l 469 206 b 790 458 665 206 790 300 b 486 704 790 608 681 704 l 253 704 l 253 910 z m 488 603 b 668 456 606 603 668 550 b 478 304 668 363 600 304 l 253 304 l 253 603 z "},"Ə":{"ha":853,"x_min":0,"x_max":0,"o":"m 767 454 b 365 922 767 789 639 922 b 200 910 315 922 264 919 l 211 808 b 364 822 265 818 318 822 b 642 521 536 822 628 757 l 94 521 b 88 432 89 483 88 454 b 415 -21 88 124 194 -21 b 767 454 628 -21 767 115 z m 415 79 b 207 425 292 79 211 150 l 643 425 b 415 79 638 154 553 79 z "},"á":{"ha":853,"x_min":0,"x_max":0,"o":"m 303 822 l 347 758 l 653 961 l 594 1042 z m 679 163 l 679 446 b 397 657 679 593 613 657 b 151 632 338 657 249 649 l 164 536 b 393 560 256 551 342 560 b 563 449 531 560 563 531 l 563 400 l 322 372 b 93 174 150 353 93 297 b 289 -10 93 56 174 -10 b 554 92 389 -10 472 25 l 567 92 b 725 -3 585 28 631 1 l 790 -6 l 799 86 l 736 90 b 679 163 689 94 679 108 z m 315 83 b 211 182 243 83 211 119 b 343 293 211 239 232 278 l 563 322 l 563 190 b 315 83 450 107 386 83 z "},"à":{"ha":853,"x_min":0,"x_max":0,"o":"m 549 821 l 256 1040 l 197 960 l 503 758 z m 679 163 l 679 446 b 397 657 679 593 613 657 b 151 632 338 657 249 649 l 164 536 b 393 560 256 551 342 560 b 563 449 531 560 563 531 l 563 400 l 322 372 b 93 174 150 353 93 297 b 289 -10 93 56 174 -10 b 554 92 389 -10 472 25 l 567 92 b 725 -3 585 28 631 1 l 790 -6 l 799 86 l 736 90 b 679 163 689 94 679 108 z m 315 83 b 211 182 243 83 211 119 b 343 293 211 239 232 278 l 563 322 l 563 190 b 315 83 450 107 386 83 z "},"â":{"ha":853,"x_min":0,"x_max":0,"o":"m 168 804 l 218 751 l 425 935 l 632 751 l 682 804 l 456 1036 l 394 1036 z m 679 163 l 679 446 b 397 657 679 593 613 657 b 151 632 338 657 249 649 l 164 536 b 393 560 256 551 342 560 b 563 449 531 560 563 531 l 563 400 l 322 372 b 93 174 150 353 93 297 b 289 -10 93 56 174 -10 b 554 92 389 -10 472 25 l 567 92 b 725 -3 585 28 631 1 l 790 -6 l 799 86 l 736 90 b 679 163 689 94 679 108 z m 315 83 b 211 182 243 83 211 119 b 343 293 211 239 232 278 l 563 322 l 563 190 b 315 83 450 107 386 83 z "},"ậ":{"ha":853,"x_min":0,"x_max":0,"o":"m 168 804 l 218 751 l 425 935 l 632 751 l 682 804 l 456 1036 l 394 1036 z m 679 163 l 679 446 b 397 657 679 593 613 657 b 151 632 338 657 249 649 l 164 536 b 393 560 256 551 342 560 b 563 449 531 560 563 531 l 563 400 l 322 372 b 93 174 150 353 93 297 b 289 -10 93 56 174 -10 b 554 92 389 -10 472 25 l 567 92 b 725 -3 585 28 631 1 l 790 -6 l 799 86 l 736 90 b 679 163 689 94 679 108 z m 315 83 b 211 182 243 83 211 119 b 343 293 211 239 232 278 l 563 322 l 563 190 b 315 83 450 107 386 83 z m 415 -297 b 503 -217 469 -297 503 -269 b 417 -133 503 -162 474 -133 b 332 -217 364 -133 332 -167 b 415 -297 332 -269 363 -297 z "},"ấ":{"ha":853,"x_min":0,"x_max":0,"o":"m 557 1049 l 599 989 l 818 1125 l 763 1203 z m 168 804 l 218 751 l 425 918 l 632 751 l 682 804 l 456 1018 l 394 1018 z m 679 163 l 679 446 b 397 657 679 593 613 657 b 151 632 338 657 249 649 l 164 536 b 393 560 256 551 342 560 b 563 449 531 560 563 531 l 563 400 l 322 372 b 93 174 150 353 93 297 b 289 -10 93 56 174 -10 b 554 92 389 -10 472 25 l 567 92 b 725 -3 585 28 631 1 l 790 -6 l 799 86 l 736 90 b 679 163 689 94 679 108 z m 315 83 b 211 182 243 83 211 119 b 343 293 211 239 232 278 l 563 322 l 563 190 b 315 83 450 107 386 83 z "},"ầ":{"ha":853,"x_min":0,"x_max":0,"o":"m 733 1039 l 535 1206 l 474 1131 l 688 982 z m 168 804 l 218 751 l 425 918 l 632 751 l 682 804 l 456 1018 l 394 1018 z m 679 163 l 679 446 b 397 657 679 593 613 657 b 151 632 338 657 249 649 l 164 536 b 393 560 256 551 342 560 b 563 449 531 560 563 531 l 563 400 l 322 372 b 93 174 150 353 93 297 b 289 -10 93 56 174 -10 b 554 92 389 -10 472 25 l 567 92 b 725 -3 585 28 631 1 l 790 -6 l 799 86 l 736 90 b 679 163 689 94 679 108 z m 315 83 b 211 182 243 83 211 119 b 343 293 211 239 232 278 l 563 322 l 563 190 b 315 83 450 107 386 83 z "},"ẩ":{"ha":853,"x_min":0,"x_max":0,"o":"m 579 990 b 835 1136 782 1021 835 1083 b 576 1264 835 1197 790 1231 l 522 1201 l 522 1197 b 726 1126 701 1171 726 1153 b 553 1049 726 1097 693 1078 l 553 1046 z m 168 804 l 218 751 l 425 918 l 632 751 l 682 804 l 456 1018 l 394 1018 z m 679 163 l 679 446 b 397 657 679 593 613 657 b 151 632 338 657 249 649 l 164 536 b 393 560 256 551 342 560 b 563 449 531 560 563 531 l 563 400 l 322 372 b 93 174 150 353 93 297 b 289 -10 93 56 174 -10 b 554 92 389 -10 472 25 l 567 92 b 725 -3 585 28 631 1 l 790 -6 l 799 86 l 736 90 b 679 163 689 94 679 108 z m 315 83 b 211 182 243 83 211 119 b 343 293 211 239 232 278 l 563 322 l 563 190 b 315 83 450 107 386 83 z "},"ẫ":{"ha":853,"x_min":0,"x_max":0,"o":"m 446 1200 b 328 1269 378 1257 357 1269 b 172 1069 272 1269 233 1236 l 247 1044 b 332 1178 296 1168 313 1178 b 415 1124 349 1178 361 1169 b 535 1054 485 1067 506 1054 b 690 1254 590 1054 629 1088 l 615 1279 b 531 1146 567 1156 550 1146 b 446 1200 514 1146 501 1154 z m 168 804 l 218 751 l 425 918 l 632 751 l 682 804 l 456 1018 l 394 1018 z m 679 163 l 679 446 b 397 657 679 593 613 657 b 151 632 338 657 249 649 l 164 536 b 393 560 256 551 342 560 b 563 449 531 560 563 531 l 563 400 l 322 372 b 93 174 150 353 93 297 b 289 -10 93 56 174 -10 b 554 92 389 -10 472 25 l 567 92 b 725 -3 585 28 631 1 l 790 -6 l 799 86 l 736 90 b 679 163 689 94 679 108 z m 315 83 b 211 182 243 83 211 119 b 343 293 211 239 232 278 l 563 322 l 563 190 b 315 83 450 107 386 83 z "},"ǎ":{"ha":853,"x_min":0,"x_max":0,"o":"m 682 990 l 632 1043 l 425 860 l 218 1043 l 168 990 l 394 758 l 456 758 z m 679 163 l 679 446 b 397 657 679 593 613 657 b 151 632 338 657 249 649 l 164 536 b 393 560 256 551 342 560 b 563 449 531 560 563 531 l 563 400 l 322 372 b 93 174 150 353 93 297 b 289 -10 93 56 174 -10 b 554 92 389 -10 472 25 l 567 92 b 725 -3 585 28 631 1 l 790 -6 l 799 86 l 736 90 b 679 163 689 94 679 108 z m 315 83 b 211 182 243 83 211 119 b 343 293 211 239 232 278 l 563 322 l 563 190 b 315 83 450 107 386 83 z "},"ă":{"ha":853,"x_min":0,"x_max":0,"o":"m 425 847 b 244 1032 343 847 290 900 l 168 1007 b 425 758 215 831 297 758 b 682 1007 553 758 635 831 l 606 1032 b 425 847 561 901 507 847 z m 679 163 l 679 446 b 397 657 679 593 613 657 b 151 632 338 657 249 649 l 164 536 b 393 560 256 551 342 560 b 563 449 531 560 563 531 l 563 400 l 322 372 b 93 174 150 353 93 297 b 289 -10 93 56 174 -10 b 554 92 389 -10 472 25 l 567 92 b 725 -3 585 28 631 1 l 790 -6 l 799 86 l 736 90 b 679 163 689 94 679 108 z m 315 83 b 211 182 243 83 211 119 b 343 293 211 239 232 278 l 563 322 l 563 190 b 315 83 450 107 386 83 z "},"ặ":{"ha":853,"x_min":0,"x_max":0,"o":"m 425 847 b 244 1032 343 847 290 900 l 168 1007 b 425 758 215 831 297 758 b 682 1007 553 758 635 831 l 606 1032 b 425 847 561 901 507 847 z m 679 163 l 679 446 b 397 657 679 593 613 657 b 151 632 338 657 249 649 l 164 536 b 393 560 256 551 342 560 b 563 449 531 560 563 531 l 563 400 l 322 372 b 93 174 150 353 93 297 b 289 -10 93 56 174 -10 b 554 92 389 -10 472 25 l 567 92 b 725 -3 585 28 631 1 l 790 -6 l 799 86 l 736 90 b 679 163 689 94 679 108 z m 315 83 b 211 182 243 83 211 119 b 343 293 211 239 232 278 l 563 322 l 563 190 b 315 83 450 107 386 83 z m 415 -297 b 503 -217 469 -297 503 -269 b 417 -133 503 -162 474 -133 b 332 -217 364 -133 332 -167 b 415 -297 332 -269 363 -297 z "},"ắ":{"ha":853,"x_min":0,"x_max":0,"o":"m 329 1092 l 367 1026 l 690 1190 l 643 1278 z m 425 847 b 244 1018 343 847 288 896 l 168 993 b 425 758 213 825 297 758 b 682 993 553 758 638 825 l 606 1018 b 425 847 564 896 507 847 z m 679 163 l 679 446 b 397 657 679 593 613 657 b 151 632 338 657 249 649 l 164 536 b 393 560 256 551 342 560 b 563 449 531 560 563 531 l 563 400 l 322 372 b 93 174 150 353 93 297 b 289 -10 93 56 174 -10 b 554 92 389 -10 472 25 l 567 92 b 725 -3 585 28 631 1 l 790 -6 l 799 86 l 736 90 b 679 163 689 94 679 108 z m 315 83 b 211 182 243 83 211 119 b 343 293 211 239 232 278 l 563 322 l 563 190 b 315 83 450 107 386 83 z "},"ằ":{"ha":853,"x_min":0,"x_max":0,"o":"m 519 1092 l 206 1278 l 158 1190 l 482 1026 z m 425 847 b 244 1018 343 847 288 896 l 168 993 b 425 758 213 825 297 758 b 682 993 553 758 638 825 l 606 1018 b 425 847 564 896 507 847 z m 679 163 l 679 446 b 397 657 679 593 613 657 b 151 632 338 657 249 649 l 164 536 b 393 560 256 551 342 560 b 563 449 531 560 563 531 l 563 400 l 322 372 b 93 174 150 353 93 297 b 289 -10 93 56 174 -10 b 554 92 389 -10 472 25 l 567 92 b 725 -3 585 28 631 1 l 790 -6 l 799 86 l 736 90 b 679 163 689 94 679 108 z m 315 83 b 211 182 243 83 211 119 b 343 293 211 239 232 278 l 563 322 l 563 190 b 315 83 450 107 386 83 z "},"ẳ":{"ha":853,"x_min":0,"x_max":0,"o":"m 360 1024 b 615 1171 563 1054 615 1117 b 357 1297 615 1231 572 1264 l 303 1235 l 303 1232 b 507 1161 482 1204 507 1186 b 335 1082 507 1131 474 1113 l 335 1079 z m 425 847 b 244 1018 343 847 288 896 l 168 993 b 425 758 213 825 297 758 b 682 993 553 758 638 825 l 606 1018 b 425 847 564 896 507 847 z m 679 163 l 679 446 b 397 657 679 593 613 657 b 151 632 338 657 249 649 l 164 536 b 393 560 256 551 342 560 b 563 449 531 560 563 531 l 563 400 l 322 372 b 93 174 150 353 93 297 b 289 -10 93 56 174 -10 b 554 92 389 -10 472 25 l 567 92 b 725 -3 585 28 631 1 l 790 -6 l 799 86 l 736 90 b 679 163 689 94 679 108 z m 315 83 b 211 182 243 83 211 119 b 343 293 211 239 232 278 l 563 322 l 563 190 b 315 83 450 107 386 83 z "},"ẵ":{"ha":853,"x_min":0,"x_max":0,"o":"m 444 1210 b 325 1281 375 1268 354 1281 b 175 1093 272 1281 233 1249 l 250 1067 b 331 1189 293 1179 311 1189 b 414 1135 347 1189 358 1179 b 533 1065 482 1078 503 1065 b 688 1265 588 1065 626 1099 l 614 1290 b 528 1157 565 1167 547 1157 b 444 1210 511 1157 499 1165 z m 425 847 b 246 1013 343 847 288 893 l 169 988 b 425 758 213 824 299 758 b 682 993 553 758 638 825 l 606 1018 b 425 847 564 896 507 847 z m 679 163 l 679 446 b 397 657 679 593 613 657 b 151 632 338 657 249 649 l 164 536 b 393 560 256 551 342 560 b 563 449 531 560 563 531 l 563 400 l 322 372 b 93 174 150 353 93 297 b 289 -10 93 56 174 -10 b 554 92 389 -10 472 25 l 567 92 b 725 -3 585 28 631 1 l 790 -6 l 799 86 l 736 90 b 679 163 689 94 679 108 z m 315 83 b 211 182 243 83 211 119 b 343 293 211 239 232 278 l 563 322 l 563 190 b 315 83 450 107 386 83 z "},"ã":{"ha":853,"x_min":0,"x_max":0,"o":"m 397 856 b 539 758 475 774 507 758 b 703 1001 592 758 631 789 l 626 1029 b 536 857 572 875 557 857 b 449 929 521 857 508 867 b 307 1026 371 1011 339 1026 b 143 783 254 1026 215 997 l 219 756 b 310 929 275 911 289 929 b 397 856 325 929 338 919 z m 679 163 l 679 446 b 397 657 679 593 613 657 b 151 632 338 657 249 649 l 164 536 b 393 560 256 551 342 560 b 563 449 531 560 563 531 l 563 400 l 322 372 b 93 174 150 353 93 297 b 289 -10 93 56 174 -10 b 554 92 389 -10 472 25 l 567 92 b 725 -3 585 28 631 1 l 790 -6 l 799 86 l 736 90 b 679 163 689 94 679 108 z m 315 83 b 211 182 243 83 211 119 b 343 293 211 239 232 278 l 563 322 l 563 190 b 315 83 450 107 386 83 z "},"ā":{"ha":853,"x_min":0,"x_max":0,"o":"m 194 814 l 656 814 l 656 904 l 194 904 z m 679 163 l 679 446 b 397 657 679 593 613 657 b 151 632 338 657 249 649 l 164 536 b 393 560 256 551 342 560 b 563 449 531 560 563 531 l 563 400 l 322 372 b 93 174 150 353 93 297 b 289 -10 93 56 174 -10 b 554 92 389 -10 472 25 l 567 92 b 725 -3 585 28 631 1 l 790 -6 l 799 86 l 736 90 b 679 163 689 94 679 108 z m 315 83 b 211 182 243 83 211 119 b 343 293 211 239 232 278 l 563 322 l 563 190 b 315 83 450 107 386 83 z "},"ä":{"ha":853,"x_min":0,"x_max":0,"o":"m 261 786 b 344 864 313 786 344 814 b 263 943 344 915 315 943 b 181 864 213 943 181 911 b 261 786 181 814 211 786 z m 586 786 b 669 864 638 786 669 814 b 588 943 669 915 640 943 b 507 864 538 943 507 911 b 586 786 507 814 536 786 z m 679 163 l 679 446 b 397 657 679 593 613 657 b 151 632 338 657 249 649 l 164 536 b 393 560 256 551 342 560 b 563 449 531 560 563 531 l 563 400 l 322 372 b 93 174 150 353 93 297 b 289 -10 93 56 174 -10 b 554 92 389 -10 472 25 l 567 92 b 725 -3 585 28 631 1 l 790 -6 l 799 86 l 736 90 b 679 163 689 94 679 108 z m 315 83 b 211 182 243 83 211 119 b 343 293 211 239 232 278 l 563 322 l 563 190 b 315 83 450 107 386 83 z "},"ȧ":{"ha":853,"x_min":0,"x_max":0,"o":"m 424 786 b 511 868 478 786 511 814 b 425 951 511 921 482 951 b 340 868 372 951 340 917 b 424 786 340 814 371 786 z m 679 163 l 679 446 b 397 657 679 593 613 657 b 151 632 338 657 249 649 l 164 536 b 393 560 256 551 342 560 b 563 449 531 560 563 531 l 563 400 l 322 372 b 93 174 150 353 93 297 b 289 -10 93 56 174 -10 b 554 92 389 -10 472 25 l 567 92 b 725 -3 585 28 631 1 l 790 -6 l 799 86 l 736 90 b 679 163 689 94 679 108 z m 315 83 b 211 182 243 83 211 119 b 343 293 211 239 232 278 l 563 322 l 563 190 b 315 83 450 107 386 83 z "},"å":{"ha":853,"x_min":0,"x_max":0,"o":"m 424 758 b 624 932 543 758 624 825 b 426 1104 624 1039 544 1104 b 226 931 307 1104 226 1036 b 424 758 226 822 306 758 z m 425 835 b 308 929 347 835 308 867 b 425 1028 308 997 349 1028 b 540 933 501 1028 540 996 b 425 835 540 867 500 835 z m 679 163 l 679 446 b 397 657 679 593 613 657 b 151 632 338 657 249 649 l 164 536 b 393 560 256 551 342 560 b 563 449 531 560 563 531 l 563 400 l 322 372 b 93 174 150 353 93 297 b 289 -10 93 56 174 -10 b 554 92 389 -10 472 25 l 567 92 b 725 -3 585 28 631 1 l 790 -6 l 799 86 l 736 90 b 679 163 689 94 679 108 z m 315 83 b 211 182 243 83 211 119 b 343 293 211 239 232 278 l 563 322 l 563 190 b 315 83 450 107 386 83 z "},"ả":{"ha":853,"x_min":0,"x_max":0,"o":"m 297 758 b 575 918 518 779 575 858 b 317 1065 575 986 531 1035 l 264 1001 l 264 997 b 467 908 443 969 467 940 b 271 817 467 874 431 839 l 271 814 z m 679 163 l 679 446 b 397 657 679 593 613 657 b 151 632 338 657 249 649 l 164 536 b 393 560 256 551 342 560 b 563 449 531 560 563 531 l 563 400 l 322 372 b 93 174 150 353 93 297 b 289 -10 93 56 174 -10 b 554 92 389 -10 472 25 l 567 92 b 725 -3 585 28 631 1 l 790 -6 l 799 86 l 736 90 b 679 163 689 94 679 108 z m 315 83 b 211 182 243 83 211 119 b 343 293 211 239 232 278 l 563 322 l 563 190 b 315 83 450 107 386 83 z "},"ạ":{"ha":853,"x_min":0,"x_max":0,"o":"m 679 163 l 679 446 b 397 657 679 593 613 657 b 151 632 338 657 249 649 l 164 536 b 393 560 256 551 342 560 b 563 449 531 560 563 531 l 563 400 l 322 372 b 93 174 150 353 93 297 b 289 -10 93 56 174 -10 b 554 92 389 -10 472 25 l 567 92 b 725 -3 585 28 631 1 l 790 -6 l 799 86 l 736 90 b 679 163 689 94 679 108 z m 315 83 b 211 182 243 83 211 119 b 343 293 211 239 232 278 l 563 322 l 563 190 b 315 83 450 107 386 83 z m 415 -297 b 503 -217 469 -297 503 -269 b 417 -133 503 -162 474 -133 b 332 -217 364 -133 332 -167 b 415 -297 332 -269 363 -297 z "},"ą":{"ha":853,"x_min":0,"x_max":0,"o":"m 503 -215 b 629 -319 503 -281 538 -314 l 761 -326 l 768 -244 l 664 -239 b 600 -179 614 -236 600 -215 b 688 0 600 -151 608 -110 b 790 -6 711 -3 742 -4 l 799 86 l 736 90 b 679 163 689 94 679 108 l 679 446 b 397 657 679 593 613 657 b 151 632 338 657 249 649 l 164 536 b 393 560 256 551 342 560 b 563 449 531 560 563 531 l 563 400 l 322 372 b 93 174 150 353 93 297 b 289 -10 93 56 174 -10 b 554 92 389 -10 472 25 l 567 92 b 633 14 578 54 599 29 b 503 -215 521 -122 503 -175 z m 315 83 b 211 182 243 83 211 119 b 343 293 211 239 232 278 l 563 322 l 563 190 b 315 83 450 107 386 83 z "},"æ":{"ha":853,"x_min":0,"x_max":0,"o":"m 715 82 l 656 85 b 474 281 529 89 481 150 l 811 281 b 817 331 814 293 817 310 b 606 661 817 543 729 661 b 447 563 543 661 488 624 b 286 661 425 631 375 661 b 99 643 238 661 174 656 l 110 549 b 271 567 188 563 236 567 b 361 449 342 567 361 538 l 361 397 l 236 372 b 42 174 93 344 42 285 b 199 -10 42 56 100 -10 b 392 83 267 -10 322 21 l 418 83 b 631 -8 461 25 529 -6 l 711 -10 z m 600 568 b 703 369 657 568 697 503 l 475 369 b 600 568 486 499 539 568 z m 231 83 b 157 182 181 83 157 119 b 265 296 157 243 178 274 l 361 319 b 381 163 361 256 367 204 b 231 83 306 104 275 83 z "},"ḇ":{"ha":853,"x_min":0,"x_max":0,"o":"m 247 986 l 128 986 l 128 -1 l 163 -1 l 222 42 b 422 -11 286 6 353 -11 b 771 332 631 -11 771 142 b 483 660 771 532 642 660 b 247 546 396 660 328 629 z m 450 560 b 649 328 558 560 649 471 b 406 89 649 206 565 89 b 247 142 356 89 304 104 l 247 450 b 450 560 333 536 390 560 z m 200 -251 l 661 -251 l 661 -161 l 200 -161 z "},"ć":{"ha":853,"x_min":0,"x_max":0,"o":"m 329 822 l 374 758 l 679 961 l 621 1042 z m 456 565 b 699 475 518 565 576 554 l 754 563 b 454 667 621 650 538 667 b 97 328 253 667 97 519 b 438 -21 97 110 240 -21 b 757 81 535 -21 621 1 l 706 164 b 443 81 583 96 513 81 b 221 326 315 81 221 179 b 456 565 221 467 317 565 z "},"ĉ":{"ha":853,"x_min":0,"x_max":0,"o":"m 194 804 l 244 751 l 451 935 l 658 751 l 708 804 l 482 1036 l 421 1036 z m 456 565 b 699 475 518 565 576 554 l 754 563 b 454 667 621 650 538 667 b 97 328 253 667 97 519 b 438 -21 97 110 240 -21 b 757 81 535 -21 621 1 l 706 164 b 443 81 583 96 513 81 b 221 326 315 81 221 179 b 456 565 221 467 317 565 z "},"č":{"ha":853,"x_min":0,"x_max":0,"o":"m 708 990 l 658 1043 l 451 860 l 244 1043 l 194 990 l 421 758 l 482 758 z m 456 565 b 699 475 518 565 576 554 l 754 563 b 454 667 621 650 538 667 b 97 328 253 667 97 519 b 438 -21 97 110 240 -21 b 757 81 535 -21 621 1 l 706 164 b 443 81 583 96 513 81 b 221 326 315 81 221 179 b 456 565 221 467 317 565 z "},"ċ":{"ha":853,"x_min":0,"x_max":0,"o":"m 450 786 b 538 868 504 786 538 814 b 451 951 538 921 508 951 b 367 868 399 951 367 917 b 450 786 367 814 397 786 z m 456 565 b 699 475 518 565 576 554 l 754 563 b 454 667 621 650 538 667 b 97 328 253 667 97 519 b 438 -21 97 110 240 -21 b 757 81 535 -21 621 1 l 706 164 b 443 81 583 96 513 81 b 221 326 315 81 221 179 b 456 565 221 467 317 565 z "},"ç":{"ha":853,"x_min":0,"x_max":0,"o":"m 456 565 b 699 475 518 565 576 554 l 754 563 b 454 667 621 650 538 667 b 97 328 253 667 97 519 b 386 -18 97 129 215 3 l 343 -140 l 351 -154 b 544 -215 521 -160 544 -182 b 267 -299 544 -251 517 -278 l 290 -375 b 642 -212 611 -347 642 -287 b 432 -89 642 -149 607 -107 l 454 -21 b 757 81 544 -18 629 6 l 706 164 b 443 81 583 96 513 81 b 221 326 315 81 221 179 b 456 565 221 467 317 565 z "},"ď":{"ha":853,"x_min":0,"x_max":0,"o":"m 879 783 l 958 783 l 997 1094 l 879 1094 z m 369 -12 b 613 107 460 -12 529 19 l 624 0 l 725 0 l 725 986 l 606 986 l 606 582 b 408 656 536 640 472 656 b 82 315 221 656 82 514 b 369 -12 82 115 211 -12 z m 204 319 b 426 558 204 454 286 558 b 606 476 471 558 531 544 l 606 197 b 403 86 519 110 463 86 b 204 319 294 86 204 176 z "},"ḓ":{"ha":853,"x_min":0,"x_max":0,"o":"m 369 -12 b 613 107 460 -12 529 19 l 624 0 l 725 0 l 725 986 l 606 986 l 606 582 b 408 656 536 640 472 656 b 82 315 221 656 82 514 b 369 -12 82 115 211 -12 z m 204 319 b 426 558 204 454 286 558 b 606 476 471 558 531 544 l 606 197 b 403 86 519 110 463 86 b 204 319 294 86 204 176 z m 175 -337 l 225 -390 l 432 -207 l 639 -390 l 689 -337 l 463 -106 l 401 -106 z "},"ḏ":{"ha":853,"x_min":0,"x_max":0,"o":"m 369 -12 b 613 107 460 -12 529 19 l 624 0 l 725 0 l 725 986 l 606 986 l 606 582 b 408 656 536 640 472 656 b 82 315 221 656 82 514 b 369 -12 82 115 211 -12 z m 204 319 b 426 558 204 454 286 558 b 606 476 471 558 531 544 l 606 197 b 403 86 519 110 463 86 b 204 319 294 86 204 176 z m 201 -251 l 663 -251 l 663 -161 l 201 -161 z "},"ḍ":{"ha":853,"x_min":0,"x_max":0,"o":"m 369 -12 b 613 107 460 -12 529 19 l 624 0 l 725 0 l 725 986 l 606 986 l 606 582 b 408 656 536 640 472 656 b 82 315 221 656 82 514 b 369 -12 82 115 211 -12 z m 204 319 b 426 558 204 454 286 558 b 606 476 471 558 531 544 l 606 197 b 403 86 519 110 463 86 b 204 319 294 86 204 176 z m 431 -297 b 518 -217 485 -297 518 -269 b 432 -133 518 -162 489 -133 b 347 -217 379 -133 347 -167 b 431 -297 347 -269 378 -297 z "},"đ":{"ha":853,"x_min":0,"x_max":0,"o":"m 357 -12 b 590 107 443 -12 508 21 l 601 0 l 703 0 l 703 735 l 818 735 l 818 814 l 703 814 l 703 986 l 583 986 l 583 814 l 336 814 l 336 735 l 583 735 l 583 519 b 394 594 514 578 454 594 b 82 285 215 594 82 465 b 357 -12 82 103 206 -12 z m 204 289 b 408 500 204 408 279 500 b 583 417 454 500 510 485 l 583 197 b 388 86 497 111 446 86 b 204 289 288 86 204 164 z "},"é":{"ha":853,"x_min":0,"x_max":0,"o":"m 319 822 l 364 758 l 669 961 l 611 1042 z m 496 88 b 222 281 317 93 235 151 l 746 281 b 750 331 749 293 750 310 b 440 667 750 551 628 667 b 104 313 246 667 104 518 b 461 -7 104 113 211 -3 l 625 -10 l 629 83 z m 440 572 b 632 369 549 572 622 511 l 225 369 b 440 572 243 500 332 572 z "},"è":{"ha":853,"x_min":0,"x_max":0,"o":"m 565 821 l 272 1040 l 214 960 l 519 758 z m 496 88 b 222 281 317 93 235 151 l 746 281 b 750 331 749 293 750 310 b 440 667 750 551 628 667 b 104 313 246 667 104 518 b 461 -7 104 113 211 -3 l 625 -10 l 629 83 z m 440 572 b 632 369 549 572 622 511 l 225 369 b 440 572 243 500 332 572 z "},"ê":{"ha":853,"x_min":0,"x_max":0,"o":"m 185 803 l 235 750 l 442 933 l 649 750 l 699 803 l 472 1035 l 411 1035 z m 496 88 b 222 281 317 93 235 151 l 746 281 b 750 331 749 293 750 310 b 440 667 750 551 628 667 b 104 313 246 667 104 518 b 461 -7 104 113 211 -3 l 625 -10 l 629 83 z m 440 572 b 632 369 549 572 622 511 l 225 369 b 440 572 243 500 332 572 z "},"ệ":{"ha":853,"x_min":0,"x_max":0,"o":"m 185 803 l 235 750 l 442 933 l 649 750 l 699 803 l 472 1035 l 411 1035 z m 496 88 b 222 281 317 93 235 151 l 746 281 b 750 331 749 293 750 310 b 440 667 750 551 628 667 b 104 313 246 667 104 518 b 461 -7 104 113 211 -3 l 625 -10 l 629 83 z m 440 572 b 632 369 549 572 622 511 l 225 369 b 440 572 243 500 332 572 z m 442 -300 b 529 -219 496 -300 529 -272 b 443 -136 529 -165 500 -136 b 358 -219 390 -136 358 -169 b 442 -300 358 -272 389 -300 z "},"ế":{"ha":853,"x_min":0,"x_max":0,"o":"m 574 1047 l 615 988 l 835 1124 l 779 1201 z m 185 803 l 235 750 l 442 917 l 649 750 l 699 803 l 472 1017 l 411 1017 z m 496 88 b 222 281 317 93 235 151 l 746 281 b 750 331 749 293 750 310 b 440 667 750 551 628 667 b 104 313 246 667 104 518 b 461 -7 104 113 211 -3 l 625 -10 l 629 83 z m 440 572 b 632 369 549 572 622 511 l 225 369 b 440 572 243 500 332 572 z "},"ề":{"ha":853,"x_min":0,"x_max":0,"o":"m 750 1038 l 551 1204 l 490 1129 l 704 981 z m 185 803 l 235 750 l 442 917 l 649 750 l 699 803 l 472 1017 l 411 1017 z m 496 88 b 222 281 317 93 235 151 l 746 281 b 750 331 749 293 750 310 b 440 667 750 551 628 667 b 104 313 246 667 104 518 b 461 -7 104 113 211 -3 l 625 -10 l 629 83 z m 440 572 b 632 369 549 572 622 511 l 225 369 b 440 572 243 500 332 572 z "},"ể":{"ha":853,"x_min":0,"x_max":0,"o":"m 596 989 b 851 1135 799 1019 851 1082 b 593 1263 851 1196 807 1229 l 539 1200 l 539 1196 b 743 1125 718 1169 743 1151 b 569 1047 743 1096 710 1076 l 569 1044 z m 185 803 l 235 750 l 442 917 l 649 750 l 699 803 l 472 1017 l 411 1017 z m 496 88 b 222 281 317 93 235 151 l 746 281 b 750 331 749 293 750 310 b 440 667 750 551 628 667 b 104 313 246 667 104 518 b 461 -7 104 113 211 -3 l 625 -10 l 629 83 z m 440 572 b 632 369 549 572 622 511 l 225 369 b 440 572 243 500 332 572 z "},"ễ":{"ha":853,"x_min":0,"x_max":0,"o":"m 463 1199 b 344 1268 394 1256 374 1268 b 189 1068 289 1268 250 1235 l 264 1043 b 349 1176 313 1167 329 1176 b 432 1122 365 1176 378 1168 b 551 1053 501 1065 522 1053 b 707 1253 607 1053 646 1086 l 632 1278 b 547 1144 583 1154 567 1144 b 463 1199 531 1144 518 1153 z m 185 803 l 235 750 l 442 917 l 649 750 l 699 803 l 472 1017 l 411 1017 z m 496 88 b 222 281 317 93 235 151 l 746 281 b 750 331 749 293 750 310 b 440 667 750 551 628 667 b 104 313 246 667 104 518 b 461 -7 104 113 211 -3 l 625 -10 l 629 83 z m 440 572 b 632 369 549 572 622 511 l 225 369 b 440 572 243 500 332 572 z "},"ě":{"ha":853,"x_min":0,"x_max":0,"o":"m 699 990 l 649 1043 l 442 860 l 235 1043 l 185 990 l 411 758 l 472 758 z m 496 88 b 222 281 317 93 235 151 l 746 281 b 750 331 749 293 750 310 b 440 667 750 551 628 667 b 104 313 246 667 104 518 b 461 -7 104 113 211 -3 l 625 -10 l 629 83 z m 440 572 b 632 369 549 572 622 511 l 225 369 b 440 572 243 500 332 572 z "},"ĕ":{"ha":853,"x_min":0,"x_max":0,"o":"m 442 847 b 261 1032 360 847 307 900 l 185 1007 b 442 758 232 831 314 758 b 699 1007 569 758 651 831 l 622 1032 b 442 847 578 901 524 847 z m 496 88 b 222 281 317 93 235 151 l 746 281 b 750 331 749 293 750 310 b 440 667 750 551 628 667 b 104 313 246 667 104 518 b 461 -7 104 113 211 -3 l 625 -10 l 629 83 z m 440 572 b 632 369 549 572 622 511 l 225 369 b 440 572 243 500 332 572 z "},"ẽ":{"ha":853,"x_min":0,"x_max":0,"o":"m 414 856 b 556 758 492 774 524 758 b 719 1001 608 758 647 789 l 643 1029 b 553 857 589 875 574 857 b 465 929 538 857 525 867 b 324 1026 388 1011 356 1026 b 160 783 271 1026 232 997 l 236 756 b 326 929 292 911 306 929 b 414 856 342 929 354 919 z m 496 88 b 222 281 317 93 235 151 l 746 281 b 750 331 749 293 750 310 b 440 667 750 551 628 667 b 104 313 246 667 104 518 b 461 -7 104 113 211 -3 l 625 -10 l 629 83 z m 440 572 b 632 369 549 572 622 511 l 225 369 b 440 572 243 500 332 572 z "},"ē":{"ha":853,"x_min":0,"x_max":0,"o":"m 211 814 l 672 814 l 672 904 l 211 904 z m 496 88 b 222 281 317 93 235 151 l 746 281 b 750 331 749 293 750 310 b 440 667 750 551 628 667 b 104 313 246 667 104 518 b 461 -7 104 113 211 -3 l 625 -10 l 629 83 z m 440 572 b 632 369 549 572 622 511 l 225 369 b 440 572 243 500 332 572 z "},"ë":{"ha":853,"x_min":0,"x_max":0,"o":"m 278 786 b 361 864 329 786 361 814 b 279 943 361 915 332 943 b 197 864 229 943 197 911 b 278 786 197 814 228 786 z m 603 786 b 686 864 654 786 686 814 b 604 943 686 915 657 943 b 524 864 554 943 524 911 b 603 786 524 814 553 786 z m 496 88 b 222 281 317 93 235 151 l 746 281 b 750 331 749 293 750 310 b 440 667 750 551 628 667 b 104 313 246 667 104 518 b 461 -7 104 113 211 -3 l 625 -10 l 629 83 z m 440 572 b 632 369 549 572 622 511 l 225 369 b 440 572 243 500 332 572 z "},"ė":{"ha":853,"x_min":0,"x_max":0,"o":"m 440 786 b 528 868 494 786 528 814 b 442 951 528 921 499 951 b 357 868 389 951 357 917 b 440 786 357 814 388 786 z m 496 88 b 222 281 317 93 235 151 l 746 281 b 750 331 749 293 750 310 b 440 667 750 551 628 667 b 104 313 246 667 104 518 b 461 -7 104 113 211 -3 l 625 -10 l 629 83 z m 440 572 b 632 369 549 572 622 511 l 225 369 b 440 572 243 500 332 572 z "},"ẻ":{"ha":853,"x_min":0,"x_max":0,"o":"m 314 758 b 592 918 535 779 592 858 b 333 1065 592 986 547 1035 l 281 1001 l 281 997 b 483 908 460 969 483 940 b 288 817 483 874 447 839 l 288 814 z m 496 88 b 222 281 317 93 235 151 l 746 281 b 750 331 749 293 750 310 b 440 667 750 551 628 667 b 104 313 246 667 104 518 b 461 -7 104 113 211 -3 l 625 -10 l 629 83 z m 440 572 b 632 369 549 572 622 511 l 225 369 b 440 572 243 500 332 572 z "},"ẹ":{"ha":853,"x_min":0,"x_max":0,"o":"m 496 88 b 222 281 317 93 235 151 l 746 281 b 750 331 749 293 750 310 b 440 667 750 551 628 667 b 104 313 246 667 104 518 b 461 -7 104 113 211 -3 l 625 -10 l 629 83 z m 440 572 b 632 369 549 572 622 511 l 225 369 b 440 572 243 500 332 572 z m 442 -300 b 529 -219 496 -300 529 -272 b 443 -136 529 -165 500 -136 b 358 -219 390 -136 358 -169 b 442 -300 358 -272 389 -300 z "},"ę":{"ha":853,"x_min":0,"x_max":0,"o":"m 415 -215 b 542 -319 415 -281 450 -314 l 674 -326 l 682 -244 l 576 -239 b 513 -179 526 -236 513 -215 b 625 -10 513 -153 526 -118 l 629 83 l 496 88 b 222 281 317 93 235 151 l 746 281 b 750 331 749 293 750 310 b 440 667 750 551 628 667 b 104 313 246 667 104 518 b 461 -7 104 113 211 -3 l 550 -8 b 415 -215 433 -126 415 -178 z m 440 572 b 632 369 549 572 622 511 l 225 369 b 440 572 243 500 332 572 z "},"ĝ":{"ha":853,"x_min":0,"x_max":0,"o":"m 168 800 l 218 747 l 425 931 l 632 747 l 682 800 l 456 1032 l 394 1032 z m 82 333 b 368 21 82 142 213 21 b 607 135 457 21 526 50 l 607 -17 b 415 -218 607 -151 556 -210 l 188 -231 l 192 -332 l 431 -319 b 725 -12 646 -308 725 -218 l 725 651 l 693 651 l 626 610 b 431 660 564 644 499 660 b 82 333 224 660 82 514 z m 204 336 b 447 560 204 451 288 560 b 607 507 497 560 549 544 l 607 232 b 403 119 519 143 464 119 b 204 336 296 119 204 203 z "},"ǧ":{"ha":853,"x_min":0,"x_max":0,"o":"m 682 986 l 632 1039 l 425 856 l 218 1039 l 168 986 l 394 754 l 456 754 z m 82 333 b 368 21 82 142 213 21 b 607 135 457 21 526 50 l 607 -17 b 415 -218 607 -151 556 -210 l 188 -231 l 192 -332 l 431 -319 b 725 -12 646 -308 725 -218 l 725 651 l 693 651 l 626 610 b 431 660 564 644 499 660 b 82 333 224 660 82 514 z m 204 336 b 447 560 204 451 288 560 b 607 507 497 560 549 544 l 607 232 b 403 119 519 143 464 119 b 204 336 296 119 204 203 z "},"ğ":{"ha":853,"x_min":0,"x_max":0,"o":"m 425 843 b 244 1028 343 843 290 896 l 168 1003 b 425 754 215 826 297 754 b 682 1003 553 754 635 826 l 606 1028 b 425 843 561 897 507 843 z m 82 333 b 368 21 82 142 213 21 b 607 135 457 21 526 50 l 607 -17 b 415 -218 607 -151 556 -210 l 188 -231 l 192 -332 l 431 -319 b 725 -12 646 -308 725 -218 l 725 651 l 693 651 l 626 610 b 431 660 564 644 499 660 b 82 333 224 660 82 514 z m 204 336 b 447 560 204 451 288 560 b 607 507 497 560 549 544 l 607 232 b 403 119 519 143 464 119 b 204 336 296 119 204 203 z "},"ḡ":{"ha":853,"x_min":0,"x_max":0,"o":"m 194 810 l 656 810 l 656 900 l 194 900 z m 82 333 b 368 21 82 142 213 21 b 607 135 457 21 526 50 l 607 -17 b 415 -218 607 -151 556 -210 l 188 -231 l 192 -332 l 431 -319 b 725 -12 646 -308 725 -218 l 725 651 l 693 651 l 626 610 b 431 660 564 644 499 660 b 82 333 224 660 82 514 z m 204 336 b 447 560 204 451 288 560 b 607 507 497 560 549 544 l 607 232 b 403 119 519 143 464 119 b 204 336 296 119 204 203 z "},"ġ":{"ha":853,"x_min":0,"x_max":0,"o":"m 424 782 b 511 864 478 782 511 810 b 425 947 511 917 482 947 b 340 864 372 947 340 913 b 424 782 340 810 371 782 z m 82 333 b 368 21 82 142 213 21 b 607 135 457 21 526 50 l 607 -17 b 415 -218 607 -151 556 -210 l 188 -231 l 192 -332 l 431 -319 b 725 -12 646 -308 725 -218 l 725 651 l 693 651 l 626 610 b 431 660 564 644 499 660 b 82 333 224 660 82 514 z m 204 336 b 447 560 204 451 288 560 b 607 507 497 560 549 544 l 607 232 b 403 119 519 143 464 119 b 204 336 296 119 204 203 z "},"ģ":{"ha":853,"x_min":0,"x_max":0,"o":"m 549 1061 b 271 903 328 1042 271 961 b 529 754 271 833 315 785 l 583 818 l 583 822 b 379 913 404 850 379 879 b 575 1003 379 947 415 981 l 575 1006 z m 82 333 b 368 21 82 142 213 21 b 607 135 457 21 526 50 l 607 -17 b 415 -218 607 -151 556 -210 l 188 -231 l 192 -332 l 431 -319 b 725 -12 646 -308 725 -218 l 725 651 l 693 651 l 626 610 b 431 660 564 644 499 660 b 82 333 224 660 82 514 z m 204 336 b 447 560 204 451 288 560 b 607 507 497 560 549 544 l 607 232 b 403 119 519 143 464 119 b 204 336 296 119 204 203 z "},"ĥ":{"ha":853,"x_min":0,"x_max":0,"o":"m -64 1092 l -14 1039 l 193 1222 l 400 1039 l 450 1092 l 224 1324 l 163 1324 z m 251 986 l 132 986 l 132 0 l 251 0 l 251 397 b 496 547 374 513 433 547 b 606 429 574 547 606 508 l 606 0 l 725 0 l 725 450 b 529 656 725 576 661 656 b 251 507 440 656 368 617 z "},"ḫ":{"ha":853,"x_min":0,"x_max":0,"o":"m 251 986 l 132 986 l 132 0 l 251 0 l 251 397 b 496 547 374 513 433 547 b 606 429 574 547 606 508 l 606 0 l 725 0 l 725 450 b 529 656 725 576 661 656 b 251 507 440 656 368 617 z m 435 -290 b 254 -106 353 -290 300 -236 l 178 -131 b 435 -378 225 -307 307 -378 b 692 -131 563 -378 644 -307 l 615 -106 b 435 -290 571 -236 517 -290 z "},"ẖ":{"ha":853,"x_min":0,"x_max":0,"o":"m 251 986 l 132 986 l 132 0 l 251 0 l 251 397 b 496 547 374 513 433 547 b 606 429 574 547 606 508 l 606 0 l 725 0 l 725 450 b 529 656 725 576 661 656 b 251 507 440 656 368 617 z m 204 -251 l 665 -251 l 665 -161 l 204 -161 z "},"ḥ":{"ha":853,"x_min":0,"x_max":0,"o":"m 251 986 l 132 986 l 132 0 l 251 0 l 251 397 b 496 547 374 513 433 547 b 606 429 574 547 606 508 l 606 0 l 725 0 l 725 450 b 529 656 725 576 661 656 b 251 507 440 656 368 617 z m 433 -297 b 521 -217 488 -297 521 -269 b 435 -133 521 -162 492 -133 b 350 -217 382 -133 350 -167 b 433 -297 350 -269 381 -297 z "},"ḩ":{"ha":853,"x_min":0,"x_max":0,"o":"m 251 986 l 132 986 l 132 0 l 158 0 l 111 -133 l 119 -147 b 313 -208 289 -153 313 -175 b 35 -292 313 -244 285 -271 l 57 -368 b 410 -206 379 -340 410 -281 b 199 -82 410 -142 374 -100 l 226 0 l 251 0 l 251 397 b 496 547 374 513 433 547 b 606 429 574 547 606 508 l 606 0 l 725 0 l 725 450 b 529 656 725 576 661 656 b 251 507 440 656 368 617 z "},"ħ":{"ha":853,"x_min":0,"x_max":0,"o":"m 519 735 l 519 814 l 272 814 l 272 986 l 153 986 l 153 814 l 38 814 l 38 735 l 153 735 l 153 0 l 272 0 l 272 335 b 496 486 389 446 438 486 b 606 368 574 486 606 447 l 606 0 l 725 0 l 725 389 b 529 594 725 515 661 594 b 272 446 444 594 385 554 l 272 735 z "},"ı":{"ha":853,"x_min":0,"x_max":0,"o":"m 158 100 l 158 0 l 738 0 l 738 100 l 507 100 l 507 646 l 186 646 l 186 546 l 388 546 l 388 100 z "},"í":{"ha":853,"x_min":0,"x_max":0,"o":"m 319 815 l 364 751 l 669 954 l 611 1035 z m 158 100 l 158 0 l 738 0 l 738 100 l 507 100 l 507 646 l 186 646 l 186 546 l 388 546 l 388 100 z "},"ì":{"ha":853,"x_min":0,"x_max":0,"o":"m 565 814 l 272 1033 l 214 953 l 519 751 z m 158 100 l 158 0 l 738 0 l 738 100 l 507 100 l 507 646 l 186 646 l 186 546 l 388 546 l 388 100 z "},"î":{"ha":853,"x_min":0,"x_max":0,"o":"m 185 804 l 235 751 l 442 935 l 649 751 l 699 804 l 472 1036 l 411 1036 z m 158 100 l 158 0 l 738 0 l 738 100 l 507 100 l 507 646 l 186 646 l 186 546 l 388 546 l 388 100 z "},"ǐ":{"ha":853,"x_min":0,"x_max":0,"o":"m 699 983 l 649 1036 l 442 853 l 235 1036 l 185 983 l 411 751 l 472 751 z m 158 100 l 158 0 l 738 0 l 738 100 l 507 100 l 507 646 l 186 646 l 186 546 l 388 546 l 388 100 z "},"ĭ":{"ha":853,"x_min":0,"x_max":0,"o":"m 442 840 b 261 1025 360 840 307 893 l 185 1000 b 442 751 232 824 314 751 b 699 1000 569 751 651 824 l 622 1025 b 442 840 578 894 524 840 z m 158 100 l 158 0 l 738 0 l 738 100 l 507 100 l 507 646 l 186 646 l 186 546 l 388 546 l 388 100 z "},"ĩ":{"ha":853,"x_min":0,"x_max":0,"o":"m 414 849 b 556 751 492 767 524 751 b 719 994 608 751 647 782 l 643 1022 b 553 850 589 868 574 850 b 465 922 538 850 525 860 b 324 1019 388 1004 356 1019 b 160 776 271 1019 232 990 l 236 749 b 326 922 292 904 306 922 b 414 849 342 922 354 913 z m 158 100 l 158 0 l 738 0 l 738 100 l 507 100 l 507 646 l 186 646 l 186 546 l 388 546 l 388 100 z "},"ī":{"ha":853,"x_min":0,"x_max":0,"o":"m 211 807 l 672 807 l 672 897 l 211 897 z m 158 100 l 158 0 l 738 0 l 738 100 l 507 100 l 507 646 l 186 646 l 186 546 l 388 546 l 388 100 z "},"ï":{"ha":853,"x_min":0,"x_max":0,"o":"m 278 779 b 361 857 329 779 361 807 b 279 936 361 908 332 936 b 197 857 229 936 197 904 b 278 779 197 807 228 779 z m 603 779 b 686 857 654 779 686 807 b 604 936 686 908 657 936 b 524 857 554 936 524 904 b 603 779 524 807 553 779 z m 158 100 l 158 0 l 738 0 l 738 100 l 507 100 l 507 646 l 186 646 l 186 546 l 388 546 l 388 100 z "},"ỉ":{"ha":853,"x_min":0,"x_max":0,"o":"m 314 751 b 592 911 535 772 592 851 b 333 1058 592 979 547 1028 l 281 994 l 281 990 b 483 901 460 963 483 933 b 288 810 483 867 447 832 l 288 807 z m 158 100 l 158 0 l 738 0 l 738 100 l 507 100 l 507 646 l 186 646 l 186 546 l 388 546 l 388 100 z "},"ị":{"ha":853,"x_min":0,"x_max":0,"o":"m 431 838 b 535 924 494 838 535 869 b 433 1014 535 982 500 1014 b 329 926 368 1014 329 976 b 431 838 329 868 371 838 z m 158 100 l 158 0 l 738 0 l 738 100 l 507 100 l 507 646 l 186 646 l 186 546 l 388 546 l 388 100 z m 444 -297 b 532 -217 499 -297 532 -269 b 446 -133 532 -162 503 -133 b 361 -217 393 -133 361 -167 b 444 -297 361 -269 392 -297 z "},"į":{"ha":853,"x_min":0,"x_max":0,"o":"m 431 838 b 535 924 494 838 535 869 b 433 1014 535 982 500 1014 b 329 926 368 1014 329 976 b 431 838 329 868 371 838 z m 158 100 l 158 0 l 415 0 b 297 -215 314 -126 297 -176 b 425 -319 297 -281 332 -314 l 556 -326 l 564 -244 l 458 -239 b 394 -179 408 -236 394 -215 b 483 0 394 -151 403 -110 l 738 0 l 738 100 l 507 100 l 507 646 l 186 646 l 186 546 l 388 546 l 388 100 z "},"ȷ":{"ha":853,"x_min":0,"x_max":0,"o":"m 581 -68 l 581 646 l 165 646 l 165 546 l 461 546 l 461 -69 b 317 -215 461 -169 421 -207 l 139 -228 l 143 -331 l 325 -319 b 581 -68 511 -308 581 -240 z "},"ĵ":{"ha":853,"x_min":0,"x_max":0,"o":"m 267 804 l 317 751 l 524 935 l 731 751 l 781 804 l 554 1036 l 493 1036 z m 581 -68 l 581 646 l 165 646 l 165 546 l 461 546 l 461 -69 b 317 -215 461 -169 421 -207 l 139 -228 l 143 -331 l 325 -319 b 581 -68 511 -308 581 -240 z "},"ǰ":{"ha":853,"x_min":0,"x_max":0,"o":"m 781 983 l 731 1036 l 524 853 l 317 1036 l 267 983 l 493 751 l 554 751 z m 581 -68 l 581 646 l 165 646 l 165 546 l 461 546 l 461 -69 b 317 -215 461 -169 421 -207 l 139 -228 l 143 -331 l 325 -319 b 581 -68 511 -308 581 -240 z "},"ḵ":{"ha":853,"x_min":0,"x_max":0,"o":"m 272 986 l 154 986 l 154 0 l 272 0 l 272 318 l 610 0 l 769 0 l 769 3 l 401 340 l 768 643 l 768 646 l 615 646 l 272 357 z m 192 -251 l 653 -251 l 653 -161 l 192 -161 z "},"ķ":{"ha":853,"x_min":0,"x_max":0,"o":"m 272 986 l 154 986 l 154 0 l 272 0 l 272 318 l 610 0 l 769 0 l 769 3 l 401 340 l 768 643 l 768 646 l 615 646 l 272 357 z m 294 -412 b 572 -253 515 -392 572 -312 b 314 -106 572 -185 528 -136 l 261 -169 l 261 -174 b 464 -262 440 -201 464 -231 b 268 -354 464 -297 428 -332 l 268 -357 z "},"ḳ":{"ha":853,"x_min":0,"x_max":0,"o":"m 272 986 l 154 986 l 154 0 l 272 0 l 272 318 l 610 0 l 769 0 l 769 3 l 401 340 l 768 643 l 768 646 l 615 646 l 272 357 z m 421 -297 b 508 -217 475 -297 508 -269 b 422 -133 508 -162 479 -133 b 338 -217 369 -133 338 -167 b 421 -297 338 -269 368 -297 z "},"ĺ":{"ha":853,"x_min":0,"x_max":0,"o":"m 263 1163 l 307 1099 l 613 1301 l 554 1382 z m 336 229 b 561 0 336 65 393 10 l 726 -10 l 733 93 l 582 103 b 454 242 490 107 454 142 l 454 986 l 82 986 l 82 886 l 336 886 z "},"ľ":{"ha":853,"x_min":0,"x_max":0,"o":"m 664 783 l 743 783 l 782 1094 l 664 1094 z m 336 229 b 561 0 336 65 393 10 l 726 -10 l 733 93 l 582 103 b 454 242 490 107 454 142 l 454 986 l 82 986 l 82 886 l 336 886 z "},"ļ":{"ha":853,"x_min":0,"x_max":0,"o":"m 336 229 b 561 0 336 65 393 10 l 726 -10 l 733 93 l 582 103 b 454 242 490 107 454 142 l 454 986 l 82 986 l 82 886 l 336 886 z m 293 -412 b 571 -253 514 -392 571 -312 b 313 -106 571 -185 526 -136 l 260 -169 l 260 -174 b 463 -262 439 -201 463 -231 b 267 -354 463 -297 426 -332 l 267 -357 z "},"ḽ":{"ha":853,"x_min":0,"x_max":0,"o":"m 336 229 b 561 0 336 65 393 10 l 726 -10 l 733 93 l 582 103 b 454 242 490 107 454 142 l 454 986 l 82 986 l 82 886 l 336 886 z m 164 -337 l 214 -390 l 421 -207 l 628 -390 l 678 -337 l 451 -106 l 390 -106 z "},"ḻ":{"ha":853,"x_min":0,"x_max":0,"o":"m 336 229 b 561 0 336 65 393 10 l 726 -10 l 733 93 l 582 103 b 454 242 490 107 454 142 l 454 986 l 82 986 l 82 886 l 336 886 z m 190 -251 l 651 -251 l 651 -161 l 190 -161 z "},"ḹ":{"ha":853,"x_min":0,"x_max":0,"o":"m 154 1154 l 615 1154 l 615 1244 l 154 1244 z m 336 229 b 561 0 336 65 393 10 l 726 -10 l 733 93 l 582 103 b 454 242 490 107 454 142 l 454 986 l 82 986 l 82 886 l 336 886 z m 419 -297 b 507 -217 474 -297 507 -269 b 421 -133 507 -162 478 -133 b 336 -217 368 -133 336 -167 b 419 -297 336 -269 367 -297 z "},"ḷ":{"ha":853,"x_min":0,"x_max":0,"o":"m 336 229 b 561 0 336 65 393 10 l 726 -10 l 733 93 l 582 103 b 454 242 490 107 454 142 l 454 986 l 82 986 l 82 886 l 336 886 z m 419 -297 b 507 -217 474 -297 507 -269 b 421 -133 507 -162 478 -133 b 336 -217 368 -133 336 -167 b 419 -297 336 -269 367 -297 z "},"ŀ":{"ha":853,"x_min":0,"x_max":0,"o":"m 336 229 b 561 0 336 65 393 10 l 726 -10 l 733 93 l 582 103 b 454 242 490 107 454 142 l 454 986 l 82 986 l 82 886 l 336 886 z m 840 386 b 944 499 904 386 944 426 b 840 611 944 571 910 611 b 736 497 775 611 736 568 b 840 386 736 426 771 386 z "},"ł":{"ha":853,"x_min":0,"x_max":0,"o":"m 131 332 l 336 444 l 336 229 b 561 0 336 65 393 10 l 726 -10 l 733 93 l 582 103 b 454 242 490 107 454 142 l 454 492 l 681 617 l 681 714 l 454 589 l 454 986 l 82 986 l 82 886 l 336 886 l 336 542 l 131 429 z "},"ḿ":{"ha":853,"x_min":0,"x_max":0,"o":"m 307 815 l 351 751 l 657 954 l 599 1035 z m 163 646 l 74 646 l 74 0 l 182 0 l 182 414 b 333 538 267 517 301 538 b 375 493 363 538 375 524 l 375 0 l 481 0 l 481 415 b 631 538 565 517 600 538 b 672 492 660 538 672 525 l 672 0 l 782 0 l 782 526 b 678 651 782 617 746 651 b 490 508 619 651 564 619 l 479 508 l 479 532 b 378 653 479 619 443 653 b 185 503 322 653 263 619 l 175 503 z "},"ṁ":{"ha":853,"x_min":0,"x_max":0,"o":"m 428 779 b 515 861 482 779 515 807 b 429 944 515 914 486 944 b 344 861 376 944 344 910 b 428 779 344 807 375 779 z m 163 646 l 74 646 l 74 0 l 182 0 l 182 414 b 333 538 267 517 301 538 b 375 493 363 538 375 524 l 375 0 l 481 0 l 481 415 b 631 538 565 517 600 538 b 672 492 660 538 672 525 l 672 0 l 782 0 l 782 526 b 678 651 782 617 746 651 b 490 508 619 651 564 619 l 479 508 l 479 532 b 378 653 479 619 443 653 b 185 503 322 653 263 619 l 175 503 z "},"ṃ":{"ha":853,"x_min":0,"x_max":0,"o":"m 163 646 l 74 646 l 74 0 l 182 0 l 182 414 b 333 538 267 517 301 538 b 375 493 363 538 375 524 l 375 0 l 481 0 l 481 415 b 631 538 565 517 600 538 b 672 492 660 538 672 525 l 672 0 l 782 0 l 782 526 b 678 651 782 617 746 651 b 490 508 619 651 564 619 l 479 508 l 479 532 b 378 653 479 619 443 653 b 185 503 322 653 263 619 l 175 503 z m 428 -297 b 515 -217 482 -297 515 -269 b 429 -133 515 -162 486 -133 b 344 -217 376 -133 344 -167 b 428 -297 344 -269 375 -297 z "},"ń":{"ha":853,"x_min":0,"x_max":0,"o":"m 304 815 l 349 751 l 654 954 l 596 1035 z m 233 646 l 132 646 l 132 0 l 251 0 l 251 397 b 496 547 374 513 433 547 b 606 429 574 547 606 508 l 606 0 l 725 0 l 725 450 b 529 656 725 576 661 656 b 246 501 439 656 367 617 z "},"ǹ":{"ha":853,"x_min":0,"x_max":0,"o":"m 550 814 l 257 1033 l 199 953 l 504 751 z m 233 646 l 132 646 l 132 0 l 251 0 l 251 397 b 496 547 374 513 433 547 b 606 429 574 547 606 508 l 606 0 l 725 0 l 725 450 b 529 656 725 576 661 656 b 246 501 439 656 367 617 z "},"ň":{"ha":853,"x_min":0,"x_max":0,"o":"m 683 983 l 633 1036 l 426 853 l 219 1036 l 169 983 l 396 751 l 457 751 z m 233 646 l 132 646 l 132 0 l 251 0 l 251 397 b 496 547 374 513 433 547 b 606 429 574 547 606 508 l 606 0 l 725 0 l 725 450 b 529 656 725 576 661 656 b 246 501 439 656 367 617 z "},"ñ":{"ha":853,"x_min":0,"x_max":0,"o":"m 399 849 b 540 751 476 767 508 751 b 704 994 593 751 632 782 l 628 1022 b 538 850 574 868 558 850 b 450 922 522 850 510 860 b 308 1019 372 1004 340 1019 b 144 776 256 1019 217 990 l 221 749 b 311 922 276 904 290 922 b 399 849 326 922 339 913 z m 233 646 l 132 646 l 132 0 l 251 0 l 251 397 b 496 547 374 513 433 547 b 606 429 574 547 606 508 l 606 0 l 725 0 l 725 450 b 529 656 725 576 661 656 b 246 501 439 656 367 617 z "},"ṅ":{"ha":853,"x_min":0,"x_max":0,"o":"m 425 779 b 513 861 479 779 513 807 b 426 944 513 914 483 944 b 342 861 374 944 342 910 b 425 779 342 807 372 779 z m 233 646 l 132 646 l 132 0 l 251 0 l 251 397 b 496 547 374 513 433 547 b 606 429 574 547 606 508 l 606 0 l 725 0 l 725 450 b 529 656 725 576 661 656 b 246 501 439 656 367 617 z "},"ṋ":{"ha":853,"x_min":0,"x_max":0,"o":"m 233 646 l 132 646 l 132 0 l 251 0 l 251 397 b 496 547 374 513 433 547 b 606 429 574 547 606 508 l 606 0 l 725 0 l 725 450 b 529 656 725 576 661 656 b 246 501 439 656 367 617 z m 178 -337 l 228 -390 l 435 -207 l 642 -390 l 692 -337 l 465 -106 l 404 -106 z "},"ņ":{"ha":853,"x_min":0,"x_max":0,"o":"m 233 646 l 132 646 l 132 0 l 251 0 l 251 397 b 496 547 374 513 433 547 b 606 429 574 547 606 508 l 606 0 l 725 0 l 725 450 b 529 656 725 576 661 656 b 246 501 439 656 367 617 z m 307 -412 b 585 -253 528 -392 585 -312 b 326 -106 585 -185 540 -136 l 274 -169 l 274 -174 b 476 -262 453 -201 476 -231 b 281 -354 476 -297 440 -332 l 281 -357 z "},"ṇ":{"ha":853,"x_min":0,"x_max":0,"o":"m 233 646 l 132 646 l 132 0 l 251 0 l 251 397 b 496 547 374 513 433 547 b 606 429 574 547 606 508 l 606 0 l 725 0 l 725 450 b 529 656 725 576 661 656 b 246 501 439 656 367 617 z m 433 -297 b 521 -217 488 -297 521 -269 b 435 -133 521 -162 492 -133 b 350 -217 382 -133 350 -167 b 433 -297 350 -269 381 -297 z "},"ṉ":{"ha":853,"x_min":0,"x_max":0,"o":"m 233 646 l 132 646 l 132 0 l 251 0 l 251 397 b 496 547 374 513 433 547 b 606 429 574 547 606 508 l 606 0 l 725 0 l 725 450 b 529 656 725 576 661 656 b 246 501 439 656 367 617 z m 204 -251 l 665 -251 l 665 -161 l 204 -161 z "},"ŋ":{"ha":853,"x_min":0,"x_max":0,"o":"m 233 646 l 132 646 l 132 0 l 251 0 l 251 397 b 496 547 374 513 433 547 b 606 429 574 547 606 508 l 606 -78 b 471 -215 606 -171 568 -208 l 300 -228 l 306 -331 l 478 -319 b 725 -76 657 -308 725 -243 l 725 450 b 529 656 725 576 661 656 b 246 501 439 656 367 615 z "},"ó":{"ha":853,"x_min":0,"x_max":0,"o":"m 304 822 l 349 758 l 654 961 l 596 1042 z m 424 -21 b 764 321 624 -21 764 118 b 429 667 764 526 625 667 b 89 325 229 667 89 524 b 424 -21 89 117 228 -21 z m 426 79 b 210 324 297 79 210 171 b 426 568 210 475 299 568 b 643 322 556 568 643 469 b 426 79 643 167 556 79 z "},"ő":{"ha":853,"x_min":0,"x_max":0,"o":"m 189 804 l 247 758 l 419 976 l 329 1033 z m 506 804 l 564 758 l 736 976 l 646 1033 z m 424 -21 b 764 321 624 -21 764 118 b 429 667 764 526 625 667 b 89 325 229 667 89 524 b 424 -21 89 117 228 -21 z m 426 79 b 210 324 297 79 210 171 b 426 568 210 475 299 568 b 643 322 556 568 643 469 b 426 79 643 167 556 79 z "},"ò":{"ha":853,"x_min":0,"x_max":0,"o":"m 550 821 l 257 1040 l 199 960 l 504 758 z m 424 -21 b 764 321 624 -21 764 118 b 429 667 764 526 625 667 b 89 325 229 667 89 524 b 424 -21 89 117 228 -21 z m 426 79 b 210 324 297 79 210 171 b 426 568 210 475 299 568 b 643 322 556 568 643 469 b 426 79 643 167 556 79 z "},"ô":{"ha":853,"x_min":0,"x_max":0,"o":"m 169 804 l 219 751 l 426 935 l 633 751 l 683 804 l 457 1036 l 396 1036 z m 424 -21 b 764 321 624 -21 764 118 b 429 667 764 526 625 667 b 89 325 229 667 89 524 b 424 -21 89 117 228 -21 z m 426 79 b 210 324 297 79 210 171 b 426 568 210 475 299 568 b 643 322 556 568 643 469 b 426 79 643 167 556 79 z "},"ộ":{"ha":853,"x_min":0,"x_max":0,"o":"m 169 804 l 219 751 l 426 935 l 633 751 l 683 804 l 457 1036 l 396 1036 z m 424 -21 b 764 321 624 -21 764 118 b 429 667 764 526 625 667 b 89 325 229 667 89 524 b 424 -21 89 117 228 -21 z m 426 79 b 210 324 297 79 210 171 b 426 568 210 475 299 568 b 643 322 556 568 643 469 b 426 79 643 167 556 79 z m 425 -304 b 513 -224 479 -304 513 -276 b 426 -140 513 -169 483 -140 b 342 -224 374 -140 342 -174 b 425 -304 342 -276 372 -304 z "},"ố":{"ha":853,"x_min":0,"x_max":0,"o":"m 558 1049 l 600 989 l 819 1125 l 764 1203 z m 169 804 l 219 751 l 426 918 l 633 751 l 683 804 l 457 1018 l 396 1018 z m 424 -21 b 764 321 624 -21 764 118 b 429 667 764 526 625 667 b 89 325 229 667 89 524 b 424 -21 89 117 228 -21 z m 426 79 b 210 324 297 79 210 171 b 426 568 210 475 299 568 b 643 322 556 568 643 469 b 426 79 643 167 556 79 z "},"ồ":{"ha":853,"x_min":0,"x_max":0,"o":"m 735 1039 l 536 1206 l 475 1131 l 689 982 z m 169 804 l 219 751 l 426 918 l 633 751 l 683 804 l 457 1018 l 396 1018 z m 424 -21 b 764 321 624 -21 764 118 b 429 667 764 526 625 667 b 89 325 229 667 89 524 b 424 -21 89 117 228 -21 z m 426 79 b 210 324 297 79 210 171 b 426 568 210 475 299 568 b 643 322 556 568 643 469 b 426 79 643 167 556 79 z "},"ổ":{"ha":853,"x_min":0,"x_max":0,"o":"m 581 990 b 836 1136 783 1021 836 1083 b 578 1264 836 1197 792 1231 l 524 1201 l 524 1197 b 728 1126 703 1171 728 1153 b 554 1049 728 1097 694 1078 l 554 1046 z m 169 804 l 219 751 l 426 918 l 633 751 l 683 804 l 457 1018 l 396 1018 z m 424 -21 b 764 321 624 -21 764 118 b 429 667 764 526 625 667 b 89 325 229 667 89 524 b 424 -21 89 117 228 -21 z m 426 79 b 210 324 297 79 210 171 b 426 568 210 475 299 568 b 643 322 556 568 643 469 b 426 79 643 167 556 79 z "},"ỗ":{"ha":853,"x_min":0,"x_max":0,"o":"m 447 1200 b 329 1269 379 1257 358 1269 b 174 1069 274 1269 235 1236 l 249 1044 b 333 1178 297 1168 314 1178 b 417 1124 350 1178 363 1169 b 536 1054 486 1067 507 1054 b 692 1254 592 1054 631 1088 l 617 1279 b 532 1146 568 1156 551 1146 b 447 1200 515 1146 503 1154 z m 169 804 l 219 751 l 426 918 l 633 751 l 683 804 l 457 1018 l 396 1018 z m 424 -21 b 764 321 624 -21 764 118 b 429 667 764 526 625 667 b 89 325 229 667 89 524 b 424 -21 89 117 228 -21 z m 426 79 b 210 324 297 79 210 171 b 426 568 210 475 299 568 b 643 322 556 568 643 469 b 426 79 643 167 556 79 z "},"ǒ":{"ha":853,"x_min":0,"x_max":0,"o":"m 683 990 l 633 1043 l 426 860 l 219 1043 l 169 990 l 396 758 l 457 758 z m 424 -21 b 764 321 624 -21 764 118 b 429 667 764 526 625 667 b 89 325 229 667 89 524 b 424 -21 89 117 228 -21 z m 426 79 b 210 324 297 79 210 171 b 426 568 210 475 299 568 b 643 322 556 568 643 469 b 426 79 643 167 556 79 z "},"ŏ":{"ha":853,"x_min":0,"x_max":0,"o":"m 426 847 b 246 1032 344 847 292 900 l 169 1007 b 426 758 217 831 299 758 b 683 1007 554 758 636 831 l 607 1032 b 426 847 563 901 508 847 z m 424 -21 b 764 321 624 -21 764 118 b 429 667 764 526 625 667 b 89 325 229 667 89 524 b 424 -21 89 117 228 -21 z m 426 79 b 210 324 297 79 210 171 b 426 568 210 475 299 568 b 643 322 556 568 643 469 b 426 79 643 167 556 79 z "},"õ":{"ha":853,"x_min":0,"x_max":0,"o":"m 399 856 b 540 758 476 774 508 758 b 704 1001 593 758 632 789 l 628 1029 b 538 857 574 875 558 857 b 450 929 522 857 510 867 b 308 1026 372 1011 340 1026 b 144 783 256 1026 217 997 l 221 756 b 311 929 276 911 290 929 b 399 856 326 929 339 919 z m 424 -21 b 764 321 624 -21 764 118 b 429 667 764 526 625 667 b 89 325 229 667 89 524 b 424 -21 89 117 228 -21 z m 426 79 b 210 324 297 79 210 171 b 426 568 210 475 299 568 b 643 322 556 568 643 469 b 426 79 643 167 556 79 z "},"ō":{"ha":853,"x_min":0,"x_max":0,"o":"m 196 814 l 657 814 l 657 904 l 196 904 z m 424 -21 b 764 321 624 -21 764 118 b 429 667 764 526 625 667 b 89 325 229 667 89 524 b 424 -21 89 117 228 -21 z m 426 79 b 210 324 297 79 210 171 b 426 568 210 475 299 568 b 643 322 556 568 643 469 b 426 79 643 167 556 79 z "},"ö":{"ha":853,"x_min":0,"x_max":0,"o":"m 263 786 b 346 864 314 786 346 814 b 264 943 346 915 317 943 b 182 864 214 943 182 911 b 263 786 182 814 213 786 z m 588 786 b 671 864 639 786 671 814 b 589 943 671 915 642 943 b 508 864 539 943 508 911 b 588 786 508 814 538 786 z m 424 -21 b 764 321 624 -21 764 118 b 429 667 764 526 625 667 b 89 325 229 667 89 524 b 424 -21 89 117 228 -21 z m 426 79 b 210 324 297 79 210 171 b 426 568 210 475 299 568 b 643 322 556 568 643 469 b 426 79 643 167 556 79 z "},"ȯ":{"ha":853,"x_min":0,"x_max":0,"o":"m 425 786 b 513 868 479 786 513 814 b 426 951 513 921 483 951 b 342 868 374 951 342 917 b 425 786 342 814 372 786 z m 424 -21 b 764 321 624 -21 764 118 b 429 667 764 526 625 667 b 89 325 229 667 89 524 b 424 -21 89 117 228 -21 z m 426 79 b 210 324 297 79 210 171 b 426 568 210 475 299 568 b 643 322 556 568 643 469 b 426 79 643 167 556 79 z "},"ỏ":{"ha":853,"x_min":0,"x_max":0,"o":"m 299 758 b 576 918 519 779 576 858 b 318 1065 576 986 532 1035 l 265 1001 l 265 997 b 468 908 444 969 468 940 b 272 817 468 874 432 839 l 272 814 z m 424 -21 b 764 321 624 -21 764 118 b 429 667 764 526 625 667 b 89 325 229 667 89 524 b 424 -21 89 117 228 -21 z m 426 79 b 210 324 297 79 210 171 b 426 568 210 475 299 568 b 643 322 556 568 643 469 b 426 79 643 167 556 79 z "},"ọ":{"ha":853,"x_min":0,"x_max":0,"o":"m 424 -21 b 764 321 624 -21 764 118 b 429 667 764 526 625 667 b 89 325 229 667 89 524 b 424 -21 89 117 228 -21 z m 426 79 b 210 324 297 79 210 171 b 426 568 210 475 299 568 b 643 322 556 568 643 469 b 426 79 643 167 556 79 z m 425 -304 b 513 -224 479 -304 513 -276 b 426 -140 513 -169 483 -140 b 342 -224 374 -140 342 -174 b 425 -304 342 -276 372 -304 z "},"ǫ":{"ha":853,"x_min":0,"x_max":0,"o":"m 288 -222 b 415 -326 288 -287 322 -321 l 546 -333 l 554 -251 l 449 -246 b 385 -186 399 -243 385 -222 b 464 -19 385 -160 392 -121 b 764 321 642 -1 764 132 b 429 667 764 526 625 667 b 89 325 229 667 89 524 b 396 -19 89 126 215 -7 b 288 -222 303 -137 288 -185 z m 426 79 b 210 324 297 79 210 171 b 426 568 210 475 299 568 b 643 322 556 568 643 469 b 426 79 643 167 556 79 z "},"ø":{"ha":853,"x_min":0,"x_max":0,"o":"m 764 321 b 664 568 764 418 726 506 l 803 744 l 681 744 l 594 622 b 429 667 546 650 489 667 b 89 325 229 667 89 524 b 189 78 89 226 128 140 l 50 -99 l 172 -99 l 256 25 b 424 -21 306 -4 363 -21 b 764 321 624 -21 764 122 z m 210 324 b 426 568 210 475 299 568 b 538 540 469 568 507 558 l 257 160 b 210 324 226 200 210 256 z m 643 322 b 426 79 643 172 554 79 b 315 107 383 79 347 89 l 596 488 b 643 322 626 446 643 390 z "},"œ":{"ha":853,"x_min":0,"x_max":0,"o":"m 264 -19 b 432 111 336 -19 396 29 b 628 -8 467 35 528 -7 l 710 -10 l 714 82 l 654 85 b 489 281 539 89 494 150 l 811 281 b 817 331 814 293 817 310 b 613 667 817 546 732 667 b 439 521 540 667 478 611 b 269 667 403 613 343 667 b 36 325 133 667 36 524 b 264 -19 36 117 131 -19 z m 608 574 b 704 369 660 574 699 506 l 489 369 b 608 574 500 501 549 574 z m 269 76 b 156 324 201 76 156 169 b 269 571 156 476 203 571 b 381 322 336 571 381 472 b 269 76 381 165 336 76 z "},"ơ":{"ha":853,"x_min":0,"x_max":0,"o":"m 644 575 b 817 801 753 575 810 638 l 704 801 b 576 646 699 681 678 646 l 429 646 b 89 318 229 646 89 508 b 424 -21 89 113 228 -21 b 764 310 624 -21 764 114 b 601 569 764 421 711 506 l 604 578 b 644 575 618 576 632 575 z m 426 79 b 210 317 297 79 210 168 b 426 553 210 463 299 553 b 643 317 556 553 643 458 b 426 79 643 164 556 79 z "},"ớ":{"ha":853,"x_min":0,"x_max":0,"o":"m 304 822 l 349 758 l 654 961 l 596 1042 z m 644 575 b 817 801 753 575 810 638 l 704 801 b 576 646 699 681 678 646 l 429 646 b 89 318 229 646 89 508 b 424 -21 89 113 228 -21 b 764 310 624 -21 764 114 b 601 569 764 421 711 506 l 604 578 b 644 575 618 576 632 575 z m 426 79 b 210 317 297 79 210 168 b 426 553 210 463 299 553 b 643 317 556 553 643 458 b 426 79 643 164 556 79 z "},"ờ":{"ha":853,"x_min":0,"x_max":0,"o":"m 550 821 l 257 1040 l 199 960 l 504 758 z m 644 575 b 817 801 753 575 810 638 l 704 801 b 576 646 699 681 678 646 l 429 646 b 89 318 229 646 89 508 b 424 -21 89 113 228 -21 b 764 310 624 -21 764 114 b 601 569 764 421 711 506 l 604 578 b 644 575 618 576 632 575 z m 426 79 b 210 317 297 79 210 168 b 426 553 210 463 299 553 b 643 317 556 553 643 458 b 426 79 643 164 556 79 z "},"ỡ":{"ha":853,"x_min":0,"x_max":0,"o":"m 399 856 b 540 758 476 774 508 758 b 704 1001 593 758 632 789 l 628 1029 b 538 857 574 875 558 857 b 450 929 522 857 510 867 b 308 1026 372 1011 340 1026 b 144 783 256 1026 217 997 l 221 756 b 311 929 276 911 290 929 b 399 856 326 929 339 919 z m 644 575 b 817 801 753 575 810 638 l 704 801 b 576 646 699 681 678 646 l 429 646 b 89 318 229 646 89 508 b 424 -21 89 113 228 -21 b 764 310 624 -21 764 114 b 601 569 764 421 711 506 l 604 578 b 644 575 618 576 632 575 z m 426 79 b 210 317 297 79 210 168 b 426 553 210 463 299 553 b 643 317 556 553 643 458 b 426 79 643 164 556 79 z "},"ở":{"ha":853,"x_min":0,"x_max":0,"o":"m 299 758 b 576 918 519 779 576 858 b 318 1065 576 986 532 1035 l 265 1001 l 265 997 b 468 908 444 969 468 940 b 272 817 468 874 432 839 l 272 814 z m 644 575 b 817 801 753 575 810 638 l 704 801 b 576 646 699 681 678 646 l 429 646 b 89 318 229 646 89 508 b 424 -21 89 113 228 -21 b 764 310 624 -21 764 114 b 601 569 764 421 711 506 l 604 578 b 644 575 618 576 632 575 z m 426 79 b 210 317 297 79 210 168 b 426 553 210 463 299 553 b 643 317 556 553 643 458 b 426 79 643 164 556 79 z "},"ợ":{"ha":853,"x_min":0,"x_max":0,"o":"m 644 575 b 817 801 753 575 810 638 l 704 801 b 576 646 699 681 678 646 l 429 646 b 89 318 229 646 89 508 b 424 -21 89 113 228 -21 b 764 310 624 -21 764 114 b 601 569 764 421 711 506 l 604 578 b 644 575 618 576 632 575 z m 426 79 b 210 317 297 79 210 168 b 426 553 210 463 299 553 b 643 317 556 553 643 458 b 426 79 643 164 556 79 z m 425 -304 b 513 -224 479 -304 513 -276 b 426 -140 513 -169 483 -140 b 342 -224 374 -140 342 -174 b 425 -304 342 -276 372 -304 z "},"ŕ":{"ha":853,"x_min":0,"x_max":0,"o":"m 297 815 l 342 751 l 647 954 l 589 1035 z m 71 100 l 71 0 l 565 0 l 565 100 l 358 100 l 358 315 b 649 522 513 501 533 514 l 781 533 l 772 651 l 636 643 b 353 421 539 636 488 613 l 346 646 l 99 646 l 99 546 l 240 546 l 240 100 z "},"ř":{"ha":853,"x_min":0,"x_max":0,"o":"m 676 983 l 626 1036 l 419 853 l 213 1036 l 163 983 l 389 751 l 450 751 z m 71 100 l 71 0 l 565 0 l 565 100 l 358 100 l 358 315 b 649 522 513 501 533 514 l 781 533 l 772 651 l 636 643 b 353 421 539 636 488 613 l 346 646 l 99 646 l 99 546 l 240 546 l 240 100 z "},"ṙ":{"ha":853,"x_min":0,"x_max":0,"o":"m 418 779 b 506 861 472 779 506 807 b 419 944 506 914 476 944 b 335 861 367 944 335 910 b 418 779 335 807 365 779 z m 71 100 l 71 0 l 565 0 l 565 100 l 358 100 l 358 315 b 649 522 513 501 533 514 l 781 533 l 772 651 l 636 643 b 353 421 539 636 488 613 l 346 646 l 99 646 l 99 546 l 240 546 l 240 100 z "},"ṝ":{"ha":853,"x_min":0,"x_max":0,"o":"m 189 807 l 650 807 l 650 897 l 189 897 z m 71 100 l 71 0 l 565 0 l 565 100 l 358 100 l 358 315 b 649 522 513 501 533 514 l 781 533 l 772 651 l 636 643 b 353 421 539 636 488 613 l 346 646 l 99 646 l 99 546 l 240 546 l 240 100 z m 310 -297 b 397 -217 364 -297 397 -269 b 311 -133 397 -162 368 -133 b 226 -217 258 -133 226 -167 b 310 -297 226 -269 257 -297 z "},"ŗ":{"ha":853,"x_min":0,"x_max":0,"o":"m 71 100 l 71 0 l 565 0 l 565 100 l 358 100 l 358 315 b 649 522 513 501 533 514 l 781 533 l 772 651 l 636 643 b 353 421 539 636 488 613 l 346 646 l 99 646 l 99 546 l 240 546 l 240 100 z m 183 -412 b 461 -253 404 -392 461 -312 b 203 -106 461 -185 417 -136 l 150 -169 l 150 -174 b 353 -262 329 -201 353 -231 b 157 -354 353 -297 317 -332 l 157 -357 z "},"ṛ":{"ha":853,"x_min":0,"x_max":0,"o":"m 71 100 l 71 0 l 565 0 l 565 100 l 358 100 l 358 315 b 649 522 513 501 533 514 l 781 533 l 772 651 l 636 643 b 353 421 539 636 488 613 l 346 646 l 99 646 l 99 546 l 240 546 l 240 100 z m 310 -297 b 397 -217 364 -297 397 -269 b 311 -133 397 -162 368 -133 b 226 -217 258 -133 226 -167 b 310 -297 226 -269 257 -297 z "},"ṟ":{"ha":853,"x_min":0,"x_max":0,"o":"m 71 100 l 71 0 l 565 0 l 565 100 l 358 100 l 358 315 b 649 522 513 501 533 514 l 781 533 l 772 651 l 636 643 b 353 421 539 636 488 613 l 346 646 l 99 646 l 99 546 l 240 546 l 240 100 z m 81 -251 l 542 -251 l 542 -161 l 81 -161 z "},"ś":{"ha":853,"x_min":0,"x_max":0,"o":"m 324 822 l 368 758 l 674 961 l 615 1042 z m 725 181 b 511 369 725 276 689 328 l 392 397 b 269 489 288 424 269 447 b 457 567 269 533 308 567 b 682 538 514 567 594 557 l 699 639 b 458 664 617 654 519 664 b 147 479 235 664 147 586 b 360 294 147 389 182 338 l 481 267 b 604 172 582 242 604 217 b 404 81 604 119 557 81 b 149 111 344 81 249 90 l 131 10 b 403 -18 236 -11 321 -18 b 725 181 629 -18 725 69 z "},"ŝ":{"ha":853,"x_min":0,"x_max":0,"o":"m 189 804 l 239 751 l 446 935 l 653 751 l 703 804 l 476 1036 l 415 1036 z m 725 181 b 511 369 725 276 689 328 l 392 397 b 269 489 288 424 269 447 b 457 567 269 533 308 567 b 682 538 514 567 594 557 l 699 639 b 458 664 617 654 519 664 b 147 479 235 664 147 586 b 360 294 147 389 182 338 l 481 267 b 604 172 582 242 604 217 b 404 81 604 119 557 81 b 149 111 344 81 249 90 l 131 10 b 403 -18 236 -11 321 -18 b 725 181 629 -18 725 69 z "},"š":{"ha":853,"x_min":0,"x_max":0,"o":"m 703 990 l 653 1043 l 446 860 l 239 1043 l 189 990 l 415 758 l 476 758 z m 725 181 b 511 369 725 276 689 328 l 392 397 b 269 489 288 424 269 447 b 457 567 269 533 308 567 b 682 538 514 567 594 557 l 699 639 b 458 664 617 654 519 664 b 147 479 235 664 147 586 b 360 294 147 389 182 338 l 481 267 b 604 172 582 242 604 217 b 404 81 604 119 557 81 b 149 111 344 81 249 90 l 131 10 b 403 -18 236 -11 321 -18 b 725 181 629 -18 725 69 z "},"ș":{"ha":853,"x_min":0,"x_max":0,"o":"m 725 181 b 511 369 725 276 689 328 l 392 397 b 269 489 288 424 269 447 b 457 567 269 533 308 567 b 682 538 514 567 594 557 l 699 639 b 458 664 617 654 519 664 b 147 479 235 664 147 586 b 360 294 147 389 182 338 l 481 267 b 604 172 582 242 604 217 b 404 81 604 119 557 81 b 149 111 344 81 249 90 l 131 10 b 403 -18 236 -11 321 -18 b 725 181 629 -18 725 69 z m 288 -419 b 565 -260 508 -399 565 -319 b 307 -112 565 -192 521 -143 l 254 -176 l 254 -181 b 457 -269 433 -208 457 -237 b 261 -361 457 -304 421 -339 l 261 -364 z "},"ṣ":{"ha":853,"x_min":0,"x_max":0,"o":"m 725 181 b 511 369 725 276 689 328 l 392 397 b 269 489 288 424 269 447 b 457 567 269 533 308 567 b 682 538 514 567 594 557 l 699 639 b 458 664 617 654 519 664 b 147 479 235 664 147 586 b 360 294 147 389 182 338 l 481 267 b 604 172 582 242 604 217 b 404 81 604 119 557 81 b 149 111 344 81 249 90 l 131 10 b 403 -18 236 -11 321 -18 b 725 181 629 -18 725 69 z m 414 -304 b 501 -224 468 -304 501 -276 b 415 -140 501 -169 472 -140 b 331 -224 363 -140 331 -174 b 414 -304 331 -276 361 -304 z "},"ş":{"ha":853,"x_min":0,"x_max":0,"o":"m 725 181 b 511 369 725 276 689 328 l 392 397 b 269 489 288 424 269 447 b 457 567 269 533 308 567 b 682 538 514 567 594 557 l 699 639 b 458 664 617 654 519 664 b 147 479 235 664 147 586 b 360 294 147 389 182 338 l 481 267 b 604 172 582 242 604 217 b 404 81 604 119 557 81 b 149 111 344 81 249 90 l 131 10 b 379 -18 226 -10 304 -17 l 336 -140 l 344 -154 b 538 -215 514 -160 538 -182 b 260 -299 538 -251 510 -278 l 283 -375 b 635 -212 604 -347 635 -287 b 425 -89 635 -149 600 -107 l 449 -17 b 725 181 642 -6 725 78 z "},"ß":{"ha":853,"x_min":0,"x_max":0,"o":"m 658 194 b 553 104 658 143 628 110 l 440 96 l 447 -7 l 564 0 b 783 189 718 8 783 79 b 553 510 783 278 758 344 b 725 796 708 661 725 717 b 454 1007 725 914 626 1007 b 126 674 250 1007 126 872 l 126 0 l 246 0 l 246 674 b 453 907 246 819 319 907 b 601 786 543 907 601 857 b 428 525 601 733 589 685 l 428 476 b 658 194 635 311 658 256 z "},"ť":{"ha":853,"x_min":0,"x_max":0,"o":"m 578 783 l 657 783 l 696 1094 l 578 1094 z m 304 246 b 524 0 304 64 354 8 l 739 -10 l 747 92 l 551 103 b 422 263 451 108 422 142 l 422 546 l 708 546 l 708 646 l 421 646 l 421 886 l 306 886 l 306 646 l 86 646 l 86 546 l 304 546 z "},"ṱ":{"ha":853,"x_min":0,"x_max":0,"o":"m 304 246 b 524 0 304 64 354 8 l 739 -10 l 747 92 l 551 103 b 422 263 451 108 422 142 l 422 546 l 708 546 l 708 646 l 421 646 l 421 886 l 306 886 l 306 646 l 86 646 l 86 546 l 304 546 z m 199 -337 l 249 -390 l 456 -207 l 663 -390 l 713 -337 l 486 -106 l 425 -106 z "},"ț":{"ha":853,"x_min":0,"x_max":0,"o":"m 304 246 b 524 0 304 64 354 8 l 739 -10 l 747 92 l 551 103 b 422 263 451 108 422 142 l 422 546 l 708 546 l 708 646 l 421 646 l 421 886 l 306 886 l 306 646 l 86 646 l 86 546 l 304 546 z m 328 -412 b 606 -253 549 -392 606 -312 b 347 -106 606 -185 561 -136 l 294 -169 l 294 -174 b 497 -262 474 -201 497 -231 b 301 -354 497 -297 461 -332 l 301 -357 z "},"ṭ":{"ha":853,"x_min":0,"x_max":0,"o":"m 304 246 b 524 0 304 64 354 8 l 739 -10 l 747 92 l 551 103 b 422 263 451 108 422 142 l 422 546 l 708 546 l 708 646 l 421 646 l 421 886 l 306 886 l 306 646 l 86 646 l 86 546 l 304 546 z m 454 -297 b 542 -217 508 -297 542 -269 b 456 -133 542 -162 513 -133 b 371 -217 403 -133 371 -167 b 454 -297 371 -269 401 -297 z "},"ṯ":{"ha":853,"x_min":0,"x_max":0,"o":"m 304 246 b 524 0 304 64 354 8 l 739 -10 l 747 92 l 551 103 b 422 263 451 108 422 142 l 422 546 l 708 546 l 708 646 l 421 646 l 421 886 l 306 886 l 306 646 l 86 646 l 86 546 l 304 546 z m 225 -251 l 686 -251 l 686 -161 l 225 -161 z "},"ţ":{"ha":853,"x_min":0,"x_max":0,"o":"m 304 246 b 417 17 304 110 332 44 l 364 -133 l 372 -147 b 567 -208 543 -153 567 -175 b 289 -292 567 -244 538 -271 l 311 -368 b 663 -206 633 -340 663 -281 b 453 -82 663 -142 628 -100 l 481 4 b 524 0 494 1 508 1 l 739 -10 l 747 92 l 551 103 b 422 263 451 108 422 142 l 422 546 l 708 546 l 708 646 l 421 646 l 421 886 l 306 886 l 306 646 l 86 646 l 86 546 l 304 546 z "},"ŧ":{"ha":853,"x_min":0,"x_max":0,"o":"m 144 301 l 304 301 l 304 246 b 524 0 304 64 354 8 l 739 -10 l 747 88 l 550 99 b 422 258 451 104 422 138 l 422 301 l 638 301 l 638 381 l 422 381 l 422 550 l 708 550 l 708 646 l 421 646 l 421 886 l 306 886 l 306 646 l 86 646 l 86 550 l 304 550 l 304 381 l 144 381 z "},"ú":{"ha":853,"x_min":0,"x_max":0,"o":"m 310 803 l 354 739 l 660 942 l 601 1022 z m 721 0 l 721 646 l 601 646 l 601 250 b 357 99 479 133 419 99 b 247 217 279 99 247 139 l 247 646 l 128 646 l 128 196 b 324 -10 128 69 192 -10 b 606 143 414 -10 486 31 l 613 0 z "},"ű":{"ha":853,"x_min":0,"x_max":0,"o":"m 194 797 l 253 751 l 425 969 l 335 1026 z m 511 797 l 569 751 l 742 969 l 651 1026 z m 721 0 l 721 646 l 601 646 l 601 250 b 357 99 479 133 419 99 b 247 217 279 99 247 139 l 247 646 l 128 646 l 128 196 b 324 -10 128 69 192 -10 b 606 143 414 -10 486 31 l 613 0 z "},"ù":{"ha":853,"x_min":0,"x_max":0,"o":"m 556 801 l 263 1021 l 204 940 l 510 739 z m 721 0 l 721 646 l 601 646 l 601 250 b 357 99 479 133 419 99 b 247 217 279 99 247 139 l 247 646 l 128 646 l 128 196 b 324 -10 128 69 192 -10 b 606 143 414 -10 486 31 l 613 0 z "},"û":{"ha":853,"x_min":0,"x_max":0,"o":"m 175 804 l 225 751 l 432 935 l 639 751 l 689 804 l 463 1036 l 401 1036 z m 721 0 l 721 646 l 601 646 l 601 250 b 357 99 479 133 419 99 b 247 217 279 99 247 139 l 247 646 l 128 646 l 128 196 b 324 -10 128 69 192 -10 b 606 143 414 -10 486 31 l 613 0 z "},"ǔ":{"ha":853,"x_min":0,"x_max":0,"o":"m 689 971 l 639 1024 l 432 840 l 225 1024 l 175 971 l 401 739 l 463 739 z m 721 0 l 721 646 l 601 646 l 601 250 b 357 99 479 133 419 99 b 247 217 279 99 247 139 l 247 646 l 128 646 l 128 196 b 324 -10 128 69 192 -10 b 606 143 414 -10 486 31 l 613 0 z "},"ŭ":{"ha":853,"x_min":0,"x_max":0,"o":"m 432 840 b 251 1025 350 840 297 893 l 175 1000 b 432 751 222 824 304 751 b 689 1000 560 751 642 824 l 613 1025 b 432 840 568 894 514 840 z m 721 0 l 721 646 l 601 646 l 601 250 b 357 99 479 133 419 99 b 247 217 279 99 247 139 l 247 646 l 128 646 l 128 196 b 324 -10 128 69 192 -10 b 606 143 414 -10 486 31 l 613 0 z "},"ũ":{"ha":853,"x_min":0,"x_max":0,"o":"m 404 849 b 546 751 482 767 514 751 b 710 994 599 751 638 782 l 633 1022 b 543 850 579 868 564 850 b 456 922 528 850 515 860 b 314 1019 378 1004 346 1019 b 150 776 261 1019 222 990 l 226 749 b 317 922 282 904 296 922 b 404 849 332 922 344 913 z m 721 0 l 721 646 l 601 646 l 601 250 b 357 99 479 133 419 99 b 247 217 279 99 247 139 l 247 646 l 128 646 l 128 196 b 324 -10 128 69 192 -10 b 606 143 414 -10 486 31 l 613 0 z "},"ū":{"ha":853,"x_min":0,"x_max":0,"o":"m 201 807 l 663 807 l 663 897 l 201 897 z m 721 0 l 721 646 l 601 646 l 601 250 b 357 99 479 133 419 99 b 247 217 279 99 247 139 l 247 646 l 128 646 l 128 196 b 324 -10 128 69 192 -10 b 606 143 414 -10 486 31 l 613 0 z "},"ü":{"ha":853,"x_min":0,"x_max":0,"o":"m 268 779 b 351 857 319 779 351 807 b 269 936 351 908 322 936 b 188 857 219 936 188 904 b 268 779 188 807 218 779 z m 593 779 b 676 857 644 779 676 807 b 594 936 676 908 647 936 b 514 857 544 936 514 904 b 593 779 514 807 543 779 z m 721 0 l 721 646 l 601 646 l 601 250 b 357 99 479 133 419 99 b 247 217 279 99 247 139 l 247 646 l 128 646 l 128 196 b 324 -10 128 69 192 -10 b 606 143 414 -10 486 31 l 613 0 z "},"ǘ":{"ha":853,"x_min":0,"x_max":0,"o":"m 313 1042 l 350 975 l 672 1139 l 626 1226 z m 268 779 b 349 850 318 779 349 804 b 269 922 349 896 321 922 b 192 850 222 922 192 892 b 268 779 192 804 219 779 z m 593 779 b 674 850 643 779 674 804 b 594 922 674 896 646 922 b 515 850 546 922 515 892 b 593 779 515 804 544 779 z m 721 0 l 721 646 l 601 646 l 601 250 b 357 99 479 133 419 99 b 247 217 279 99 247 139 l 247 646 l 128 646 l 128 196 b 324 -10 128 69 192 -10 b 606 143 414 -10 486 31 l 613 0 z "},"ǜ":{"ha":853,"x_min":0,"x_max":0,"o":"m 551 1042 l 238 1226 l 188 1142 l 514 975 z m 268 779 b 349 850 318 779 349 804 b 269 922 349 896 321 922 b 192 850 222 922 192 892 b 268 779 192 804 219 779 z m 593 779 b 674 850 643 779 674 804 b 594 922 674 896 646 922 b 515 850 546 922 515 892 b 593 779 515 804 544 779 z m 721 0 l 721 646 l 601 646 l 601 250 b 357 99 479 133 419 99 b 247 217 279 99 247 139 l 247 646 l 128 646 l 128 196 b 324 -10 128 69 192 -10 b 606 143 414 -10 486 31 l 613 0 z "},"ǚ":{"ha":853,"x_min":0,"x_max":0,"o":"m 689 1196 l 639 1249 l 432 1082 l 225 1249 l 175 1196 l 406 982 l 458 982 z m 268 779 b 349 850 318 779 349 804 b 269 922 349 896 321 922 b 192 850 222 922 192 892 b 268 779 192 804 219 779 z m 593 779 b 674 850 643 779 674 804 b 594 922 674 896 646 922 b 515 850 546 922 515 892 b 593 779 515 804 544 779 z m 721 0 l 721 646 l 601 646 l 601 250 b 357 99 479 133 419 99 b 247 217 279 99 247 139 l 247 646 l 128 646 l 128 196 b 324 -10 128 69 192 -10 b 606 143 414 -10 486 31 l 613 0 z "},"ǖ":{"ha":853,"x_min":0,"x_max":0,"o":"m 221 1024 l 643 1024 l 643 1114 l 221 1114 z m 268 779 b 349 850 318 779 349 804 b 269 922 349 896 321 922 b 192 850 222 922 192 892 b 268 779 192 804 219 779 z m 593 779 b 674 850 643 779 674 804 b 594 922 674 896 646 922 b 515 850 546 922 515 892 b 593 779 515 804 544 779 z m 721 0 l 721 646 l 601 646 l 601 250 b 357 99 479 133 419 99 b 247 217 279 99 247 139 l 247 646 l 128 646 l 128 196 b 324 -10 128 69 192 -10 b 606 143 414 -10 486 31 l 613 0 z "},"ů":{"ha":853,"x_min":0,"x_max":0,"o":"m 431 739 b 631 913 550 739 631 806 b 433 1085 631 1019 551 1085 b 233 911 314 1085 233 1017 b 431 739 233 803 313 739 z m 432 815 b 315 910 354 815 315 847 b 432 1008 315 978 356 1008 b 547 914 508 1008 547 976 b 432 815 547 847 507 815 z m 721 0 l 721 646 l 601 646 l 601 250 b 357 99 479 133 419 99 b 247 217 279 99 247 139 l 247 646 l 128 646 l 128 196 b 324 -10 128 69 192 -10 b 606 143 414 -10 486 31 l 613 0 z "},"ủ":{"ha":853,"x_min":0,"x_max":0,"o":"m 304 739 b 582 899 525 760 582 839 b 324 1046 582 967 538 1015 l 271 982 l 271 978 b 474 889 450 950 474 921 b 278 797 474 854 438 819 l 278 794 z m 721 0 l 721 646 l 601 646 l 601 250 b 357 99 479 133 419 99 b 247 217 279 99 247 139 l 247 646 l 128 646 l 128 196 b 324 -10 128 69 192 -10 b 606 143 414 -10 486 31 l 613 0 z "},"ụ":{"ha":853,"x_min":0,"x_max":0,"o":"m 721 0 l 721 646 l 601 646 l 601 250 b 357 99 479 133 419 99 b 247 217 279 99 247 139 l 247 646 l 128 646 l 128 196 b 324 -10 128 69 192 -10 b 606 143 414 -10 486 31 l 613 0 z m 419 -297 b 507 -217 474 -297 507 -269 b 421 -133 507 -162 478 -133 b 336 -217 368 -133 336 -167 b 419 -297 336 -269 367 -297 z "},"ų":{"ha":853,"x_min":0,"x_max":0,"o":"m 517 -215 b 644 -319 517 -281 551 -314 l 775 -326 l 783 -244 l 678 -239 b 615 -179 629 -236 615 -215 b 703 0 615 -151 624 -110 l 721 0 l 721 646 l 601 646 l 601 250 b 357 99 479 133 419 99 b 247 217 279 99 247 139 l 247 646 l 128 646 l 128 196 b 324 -10 128 69 192 -10 b 606 143 414 -10 486 31 l 613 0 l 635 0 b 517 -215 533 -126 517 -176 z "},"ư":{"ha":853,"x_min":0,"x_max":0,"o":"m 721 0 l 721 572 b 890 801 829 579 886 640 l 779 801 b 642 646 774 675 753 646 l 601 646 l 601 250 b 357 99 479 133 419 99 b 247 217 279 99 247 139 l 247 646 l 128 646 l 128 196 b 324 -10 128 69 192 -10 b 606 143 414 -10 486 31 l 613 0 z "},"ứ":{"ha":853,"x_min":0,"x_max":0,"o":"m 310 803 l 354 739 l 660 942 l 601 1022 z m 721 0 l 721 572 b 890 801 829 579 886 640 l 779 801 b 642 646 774 675 753 646 l 601 646 l 601 250 b 357 99 479 133 419 99 b 247 217 279 99 247 139 l 247 646 l 128 646 l 128 196 b 324 -10 128 69 192 -10 b 606 143 414 -10 486 31 l 613 0 z "},"ừ":{"ha":853,"x_min":0,"x_max":0,"o":"m 556 801 l 263 1021 l 204 940 l 510 739 z m 721 0 l 721 572 b 890 801 829 579 886 640 l 779 801 b 642 646 774 675 753 646 l 601 646 l 601 250 b 357 99 479 133 419 99 b 247 217 279 99 247 139 l 247 646 l 128 646 l 128 196 b 324 -10 128 69 192 -10 b 606 143 414 -10 486 31 l 613 0 z "},"ữ":{"ha":853,"x_min":0,"x_max":0,"o":"m 404 849 b 546 751 482 767 514 751 b 710 994 599 751 638 782 l 633 1022 b 543 850 579 868 564 850 b 456 922 528 850 515 860 b 314 1019 378 1004 346 1019 b 150 776 261 1019 222 990 l 226 749 b 317 922 282 904 296 922 b 404 849 332 922 344 913 z m 721 0 l 721 572 b 890 801 829 579 886 640 l 779 801 b 642 646 774 675 753 646 l 601 646 l 601 250 b 357 99 479 133 419 99 b 247 217 279 99 247 139 l 247 646 l 128 646 l 128 196 b 324 -10 128 69 192 -10 b 606 143 414 -10 486 31 l 613 0 z "},"ử":{"ha":853,"x_min":0,"x_max":0,"o":"m 304 739 b 582 899 525 760 582 839 b 324 1046 582 967 538 1015 l 271 982 l 271 978 b 474 889 450 950 474 921 b 278 797 474 854 438 819 l 278 794 z m 721 0 l 721 572 b 890 801 829 579 886 640 l 779 801 b 642 646 774 675 753 646 l 601 646 l 601 250 b 357 99 479 133 419 99 b 247 217 279 99 247 139 l 247 646 l 128 646 l 128 196 b 324 -10 128 69 192 -10 b 606 143 414 -10 486 31 l 613 0 z "},"ự":{"ha":853,"x_min":0,"x_max":0,"o":"m 721 0 l 721 572 b 890 801 829 579 886 640 l 779 801 b 642 646 774 675 753 646 l 601 646 l 601 250 b 357 99 479 133 419 99 b 247 217 279 99 247 139 l 247 646 l 128 646 l 128 196 b 324 -10 128 69 192 -10 b 606 143 414 -10 486 31 l 613 0 z m 419 -297 b 507 -217 474 -297 507 -269 b 421 -133 507 -162 478 -133 b 336 -217 368 -133 336 -167 b 419 -297 336 -269 367 -297 z "},"ṿ":{"ha":853,"x_min":0,"x_max":0,"o":"m 76 646 l 357 0 l 497 0 l 776 646 l 650 646 l 429 107 l 210 646 z m 424 -297 b 511 -217 478 -297 511 -269 b 425 -133 511 -162 482 -133 b 340 -217 372 -133 340 -167 b 424 -297 340 -269 371 -297 z "},"ẃ":{"ha":853,"x_min":0,"x_max":0,"o":"m 303 804 l 347 740 l 653 943 l 594 1024 z m 657 0 l 793 646 l 681 646 l 583 129 l 439 557 l 415 557 l 271 128 l 174 646 l 61 646 l 193 0 l 311 0 l 425 342 l 538 0 z "},"ẁ":{"ha":853,"x_min":0,"x_max":0,"o":"m 549 803 l 256 1022 l 197 942 l 503 740 z m 657 0 l 793 646 l 681 646 l 583 129 l 439 557 l 415 557 l 271 128 l 174 646 l 61 646 l 193 0 l 311 0 l 425 342 l 538 0 z "},"ŵ":{"ha":853,"x_min":0,"x_max":0,"o":"m 168 804 l 218 751 l 425 935 l 632 751 l 682 804 l 456 1036 l 394 1036 z m 657 0 l 793 646 l 681 646 l 583 129 l 439 557 l 415 557 l 271 128 l 174 646 l 61 646 l 193 0 l 311 0 l 425 342 l 538 0 z "},"ẅ":{"ha":853,"x_min":0,"x_max":0,"o":"m 261 779 b 344 857 313 779 344 807 b 263 936 344 908 315 936 b 181 857 213 936 181 904 b 261 779 181 807 211 779 z m 586 779 b 669 857 638 779 669 807 b 588 936 669 908 640 936 b 507 857 538 936 507 904 b 586 779 507 807 536 779 z m 657 0 l 793 646 l 681 646 l 583 129 l 439 557 l 415 557 l 271 128 l 174 646 l 61 646 l 193 0 l 311 0 l 425 342 l 538 0 z "},"ẍ":{"ha":853,"x_min":0,"x_max":0,"o":"m 264 779 b 347 857 315 779 347 807 b 265 936 347 908 318 936 b 183 857 215 936 183 904 b 264 779 183 807 214 779 z m 589 779 b 672 857 640 779 672 807 b 590 936 672 908 643 936 b 510 857 540 936 510 904 b 589 779 510 807 539 779 z m 89 0 l 228 0 l 424 265 l 621 0 l 767 0 l 497 335 l 743 646 l 606 646 l 428 407 l 254 646 l 107 646 l 353 333 z "},"ý":{"ha":853,"x_min":0,"x_max":0,"o":"m 311 811 l 356 747 l 661 950 l 603 1031 z m 432 -171 l 778 646 l 651 646 l 435 101 l 213 646 l 79 646 l 369 -36 l 322 -143 b 193 -217 297 -197 271 -212 l 63 -224 l 65 -325 l 219 -318 b 432 -171 321 -312 385 -283 z "},"ỳ":{"ha":853,"x_min":0,"x_max":0,"o":"m 557 810 l 264 1029 l 206 949 l 511 747 z m 432 -171 l 778 646 l 651 646 l 435 101 l 213 646 l 79 646 l 369 -36 l 322 -143 b 193 -217 297 -197 271 -212 l 63 -224 l 65 -325 l 219 -318 b 432 -171 321 -312 385 -283 z "},"ŷ":{"ha":853,"x_min":0,"x_max":0,"o":"m 176 804 l 226 751 l 433 935 l 640 751 l 690 804 l 464 1036 l 403 1036 z m 432 -171 l 778 646 l 651 646 l 435 101 l 213 646 l 79 646 l 369 -36 l 322 -143 b 193 -217 297 -197 271 -212 l 63 -224 l 65 -325 l 219 -318 b 432 -171 321 -312 385 -283 z "},"ỹ":{"ha":853,"x_min":0,"x_max":0,"o":"m 406 849 b 547 751 483 767 515 751 b 711 994 600 751 639 782 l 635 1022 b 544 850 581 868 565 850 b 457 922 529 850 517 860 b 315 1019 379 1004 347 1019 b 151 776 263 1019 224 990 l 228 749 b 318 922 283 904 297 922 b 406 849 333 922 346 913 z m 432 -171 l 778 646 l 651 646 l 435 101 l 213 646 l 79 646 l 369 -36 l 322 -143 b 193 -217 297 -197 271 -212 l 63 -224 l 65 -325 l 219 -318 b 432 -171 321 -312 385 -283 z "},"ȳ":{"ha":853,"x_min":0,"x_max":0,"o":"m 203 807 l 664 807 l 664 897 l 203 897 z m 432 -171 l 778 646 l 651 646 l 435 101 l 213 646 l 79 646 l 369 -36 l 322 -143 b 193 -217 297 -197 271 -212 l 63 -224 l 65 -325 l 219 -318 b 432 -171 321 -312 385 -283 z "},"ÿ":{"ha":853,"x_min":0,"x_max":0,"o":"m 269 779 b 353 857 321 779 353 807 b 271 936 353 908 324 936 b 189 857 221 936 189 904 b 269 779 189 807 219 779 z m 594 779 b 678 857 646 779 678 807 b 596 936 678 908 649 936 b 515 857 546 936 515 904 b 594 779 515 807 544 779 z m 432 -171 l 778 646 l 651 646 l 435 101 l 213 646 l 79 646 l 369 -36 l 322 -143 b 193 -217 297 -197 271 -212 l 63 -224 l 65 -325 l 219 -318 b 432 -171 321 -312 385 -283 z "},"ẏ":{"ha":853,"x_min":0,"x_max":0,"o":"m 432 775 b 519 857 486 775 519 803 b 433 940 519 910 490 940 b 349 857 381 940 349 906 b 432 775 349 803 379 775 z m 432 -171 l 778 646 l 651 646 l 435 101 l 213 646 l 79 646 l 369 -36 l 322 -143 b 193 -217 297 -197 271 -212 l 63 -224 l 65 -325 l 219 -318 b 432 -171 321 -312 385 -283 z "},"ỷ":{"ha":853,"x_min":0,"x_max":0,"o":"m 306 751 b 583 911 526 772 583 851 b 325 1058 583 979 539 1028 l 272 994 l 272 990 b 475 901 451 963 475 933 b 279 810 475 867 439 832 l 279 807 z m 432 -171 l 778 646 l 651 646 l 435 101 l 213 646 l 79 646 l 369 -36 l 322 -143 b 193 -217 297 -197 271 -212 l 63 -224 l 65 -325 l 219 -318 b 432 -171 321 -312 385 -283 z "},"ỵ":{"ha":853,"x_min":0,"x_max":0,"o":"m 432 -171 l 778 646 l 651 646 l 435 101 l 213 646 l 79 646 l 369 -36 l 322 -143 b 193 -217 297 -197 271 -212 l 63 -224 l 65 -325 l 219 -318 b 432 -171 321 -312 385 -283 z m 663 -297 b 750 -217 717 -297 750 -269 b 664 -133 750 -162 721 -133 b 579 -217 611 -133 579 -167 b 663 -297 579 -269 610 -297 z "},"ź":{"ha":853,"x_min":0,"x_max":0,"o":"m 317 815 l 361 751 l 667 954 l 608 1035 z m 119 0 l 749 0 l 749 97 l 290 97 l 290 101 l 726 563 l 726 646 l 136 646 l 136 550 l 561 550 l 561 546 l 119 82 z "},"ẑ":{"ha":853,"x_min":0,"x_max":0,"o":"m 182 804 l 232 751 l 439 935 l 646 751 l 696 804 l 469 1036 l 408 1036 z m 119 0 l 749 0 l 749 97 l 290 97 l 290 101 l 726 563 l 726 646 l 136 646 l 136 550 l 561 550 l 561 546 l 119 82 z "},"ž":{"ha":853,"x_min":0,"x_max":0,"o":"m 696 983 l 646 1036 l 439 853 l 232 1036 l 182 983 l 408 751 l 469 751 z m 119 0 l 749 0 l 749 97 l 290 97 l 290 101 l 726 563 l 726 646 l 136 646 l 136 550 l 561 550 l 561 546 l 119 82 z "},"ż":{"ha":853,"x_min":0,"x_max":0,"o":"m 438 779 b 525 861 492 779 525 807 b 439 944 525 914 496 944 b 354 861 386 944 354 910 b 438 779 354 807 385 779 z m 119 0 l 749 0 l 749 97 l 290 97 l 290 101 l 726 563 l 726 646 l 136 646 l 136 550 l 561 550 l 561 546 l 119 82 z "},"ẓ":{"ha":853,"x_min":0,"x_max":0,"o":"m 119 0 l 749 0 l 749 97 l 290 97 l 290 101 l 726 563 l 726 646 l 136 646 l 136 550 l 561 550 l 561 546 l 119 82 z m 438 -297 b 525 -217 492 -297 525 -269 b 439 -133 525 -162 496 -133 b 354 -217 386 -133 354 -167 b 438 -297 354 -269 385 -297 z "},"ẕ":{"ha":853,"x_min":0,"x_max":0,"o":"m 119 0 l 749 0 l 749 97 l 290 97 l 290 101 l 726 563 l 726 646 l 136 646 l 136 550 l 561 550 l 561 546 l 119 82 z m 208 -251 l 669 -251 l 669 -161 l 208 -161 z "},"ð":{"ha":853,"x_min":0,"x_max":0,"o":"m 593 1039 l 481 929 b 265 1007 417 967 344 990 l 235 910 b 406 850 310 894 361 876 l 271 725 l 326 671 l 471 810 b 643 526 569 744 626 665 b 407 589 558 575 483 589 b 89 294 215 589 89 456 b 401 -21 89 99 218 -21 b 764 449 618 -21 764 142 b 546 889 764 644 693 783 l 650 986 z m 210 293 b 425 496 210 414 286 496 b 644 432 486 496 544 486 b 407 79 639 178 539 79 b 210 293 294 79 210 161 z "},"þ":{"ha":853,"x_min":0,"x_max":0,"o":"m 128 -319 l 247 -319 l 247 76 b 453 -10 324 7 390 -10 b 771 331 632 -10 771 131 b 485 658 771 531 640 658 b 247 542 396 658 328 628 l 247 986 l 128 986 z m 450 560 b 649 328 558 560 649 469 b 425 89 649 194 568 89 b 247 171 381 89 322 103 l 247 449 b 450 560 333 536 390 560 z "},"ə":{"ha":853,"x_min":0,"x_max":0,"o":"m 357 560 b 631 367 536 554 618 496 l 107 367 b 103 317 104 354 103 336 b 413 -19 103 96 225 -19 b 749 335 607 -19 749 129 b 392 654 749 533 642 650 l 228 657 l 224 563 z m 413 75 b 221 278 304 75 231 136 l 628 278 b 413 75 610 147 521 75 z "}," ":{"ha":853,"x_min":0,"x_max":0,"o":""}," ":{"ha":853,"x_min":0,"x_max":0,"o":""},"⁄":{"ha":853,"x_min":0,"x_max":0,"o":"m 736 913 l 388 469 l 0 -3 l 117 -3 l 460 438 l 853 913 z "},"‑":{"ha":853,"x_min":0,"x_max":0,"o":"m 167 446 l 167 332 l 686 332 l 686 446 z "},"―":{"ha":853,"x_min":0,"x_max":0,"o":"m 69 446 l 69 332 l 783 332 l 783 446 z "},"́":{"ha":0,"x_min":0,"x_max":0,"o":"m -122 815 l -78 751 l 228 954 l 169 1035 z "},"̋":{"ha":0,"x_min":0,"x_max":0,"o":"m -237 797 l -179 751 l -7 969 l -97 1026 z m 79 797 l 138 751 l 310 969 l 219 1026 z "},"̀":{"ha":0,"x_min":0,"x_max":0,"o":"m 124 814 l -169 1033 l -228 953 l 78 751 z "},"̕":{"ha":0,"x_min":0,"x_max":0,"o":"m 0 675 l 79 675 l 118 986 l 0 986 z "},"̂":{"ha":0,"x_min":0,"x_max":0,"o":"m -257 804 l -207 751 l 0 935 l 207 751 l 257 804 l 31 1036 l -31 1036 z "},"̌":{"ha":0,"x_min":0,"x_max":0,"o":"m 257 983 l 207 1036 l 0 853 l -207 1036 l -257 983 l -31 751 l 31 751 z "},"̆":{"ha":0,"x_min":0,"x_max":0,"o":"m 0 840 b -181 1025 -82 840 -135 893 l -257 1000 b 0 751 -210 824 -128 751 b 257 1000 128 751 210 824 l 181 1025 b 0 840 136 894 82 840 z "}}}
